<svg width="35" height="35" viewBox="0 0 35 35" fill="none" xmlns="http://www.w3.org/2000/svg">
<path fill-rule="evenodd" clip-rule="evenodd" d="M20.0727 4.375C21.7299 4.375 23.2448 5.31126 23.9858 6.79344L25.2902 9.40219C25.5372 9.89625 26.0422 10.2083 26.5946 10.2083H27.7087C30.1249 10.2083 32.0837 12.1671 32.0837 14.5833V26.25C32.0837 28.6662 30.1249 30.625 27.7087 30.625H7.29199C4.87575 30.625 2.91699 28.6662 2.91699 26.25V14.5833C2.91699 12.1671 4.87575 10.2083 7.29199 10.2083H8.40606C8.95844 10.2083 9.4634 9.89625 9.71043 9.40219L11.0148 6.79344C11.7559 5.31126 13.2708 4.375 14.9279 4.375H20.0727ZM20.0727 7.29166H14.9279C14.3755 7.29166 13.8706 7.60375 13.6235 8.09781L12.3192 10.7066C11.5781 12.1887 10.0632 13.125 8.40605 13.125H7.29198C6.48657 13.125 5.83365 13.7779 5.83365 14.5833V26.25C5.83365 27.0554 6.48657 27.7083 7.29198 27.7083H27.7086C28.5141 27.7083 29.167 27.0554 29.167 26.25V14.5833C29.167 13.7779 28.5141 13.125 27.7086 13.125H26.5946C24.9375 13.125 23.4226 12.1887 22.6815 10.7066L21.3771 8.09781C21.1301 7.60375 20.6251 7.29166 20.0727 7.29166ZM17.5003 13.125C20.722 13.125 23.3337 15.7367 23.3337 18.9583C23.3337 22.18 20.722 24.7917 17.5003 24.7917C14.2787 24.7917 11.667 22.18 11.667 18.9583C11.667 15.7367 14.2787 13.125 17.5003 13.125ZM17.5003 16.0417C15.8895 16.0417 14.5836 17.3475 14.5836 18.9583C14.5836 20.5692 15.8895 21.875 17.5003 21.875C19.1111 21.875 20.417 20.5692 20.417 18.9583C20.417 17.3475 19.1111 16.0417 17.5003 16.0417Z" fill="white"/>
</svg>
