<svg xmlns:svg="http://www.w3.org/2000/svg" xmlns="http://www.w3.org/2000/svg" version="1.0" width="150" height="150">
  <rect width="100%" height="100%" fill="#80808040"/>
  <g>
    <path fill="#808080" d="M 104,56 C 102,80 93,97 74,97 55,97 46,82 44,57 41,34 55,15 74,15 c 18,0 32,18 30,40 z"/>
    <path fill="red" d="M 92 89 C 90 93 89 102 94 106 C 103 114 106 116 118 118 C 144 124 141 138 146 149 L 4 149 C 8 138 6 124 32 118 C 41 116 45 113 53 107 C 58 102 57 93 56 89 C 52 88 94 88 92 89 z"/>
  </g>
</svg>
