<?xml version="1.0" encoding="UTF-8" standalone="no"?>
<!-- Created with Inkscape (http://www.inkscape.org/) -->

<svg
   width="260"
   height="380"
   viewBox="0 0 68.791664 100.54173"
   version="1.1"
   id="svg1"
   sodipodi:docname="msr-logo-phone-no-title.svg"
   inkscape:version="1.3.2 (091e20e, 2023-11-25, custom)"
   xmlns:inkscape="http://www.inkscape.org/namespaces/inkscape"
   xmlns:sodipodi="http://sodipodi.sourceforge.net/DTD/sodipodi-0.dtd"
   xmlns="http://www.w3.org/2000/svg"
   xmlns:svg="http://www.w3.org/2000/svg">
  <sodipodi:namedview
     id="namedview1"
     pagecolor="#ffffff"
     bordercolor="#000000"
     borderopacity="0.25"
     inkscape:showpageshadow="2"
     inkscape:pageopacity="0.0"
     inkscape:pagecheckerboard="0"
     inkscape:deskcolor="#d1d1d1"
     inkscape:document-units="mm"
     inkscape:zoom="1"
     inkscape:cx="-85"
     inkscape:cy="177"
     inkscape:window-width="1720"
     inkscape:window-height="650"
     inkscape:window-x="-7"
     inkscape:window-y="-7"
     inkscape:window-maximized="1"
     inkscape:current-layer="layer1" />
  <defs
     id="defs1">
    <inkscape:path-effect
       effect="fillet_chamfer"
       id="path-effect6"
       is_visible="true"
       lpeversion="1"
       nodesatellites_param="F,0,0,1,0,5.1923942,0,1 @ F,0,0,1,0,4.792423,0,1 @ F,0,0,1,0,4.6907968,0,1 @ F,0,0,1,0,4.7866552,0,1"
       radius="0"
       unit="px"
       method="auto"
       mode="F"
       chamfer_steps="1"
       flexible="false"
       use_knot_distance="true"
       apply_no_radius="true"
       apply_with_radius="true"
       only_selected="false"
       hide_knots="false" />
    <inkscape:path-effect
       effect="fillet_chamfer"
       id="path-effect5"
       is_visible="true"
       lpeversion="1"
       nodesatellites_param="F,0,0,1,0,0,0,1 @ F,0,0,1,0,0,0,1 @ F,0,0,1,0,0,0,1 @ F,0,0,1,0,0,0,1"
       radius="0"
       unit="px"
       method="auto"
       mode="F"
       chamfer_steps="1"
       flexible="false"
       use_knot_distance="true"
       apply_no_radius="true"
       apply_with_radius="true"
       only_selected="false"
       hide_knots="false" />
    <inkscape:path-effect
       effect="fillet_chamfer"
       id="path-effect3"
       is_visible="true"
       lpeversion="1"
       nodesatellites_param="F,0,0,1,0,3.9305318,0,1 @ F,0,0,1,0,0,0,1 @ F,0,0,1,0,0,0,1 @ F,0,0,1,0,0,0,1"
       radius="0"
       unit="px"
       method="auto"
       mode="F"
       chamfer_steps="1"
       flexible="false"
       use_knot_distance="true"
       apply_no_radius="true"
       apply_with_radius="true"
       only_selected="false"
       hide_knots="false" />
    <inkscape:path-effect
       effect="fillet_chamfer"
       id="path-effect112"
       is_visible="true"
       lpeversion="1"
       nodesatellites_param="F,0,0,1,0,0,0,1 @ F,0,0,1,0,8.4407545,0,1 @ F,0,0,1,0,7.948843,0,1 @ F,0,0,1,0,0,0,1"
       radius="0"
       unit="px"
       method="auto"
       mode="F"
       chamfer_steps="1"
       flexible="false"
       use_knot_distance="true"
       apply_no_radius="true"
       apply_with_radius="true"
       only_selected="false"
       hide_knots="false" />
    <inkscape:path-effect
       effect="fillet_chamfer"
       id="path-effect111"
       is_visible="true"
       lpeversion="1"
       nodesatellites_param="F,0,0,1,0,0,0,1 @ F,0,0,1,0,0,0,1 @ F,0,0,1,0,0,0,1 @ F,0,0,1,0,0,0,1 @ F,0,0,1,0,0,0,1 @ F,0,0,1,0,0,0,1 @ F,0,0,1,0,0,0,1 @ F,0,0,1,0,0,0,1"
       radius="0"
       unit="px"
       method="auto"
       mode="F"
       chamfer_steps="1"
       flexible="false"
       use_knot_distance="true"
       apply_no_radius="true"
       apply_with_radius="true"
       only_selected="false"
       hide_knots="false" />
    <clipPath
       clipPathUnits="userSpaceOnUse"
       id="clipPath25">
      <rect
         style="fill:#ff0000;stroke:none;stroke-width:3;stroke-linecap:square;stroke-linejoin:miter;paint-order:stroke markers fill;stop-color:#000000"
         id="rect25-8"
         width="78"
         height="45.033199"
         x="763.61322"
         y="452.82422" />
    </clipPath>
    <linearGradient
       id="swatch45"
       inkscape:swatch="solid">
      <stop
         style="stop-color:#000000;stop-opacity:1;"
         offset="0"
         id="stop46" />
    </linearGradient>
    <linearGradient
       id="swatch18"
       inkscape:swatch="solid">
      <stop
         style="stop-color:#000000;stop-opacity:1;"
         offset="0"
         id="stop18" />
    </linearGradient>
    <linearGradient
       id="swatch11"
       inkscape:swatch="solid">
      <stop
         style="stop-color:#000000;stop-opacity:1;"
         offset="0"
         id="stop11" />
    </linearGradient>
    <inkscape:path-effect
       effect="bspline"
       id="path-effect4"
       is_visible="true"
       lpeversion="1.3"
       weight="33.333333"
       steps="2"
       helper_size="0"
       apply_no_weight="true"
       apply_with_weight="true"
       only_selected="false"
       uniform="false" />
    <inkscape:path-effect
       effect="bspline"
       id="path-effect4-7"
       is_visible="true"
       lpeversion="1.3"
       weight="33.333333"
       steps="2"
       helper_size="0"
       apply_no_weight="true"
       apply_with_weight="true"
       only_selected="false"
       uniform="false" />
    <clipPath
       clipPathUnits="userSpaceOnUse"
       id="clipPath426">
      <path
         id="path427"
         style="fill:#ff0000;fill-opacity:1;fill-rule:nonzero;stroke:none;stroke-width:0.264583"
         d="M 1.5875,1.920813 V 98.812572 H 67.462548 V 1.920813 Z m 34.171559,75.138048 c 0.134313,-0.0054 0.284036,0.03989 0.433565,0.14418 -0.05273,-0.0286 -0.04391,-0.07889 5.29e-4,-0.0801 0.01069,-2.65e-4 0.02326,0.0029 0.03721,0.0093 0.01834,0.0084 0.01717,0.0085 0.02791,0.01344 -0.0042,-0.0217 0.01138,-0.04112 0.03876,-0.04134 v -5.29e-4 c 0.01069,-8.5e-5 0.02339,0.0031 0.03721,0.0098 0.04624,0.02233 0.09225,0.04434 0.138494,0.06666 0.0466,0.02458 0.09423,0.04787 0.140043,0.0739 0.08967,0.05096 0.152898,0.0943 0.236162,0.153998 0.09989,0.07162 0.197163,0.147447 0.288354,0.22996 0.01556,0.01408 0.09963,0.08992 0.119372,0.108002 0.02831,0.02593 0.05869,0.05221 0.08475,0.08062 0.0046,0.005 0.0086,0.01072 0.01291,0.01601 0.01151,0.0141 0.0172,0.02693 0.0186,0.03772 0.0016,0.0016 0.003,0.0029 0.0047,0.0047 0.009,0.0096 0.01609,0.02109 0.02119,0.03307 0.0067,0.01564 -0.0065,0.0093 -0.01654,0.0052 0.0024,0.01225 -0.0019,0.0232 -0.01035,0.03049 -0.0039,0.04299 -0.04331,0.05554 -0.0739,-0.0031 -1.79e-4,-2.64e-4 -1.72e-4,-7.94e-4 -5.29e-4,-0.0011 -2.4e-5,0.0136 0.0013,0.02918 -0.0072,0.03772 -0.0013,0.0013 -0.0024,7.94e-4 -0.0036,0.0021 0.0131,0.03657 -0.0024,0.0633 -0.02429,0.06718 0.0041,0.0089 0.009,0.01754 0.01394,0.02582 h 5.29e-4 c 0.0035,0.0053 0.0092,0.0097 0.01035,0.01601 5.3e-5,5.29e-4 -5.29e-4,7.94e-4 -5.29e-4,0.0011 0.0013,0.0019 0.0024,0.0034 0.0036,0.0052 0.0074,0.0021 0.03005,0.0086 0.03307,0.01241 0.01048,0.01331 -0.0024,0.01474 -0.0098,0.01913 0.03112,0.04866 0.0013,0.0887 -0.03876,0.06925 -4.7e-5,0.0013 5.3e-4,7.93e-4 5.3e-4,0.0021 -1.01e-4,0.0019 -0.0034,0.0016 -0.0052,0.0021 -0.0027,7.94e-4 -0.0055,0.0011 -0.0083,0.0016 0.006,0.0013 0.0093,0.0061 0.0062,0.0181 -5.29e-4,0.0024 -0.0065,0.0024 -0.01035,0.0036 0.0026,0.0067 0.0053,0.01344 0.0078,0.02016 0.0037,0.01058 -1.21e-4,0.01786 -0.0057,0.01913 2.65e-4,0.0062 0.0114,0.0087 0.0067,0.01603 -2.22e-4,2.65e-4 -1.37e-4,0.0024 -5.29e-4,0.0026 v 0.0016 c 0.003,0.0113 -0.0019,0.02339 -0.0186,0.03307 0.01066,0.008 0.0217,0.01664 0.02482,0.03824 2.62e-4,-2.62e-4 5.29e-4,-0.0029 0.0011,-0.0031 0.0036,-0.0031 0.0082,-0.0038 0.01241,-0.0062 0.0031,-2.25e-4 0.0062,-0.0019 0.0093,-0.0021 0.0011,-3.7e-5 0.0016,-1.06e-4 0.0026,0 0.01831,0.0019 0.02924,0.01857 0.03514,0.03411 5.29e-4,0.0013 5.29e-4,0.0024 0.0011,0.0036 0.0019,0.0024 0.0041,0.0048 0.0057,0.0072 -5.3e-4,-0.01966 -0.0011,-0.03931 -0.0021,-0.05891 -2.65e-4,-0.0067 2.64e-4,-0.0085 -0.0011,-0.01447 -0.0016,-0.01437 0.0046,-0.02201 0.01188,-0.02273 0.0073,-7.93e-4 0.01535,0.0058 0.01707,0.02016 7.94e-4,0.0061 0.0011,0.0079 0.0016,0.01497 0.0031,0.05337 0.0032,0.106778 0.0041,0.160197 0.0021,0.174379 0.0043,0.348586 0.0067,0.522965 0.0024,0.104664 0.0011,0.05397 0.0036,0.152445 7.94e-4,0.02893 -0.02817,0.02891 -0.02894,0.0016 -0.0027,-0.09869 -0.0013,-0.048 -0.0036,-0.152961 -2.65e-4,-0.02842 -5.29e-4,-0.05687 -0.0011,-0.08527 l -5.3e-4,5.3e-4 c -0.0013,0.0011 -0.0027,0.0021 -0.0041,0.0031 1.96e-4,0.0057 7.94e-4,0.01159 5.29e-4,0.01757 -0.0011,0.03815 -0.03685,0.04112 -0.04082,0.0088 -0.0032,0.0035 -0.0071,0.0075 -0.01188,0.0093 -0.0046,0.0016 -0.0097,0.0024 -0.01447,0.0031 -0.0034,-0.0011 -0.007,-0.0019 -0.01034,-0.0031 -0.0011,0.0051 -0.0031,0.0093 -0.0036,0.01447 -0.0024,0.02757 -0.0029,0.05513 -0.0016,0.08268 0.0249,0.02085 0.02993,0.06543 0.03204,0.112139 0.131059,0.09676 0.266935,0.187261 0.405659,0.274402 0.234387,0.164838 0.486415,0.315613 0.701249,0.506431 0.0041,0.0037 -0.01103,-5.6e-5 -0.01654,0 -0.179142,0.0019 -0.302975,0.04049 -0.386541,0.103351 0.01304,0.0085 0.0089,0.005 0.02842,0.01757 1.100627,0.709721 0.361032,1.839502 -0.724503,1.106908 -0.08003,-0.054 -0.03815,-0.02732 -0.126608,-0.07907 -0.277596,-0.161208 -0.493072,-0.369353 -0.664044,-0.641302 -0.140618,-0.222186 -0.360174,-0.388892 -0.487822,-0.622186 -0.244124,-0.204655 -0.409737,-0.466299 -0.528135,-0.762228 -0.08214,-0.254055 -0.109898,-0.523634 -0.04548,-0.775144 -0.382688,-0.718198 -0.113945,-1.236102 0.310579,-1.253154 z m 0.4439,0.151929 c 0.09559,0.06847 0.189558,0.170302 0.280601,0.289907 0.05297,0.0051 0.102576,0.01805 0.148828,0.03824 -0.0071,-0.01744 -0.01125,-0.0327 -0.0057,-0.04548 -0.05884,-0.03042 -0.117599,-0.06122 -0.175699,-0.09302 -0.02289,-0.01249 -0.04558,-0.0258 -0.06821,-0.03876 -0.01884,-0.01079 -0.01378,-0.0282 -0.0016,-0.02997 v -0.0016 c 0.0045,-5.29e-4 0.0097,1.12e-4 0.01601,0.0036 0.02246,0.01289 0.04549,0.02529 0.06821,0.03772 0.06066,0.0332 0.121515,0.0659 0.182936,0.09767 0.0016,-0.0011 0.0033,-0.0024 0.0052,-0.0036 0.0013,-7.93e-4 0.0024,-0.0021 0.0036,-0.0026 -0.03733,-0.02611 -0.07424,-0.05285 -0.11317,-0.07648 -0.06573,-0.0399 -0.115393,-0.06488 -0.182936,-0.100769 -0.107191,-0.05258 -0.06761,-0.03346 -0.158128,-0.07493 z m 1.021643,0.981853 c -2.64e-4,0.0026 -1.27e-4,0.0052 -5.29e-4,0.0078 7.94e-4,-2.54e-4 0.0013,-1.51e-4 0.0021,-5.3e-4 -5.29e-4,-0.0026 -0.0013,-0.0047 -0.0016,-0.0072 z m 0.03256,0.03824 5.29e-4,5.3e-4 5.29e-4,-5.3e-4 c -2.65e-4,-2.6e-5 -7.94e-4,3e-6 -0.0011,0 z m 0.03979,0.18242 c -1.59e-4,7.94e-4 -6.6e-5,0.0013 -5.29e-4,0.0021 2.65e-4,-5.1e-5 7.94e-4,4.7e-5 0.0011,0 -1.56e-4,-7.94e-4 -9.7e-5,-0.0013 -5.29e-4,-0.0021 z" />
    </clipPath>
    <clipPath
       clipPathUnits="userSpaceOnUse"
       id="clipPath429">
      <path
         id="path430"
         style="fill:#ff0000;fill-opacity:1;fill-rule:nonzero;stroke:none;stroke-width:0.264583"
         d="m 36.684582,77.278487 v 0.0186 c 0.05571,0.03455 0.105085,0.06862 0.164333,0.111104 0.09989,0.07162 0.197162,0.147447 0.288354,0.22996 0.01556,0.01408 0.09963,0.08992 0.119372,0.108003 0.02831,0.02593 0.05869,0.05221 0.08475,0.08061 0.0046,0.005 0.0086,0.01072 0.01291,0.01601 0.01151,0.0141 0.0172,0.02693 0.0186,0.03772 0.0016,0.0016 0.003,0.0029 0.0047,0.0047 0.009,0.0096 0.01609,0.02109 0.02119,0.03307 0.0087,0.02027 -0.0046,0.02973 -0.01707,0.0217 -1.13e-4,2.64e-4 -2.03e-4,7.94e-4 -5.29e-4,0.0011 0.01572,0.06477 -0.0457,0.07768 -0.08165,0.01291 -2.64e-4,0.01267 -0.0013,0.0258 -0.0093,0.03359 -0.0011,0.0011 -0.0019,0.0016 -0.0031,0.0026 0.0127,0.03626 -0.0029,0.0628 -0.02482,0.06666 0.0041,0.0088 0.0085,0.0176 0.01344,0.02582 2.62e-4,6.8e-5 7.94e-4,-6.7e-5 0.0011,0 0.0035,0.0053 0.0092,0.0097 0.01035,0.01601 6.1e-5,5.29e-4 -5.29e-4,7.94e-4 -5.29e-4,0.0011 0.0013,0.0019 0.0024,0.0034 0.0036,0.0052 0.0074,0.0021 0.03005,0.0086 0.03307,0.01241 0.0126,0.01601 0.0053,0.0227 -0.0052,0.02687 0.02315,0.04483 -0.0052,0.07944 -0.04289,0.0615 -3.9e-5,7.94e-4 5.3e-5,0.0011 0,0.0021 -1e-4,0.0019 -0.0034,0.0016 -0.0052,0.0021 -0.0027,7.94e-4 -0.0055,0.0021 -0.0083,0.0026 0.006,0.0013 0.0093,0.0066 0.0062,0.0186 -7.93e-4,0.0028 -0.0045,0.005 -0.0093,0.0062 2.65e-4,0.0011 5.29e-4,0.0021 0.0011,0.0031 0.01606,0.0108 0.01976,0.02969 0.0067,0.05013 -2.22e-4,2.64e-4 -1.35e-4,0.0029 -5.29e-4,0.0031 v 5.29e-4 c 0.0021,0.0076 5.29e-4,0.01577 -0.0057,0.02326 0.01095,0.0071 0.01926,0.02164 0.02066,0.04238 0.0016,-7.94e-4 0.0029,-0.0016 0.0047,-0.0026 0.0031,-2.19e-4 0.0062,-0.0029 0.0093,-0.0031 0.0011,-3.8e-5 0.0016,-1.04e-4 0.0026,0 0.01831,0.0019 0.02924,0.01908 0.03514,0.03462 5.29e-4,0.0013 5.29e-4,0.0019 0.0011,0.0031 0.0024,0.0028 0.0044,0.0063 0.0062,0.0093 -5.29e-4,-0.02011 -0.0013,-0.04041 -0.0026,-0.06046 -2.65e-4,-0.0067 2.64e-4,-0.0085 -0.0011,-0.01447 -0.0016,-0.01437 0.0046,-0.02201 0.01188,-0.02273 0.0073,-7.94e-4 0.01535,0.0063 0.01707,0.02066 7.94e-4,0.0061 0.0011,0.0074 0.0016,0.01447 0.0031,0.05337 0.0032,0.106775 0.0041,0.160197 0.0021,0.174376 0.0043,0.348589 0.0067,0.522965 0.0024,0.104664 0.0011,0.05397 0.0036,0.152448 7.94e-4,0.02893 -0.02817,0.03074 -0.02894,0.0031 -0.0027,-0.09869 -0.0013,-0.048 -0.0036,-0.152961 -2.65e-4,-0.02842 -0.0011,-0.05686 -0.0016,-0.08527 l -5.29e-4,5.29e-4 c -0.0013,0.0011 -0.0021,0.0021 -0.0036,0.0031 1.96e-4,0.0057 7.94e-4,0.01116 5.3e-4,0.01707 -0.0011,0.03815 -0.03685,0.04132 -0.04082,0.0088 -0.0032,0.0035 -0.0071,0.0065 -0.01188,0.0083 -0.0046,0.0016 -0.0097,0.0013 -0.01447,0.0021 -0.0038,-0.0011 -0.0078,-0.0021 -0.01138,-0.0036 h -5.29e-4 c -0.0011,0.0052 -0.0021,0.01024 -0.0026,0.0155 -0.0016,0.01931 -0.0024,0.03859 -0.0021,0.05788 0.03286,0.0254 0.05391,0.07511 0.04702,0.145725 0.126767,0.09285 0.257916,0.180025 0.391708,0.264067 0.188243,0.132387 0.387398,0.256154 0.569992,0.398426 h 0.590661 v -2.57297 z m 0.572575,0.952396 5.29e-4,5.3e-4 5.29e-4,-5.3e-4 c -2.65e-4,-2.6e-5 -7.94e-4,3e-6 -0.0011,0 z m 0.03979,0.18242 c -1.56e-4,7.94e-4 -6.6e-5,0.0013 -5.29e-4,0.0021 2.65e-4,-5.1e-5 7.94e-4,4.7e-5 0.0011,0 -1.58e-4,-7.94e-4 -9.2e-5,-0.0013 -5.29e-4,-0.0021 z" />
    </clipPath>
    <clipPath
       clipPathUnits="userSpaceOnUse"
       id="clipPath429-0">
      <path
         id="path430-4"
         style="fill:#ff0000;fill-opacity:1;fill-rule:nonzero;stroke:none;stroke-width:0.264583"
         d="m 36.684582,77.278487 v 0.0186 c 0.05571,0.03455 0.105085,0.06862 0.164333,0.111104 0.09989,0.07162 0.197162,0.147447 0.288354,0.22996 0.01556,0.01408 0.09963,0.08992 0.119372,0.108003 0.02831,0.02593 0.05869,0.05221 0.08475,0.08061 0.0046,0.005 0.0086,0.01072 0.01291,0.01601 0.01151,0.0141 0.0172,0.02693 0.0186,0.03772 0.0016,0.0016 0.003,0.0029 0.0047,0.0047 0.009,0.0096 0.01609,0.02109 0.02119,0.03307 0.0087,0.02027 -0.0046,0.02973 -0.01707,0.0217 -1.13e-4,2.64e-4 -2.03e-4,7.94e-4 -5.29e-4,0.0011 0.01572,0.06477 -0.0457,0.07768 -0.08165,0.01291 -2.64e-4,0.01267 -0.0013,0.0258 -0.0093,0.03359 -0.0011,0.0011 -0.0019,0.0016 -0.0031,0.0026 0.0127,0.03626 -0.0029,0.0628 -0.02482,0.06666 0.0041,0.0088 0.0085,0.0176 0.01344,0.02582 2.62e-4,6.8e-5 7.94e-4,-6.7e-5 0.0011,0 0.0035,0.0053 0.0092,0.0097 0.01035,0.01601 6.1e-5,5.29e-4 -5.29e-4,7.94e-4 -5.29e-4,0.0011 0.0013,0.0019 0.0024,0.0034 0.0036,0.0052 0.0074,0.0021 0.03005,0.0086 0.03307,0.01241 0.0126,0.01601 0.0053,0.0227 -0.0052,0.02687 0.02315,0.04483 -0.0052,0.07944 -0.04289,0.0615 -3.9e-5,7.94e-4 5.3e-5,0.0011 0,0.0021 -1e-4,0.0019 -0.0034,0.0016 -0.0052,0.0021 -0.0027,7.94e-4 -0.0055,0.0021 -0.0083,0.0026 0.006,0.0013 0.0093,0.0066 0.0062,0.0186 -7.93e-4,0.0028 -0.0045,0.005 -0.0093,0.0062 2.65e-4,0.0011 5.29e-4,0.0021 0.0011,0.0031 0.01606,0.0108 0.01976,0.02969 0.0067,0.05013 -2.22e-4,2.64e-4 -1.35e-4,0.0029 -5.29e-4,0.0031 v 5.29e-4 c 0.0021,0.0076 5.29e-4,0.01577 -0.0057,0.02326 0.01095,0.0071 0.01926,0.02164 0.02066,0.04238 0.0016,-7.94e-4 0.0029,-0.0016 0.0047,-0.0026 0.0031,-2.19e-4 0.0062,-0.0029 0.0093,-0.0031 0.0011,-3.8e-5 0.0016,-1.04e-4 0.0026,0 0.01831,0.0019 0.02924,0.01908 0.03514,0.03462 5.29e-4,0.0013 5.29e-4,0.0019 0.0011,0.0031 0.0024,0.0028 0.0044,0.0063 0.0062,0.0093 -5.29e-4,-0.02011 -0.0013,-0.04041 -0.0026,-0.06046 -2.65e-4,-0.0067 2.64e-4,-0.0085 -0.0011,-0.01447 -0.0016,-0.01437 0.0046,-0.02201 0.01188,-0.02273 0.0073,-7.94e-4 0.01535,0.0063 0.01707,0.02066 7.94e-4,0.0061 0.0011,0.0074 0.0016,0.01447 0.0031,0.05337 0.0032,0.106775 0.0041,0.160197 0.0021,0.174376 0.0043,0.348589 0.0067,0.522965 0.0024,0.104664 0.0011,0.05397 0.0036,0.152448 7.94e-4,0.02893 -0.02817,0.03074 -0.02894,0.0031 -0.0027,-0.09869 -0.0013,-0.048 -0.0036,-0.152961 -2.65e-4,-0.02842 -0.0011,-0.05686 -0.0016,-0.08527 l -5.29e-4,5.29e-4 c -0.0013,0.0011 -0.0021,0.0021 -0.0036,0.0031 1.96e-4,0.0057 7.94e-4,0.01116 5.3e-4,0.01707 -0.0011,0.03815 -0.03685,0.04132 -0.04082,0.0088 -0.0032,0.0035 -0.0071,0.0065 -0.01188,0.0083 -0.0046,0.0016 -0.0097,0.0013 -0.01447,0.0021 -0.0038,-0.0011 -0.0078,-0.0021 -0.01138,-0.0036 h -5.29e-4 c -0.0011,0.0052 -0.0021,0.01024 -0.0026,0.0155 -0.0016,0.01931 -0.0024,0.03859 -0.0021,0.05788 0.03286,0.0254 0.05391,0.07511 0.04702,0.145725 0.126767,0.09285 0.257916,0.180025 0.391708,0.264067 0.188243,0.132387 0.387398,0.256154 0.569992,0.398426 h 0.590661 v -2.57297 z m 0.572575,0.952396 5.29e-4,5.3e-4 5.29e-4,-5.3e-4 c -2.65e-4,-2.6e-5 -7.94e-4,3e-6 -0.0011,0 z m 0.03979,0.18242 c -1.56e-4,7.94e-4 -6.6e-5,0.0013 -5.29e-4,0.0021 2.65e-4,-5.1e-5 7.94e-4,4.7e-5 0.0011,0 -1.58e-4,-7.94e-4 -9.2e-5,-0.0013 -5.29e-4,-0.0021 z" />
    </clipPath>
  </defs>
  <g
     inkscape:label="Слой 1"
     inkscape:groupmode="layer"
     id="layer1">
    <path
       style="fill:#000000;fill-opacity:0.0456432;stroke:#000000;stroke-width:5.34081"
       d="M -1.4177818,60.836337 Z"
       id="path1" />
    <path
       style="fill:#000000;fill-opacity:0.0456432;stroke:#000000;stroke-width:1.1"
       d="M 58.09134,65.562381 Z"
       id="path1-5" />
    <path
       style="fill:none;fill-opacity:1;stroke:#003366;stroke-width:2.5;stroke-linecap:butt;stroke-linejoin:miter;stroke-dasharray:none;stroke-opacity:1"
       d="m 9.8568447,18.486843 c 7.8982043,3.042268 17.9653043,2.615425 25.1354143,-4.233333 7.35882,6.442201 16.31579,7.335733 24.87083,4.233333 -2.75536,19.036944 0.78002,38.131809 -24.87083,50.006249 C 9.9129417,56.210405 11.99795,36.851448 9.8568447,18.486843 Z"
       id="path5"
       sodipodi:nodetypes="ccccc" />
    <circle
       style="fill:none;fill-opacity:1;stroke:#003366;stroke-width:1.5;stroke-dasharray:none;stroke-opacity:1"
       id="path64"
       cx="34.837269"
       cy="42.419945"
       r="6" />
    <path
       style="color:#000000;fill:#003366;stroke-width:0.927754;-inkscape-stroke:none"
       d="m 34.968179,33.534207 c -2.75106,0 -5.24873,0.919245 -7.107,2.471385 -1.85829,1.552139 -3.13126,3.821967 -3.13126,6.473928 0,2.651959 1.27297,4.921789 3.13126,6.473927 1.85827,1.55214 4.35594,2.471384 7.107,2.471384 2.75104,0 5.24868,-0.919244 7.10697,-2.471384 1.85828,-1.552138 3.13127,-3.821968 3.13127,-6.473927 0,-2.651961 -1.27299,-4.921789 -3.13127,-6.473928 -1.85829,-1.55214 -4.35593,-2.471385 -7.10697,-2.471385 z m 0,1.82553 c 2.56042,0 4.87168,0.87674 6.49418,2.231933 1.6225,1.355194 5.36541,2.892938 5.36541,4.677422 0,1.784479 -3.74291,3.743081 -5.36541,5.098276 -1.6225,1.355195 -3.93376,2.234131 -6.49418,2.234131 -2.56045,0 -4.8717,-0.878936 -6.49421,-2.234131 -1.62247,-1.355195 -5.36541,-2.682511 -5.36541,-4.466991 0,-1.78448 3.74294,-3.953513 5.36541,-5.308707 1.62251,-1.355193 3.93376,-2.231933 6.49421,-2.231933 z"
       id="path67"
       sodipodi:nodetypes="ssssssssssssssssss" />
    <path
       style="fill:none;fill-opacity:1;stroke:#003366;stroke-width:0.25;stroke-dasharray:none;stroke-opacity:1"
       id="path69"
       sodipodi:type="arc"
       sodipodi:cx="34.848782"
       sodipodi:cy="42.365845"
       sodipodi:rx="4.5999999"
       sodipodi:ry="4.5999999"
       sodipodi:start="0.14388576"
       sodipodi:end="0.9990026"
       sodipodi:arc-type="arc"
       d="M 39.401246,43.025438 A 4.5999999,4.5999999 0 0 1 37.338032,46.23413"
       sodipodi:open="true" />
    <path
       style="fill:none;fill-opacity:1;stroke:#003366;stroke-width:1;stroke-dasharray:none;stroke-opacity:1"
       id="path71"
       sodipodi:type="arc"
       sodipodi:cx="34.841488"
       sodipodi:cy="42.378792"
       sodipodi:rx="3.5"
       sodipodi:ry="3.5"
       sodipodi:start="5.8309239"
       sodipodi:end="5.2847428"
       sodipodi:arc-type="slice"
       d="m 37.989602,40.849289 a 3.5,3.5 0 0 1 -1.204322,4.440117 3.5,3.5 0 0 1 -4.562723,-0.588718 3.5,3.5 0 0 1 -0.03785,-4.600391 3.5,3.5 0 0 1 4.55242,-0.663705 l -1.895643,2.9422 z" />
    <path
       style="fill:none;fill-opacity:1;stroke:#003366;stroke-width:1.5;stroke-dasharray:none;stroke-opacity:1"
       id="rect111"
       width="26.005333"
       height="24.508612"
       x="112.44028"
       y="59.494194"
       sodipodi:type="rect"
       ry="5.6126599"
       transform="matrix(0.97058173,0,0,0.92685082,-86.781395,-23.578218)"
       d="m 118.05294,59.494194 h 14.78001 c 3.10941,0 5.61266,2.503246 5.61266,5.61266 v 13.283292 c 0,3.109413 -2.50325,5.61266 -5.61266,5.61266 h -14.78001 c -3.10942,0 -5.61266,-2.503247 -5.61266,-5.61266 V 65.106854 c 0,-3.109414 2.50324,-5.61266 5.61266,-5.61266 z"
       inkscape:path-effect="#path-effect111" />
    <path
       style="fill:none;fill-opacity:1;stroke:#003366;stroke-width:3.83616;stroke-dasharray:none;stroke-opacity:1"
       id="path112"
       sodipodi:type="arc"
       sodipodi:cx="34.924465"
       sodipodi:cy="31.938023"
       sodipodi:rx="8.5773745"
       sodipodi:ry="7.4139814"
       sodipodi:start="3.1494613"
       sodipodi:end="6.2799436"
       sodipodi:arc-type="arc"
       d="m 26.347356,31.879685 a 8.5773745,7.4139814 0 0 1 8.596953,-7.355624 8.5773745,7.4139814 0 0 1 8.557486,7.389928"
       sodipodi:open="true" />
    <path
       style="fill:#003366;fill-opacity:1;stroke:none;stroke-width:0.264583px;stroke-linecap:butt;stroke-linejoin:miter;stroke-opacity:1"
       d="m 30.079539,56.855914 4.36107,-0.01203 0.0112,6.045472 1.19291,-0.03957 -0.0109,-5.977982 4.31031,0.03792 0.0979,5.894346 c -1.58041,0.975657 -3.16691,2.057917 -4.92243,2.770908 -1.96219,-0.671073 -3.46023,-1.826491 -5.04004,-2.864451 z"
       id="path270"
       sodipodi:nodetypes="cccccccccc" />
    <path
       style="fill:#003366;fill-opacity:1;stroke:none;stroke-width:0.264583px;stroke-linecap:butt;stroke-linejoin:miter;stroke-opacity:1"
       d="m 28.886849,61.856869 c -2.88349,-1.950431 -7.73143,-5.394351 -9.16734,-10.757602 2.31614,3.450038 5.37427,6.024192 9.43995,5.857871 z"
       id="path300"
       sodipodi:nodetypes="cccc" />
    <path
       style="fill:#003366;fill-opacity:1;stroke:none;stroke-width:0.264583px;stroke-linecap:butt;stroke-linejoin:miter;stroke-opacity:1"
       d="m 41.209969,62.076947 -0.11297,-5.16505 c 4.22142,-0.0033 6.61874,-1.470173 9.06725,-5.906352 -0.52343,5.327041 -5.1695,8.257988 -8.95428,11.071402 z"
       id="path301"
       sodipodi:nodetypes="cccc" />
    <path
       style="fill:#003366;fill-opacity:1;stroke:none;stroke-width:0.264583px;stroke-linecap:butt;stroke-linejoin:miter;stroke-opacity:1"
       d="M 19.415489,49.567481 C 17.717809,46.36359 16.00796,46.093664 14.64472,36.892223 l 5.378799,-0.09354 z"
       id="path302"
       sodipodi:nodetypes="cccc" />
    <path
       style="fill:#003366;fill-opacity:1;stroke:none;stroke-width:0.264583px;stroke-linecap:butt;stroke-linejoin:miter;stroke-opacity:1"
       d="m 50.518969,49.380392 c 2.09418,-2.269065 4.23358,-7.762397 4.49013,-13.259909 l -5.28525,-0.04677 c 0.14715,4.600145 0.5124,8.875201 0.79512,13.306682 z"
       id="path303"
       sodipodi:nodetypes="cccc" />
    <path
       style="fill:#003366;fill-opacity:1;stroke:none;stroke-width:0.264583px;stroke-linecap:butt;stroke-linejoin:miter;stroke-opacity:1"
       d="m 14.2181,35.222125 h 5.995829 c 0.49379,-1.672203 0.91678,-3.393653 2.63157,-4.542574 l -8.995899,-0.008 z"
       id="path304"
       sodipodi:nodetypes="ccccc" />
    <path
       style="fill:#003366;fill-opacity:1;stroke:none;stroke-width:0.264583px;stroke-linecap:butt;stroke-linejoin:miter;stroke-opacity:1"
       d="m 13.28833,22.560566 0.4734,6.737141 8.951879,0.09922 c 1.28371,-2.114413 2.88878,-5.86305 5.12087,-6.910529 -4.67192,0.358898 -9.37272,1.2694 -14.546149,0.07417 z"
       id="path305"
       sodipodi:nodetypes="ccccc" />
    <path
       style="fill:#003366;fill-opacity:1;stroke:none;stroke-width:0.264583px;stroke-linecap:butt;stroke-linejoin:miter;stroke-opacity:1"
       d="m 42.561059,22.692859 c 4.56309,-0.0066 10.01593,0.847972 14.07331,-0.343051 l -0.77432,7.004072 -9.13524,0.09354 c -0.0826,-0.704455 -0.28892,-1.421571 -0.58974,-2.125521 -0.26403,-0.617849 -0.60089,-1.225555 -0.99091,-1.805655 -0.72086,-1.07219 -1.6233,-2.050074 -2.5831,-2.823389 z"
       id="path307"
       sodipodi:nodetypes="ccccsscc" />
    <path
       style="fill:#003366;fill-opacity:1;stroke:none;stroke-width:0.264583px;stroke-linecap:butt;stroke-linejoin:miter;stroke-opacity:1"
       d="m 47.375349,30.722594 8.33533,-0.0043 -0.5641,4.038941 -5.51911,-0.140312 c -0.44668,-1.368269 -0.90726,-2.67776 -2.25212,-3.894333 z"
       id="path308"
       sodipodi:nodetypes="ccccc" />
    <path
       style="fill:#003366;fill-opacity:1;stroke:none;stroke-width:0.264583px;stroke-linecap:butt;stroke-linejoin:miter;stroke-opacity:1"
       d="m 29.469089,22.025646 c 2.2451,-1.639047 4.21992,-2.505924 5.60585,-4.051433 0.0473,0.06457 0.0939,0.130591 0.14871,0.190382 1.23829,1.351578 4.26144,2.757242 5.9464,3.988843 -4.82607,-1.655734 -7.11685,-1.642775 -11.70096,-0.127798 z"
       id="path309"
       sodipodi:nodetypes="ccsccc" />
    <ellipse
       style="fill:#003366;fill-opacity:1;stroke:none;stroke-width:1.5;stroke-dasharray:none;stroke-opacity:1"
       id="path310"
       cx="37.091412"
       cy="46.431866"
       rx="0.44433558"
       ry="0.44400001" />
    <path
       style="fill:none;stroke:#003366;stroke-width:0.264583px;stroke-linecap:butt;stroke-linejoin:miter;stroke-opacity:1"
       d="m 6.9126697,2.0531534 55.4990733,0.058465 a 4.8040506,4.8040506 44.990935 0 1 4.798985,4.797467 l 0.119301,87.0897019 a 4.6749407,4.6749407 135.01851 0 1 -4.684361,4.681335 L 6.5064371,98.566938 A 4.7962912,4.7962912 45.057902 0 1 1.7198157,93.770633 L 1.7202522,7.2400778 A 5.1869534,5.1869534 135.03032 0 1 6.9126697,2.0531534 Z"
       id="path2"
       sodipodi:nodetypes="ccccc"
       inkscape:original-d="M 1.7202784,2.0476836 67.204163,2.1166666 67.336455,98.689579 1.7197916,98.557288 Z"
       inkscape:path-effect="#path-effect6"
       clip-path="url(#clipPath426)" />
    <path
       style="fill:none;stroke:#003366;stroke-width:0.26458333;stroke-linecap:butt;stroke-linejoin:miter;stroke-opacity:1;fill-opacity:1;stroke-dasharray:none"
       d="m 30.117361,4.6327458 9.920616,-0.08965"
       id="path3"
       sodipodi:nodetypes="cc" />
    <path
       style="fill:#003366;fill-opacity:1;stroke:none;stroke-width:0.203398px;stroke-linecap:butt;stroke-linejoin:miter;stroke-opacity:1"
       d="M 2.3068643,90.948262 C 1.9582325,97.972679 6.2822614,98.337848 9.9084894,97.993519 7.9879463,97.474466 3.0313755,97.431998 2.3068643,90.948262 Z"
       id="path7"
       sodipodi:nodetypes="ccc" />
    <path
       style="fill:#003366;fill-opacity:1;stroke:none;stroke-width:0.203398px;stroke-linecap:butt;stroke-linejoin:miter;stroke-opacity:1"
       d="m 66.684567,90.934941 c 0.348632,7.024417 -3.975397,7.389586 -7.601625,7.045257 1.920543,-0.519053 6.877114,-0.561521 7.601625,-7.045257 z"
       id="path7-5"
       sodipodi:nodetypes="ccc" />
    <path
       style="fill:#003366;fill-opacity:1;stroke:none;stroke-width:0.203398px;stroke-linecap:butt;stroke-linejoin:miter;stroke-opacity:1"
       d="M 2.3679737,9.7449972 C 2.0193427,2.7205798 6.3433707,2.3554108 9.9695991,2.6997398 8.0490561,3.2187928 3.0924857,3.2612608 2.3679737,9.7449972 Z"
       id="path7-1"
       sodipodi:nodetypes="ccc" />
    <path
       style="fill:#003366;fill-opacity:1;stroke:none;stroke-width:0.203398px;stroke-linecap:butt;stroke-linejoin:miter;stroke-opacity:1"
       d="m 66.471416,9.9103617 c 0.348632,-7.0244169 -3.975397,-7.3895859 -7.601625,-7.0452569 1.920543,0.519053 6.877114,0.561521 7.601625,7.0452569 z"
       id="path7-7"
       sodipodi:nodetypes="ccc" />
  </g>
</svg>
