<?xml version="1.0" encoding="UTF-8" standalone="no"?>
<!-- Created with Inkscape (http://www.inkscape.org/) -->

<svg
   width="170"
   height="64"
   viewBox="0 0 44.979164 16.933345"
   version="1.1"
   id="svg1"
   inkscape:version="1.3.2 (091e20e, 2023-11-25, custom)"
   sodipodi:docname="msr-logo-title.svg"
   xmlns:inkscape="http://www.inkscape.org/namespaces/inkscape"
   xmlns:sodipodi="http://sodipodi.sourceforge.net/DTD/sodipodi-0.dtd"
   xmlns="http://www.w3.org/2000/svg"
   xmlns:svg="http://www.w3.org/2000/svg">
  <sodipodi:namedview
     id="namedview1"
     pagecolor="#ffffff"
     bordercolor="#000000"
     borderopacity="0.25"
     inkscape:showpageshadow="2"
     inkscape:pageopacity="0.0"
     inkscape:pagecheckerboard="0"
     inkscape:deskcolor="#d1d1d1"
     inkscape:document-units="mm"
     inkscape:zoom="1"
     inkscape:cx="161"
     inkscape:cy="42"
     inkscape:window-width="1720"
     inkscape:window-height="650"
     inkscape:window-x="-7"
     inkscape:window-y="-7"
     inkscape:window-maximized="1"
     inkscape:current-layer="layer1" />
  <defs
     id="defs1">
    <clipPath
       clipPathUnits="userSpaceOnUse"
       id="clipPath429">
      <path
         id="path430"
         style="fill:#ff0000;fill-opacity:1;fill-rule:nonzero;stroke:none;stroke-width:0.264583"
         d="m 36.684582,77.278487 v 0.0186 c 0.05571,0.03455 0.105085,0.06862 0.164333,0.111104 0.09989,0.07162 0.197162,0.147447 0.288354,0.22996 0.01556,0.01408 0.09963,0.08992 0.119372,0.108003 0.02831,0.02593 0.05869,0.05221 0.08475,0.08061 0.0046,0.005 0.0086,0.01072 0.01291,0.01601 0.01151,0.0141 0.0172,0.02693 0.0186,0.03772 0.0016,0.0016 0.003,0.0029 0.0047,0.0047 0.009,0.0096 0.01609,0.02109 0.02119,0.03307 0.0087,0.02027 -0.0046,0.02973 -0.01707,0.0217 -1.13e-4,2.64e-4 -2.03e-4,7.94e-4 -5.29e-4,0.0011 0.01572,0.06477 -0.0457,0.07768 -0.08165,0.01291 -2.64e-4,0.01267 -0.0013,0.0258 -0.0093,0.03359 -0.0011,0.0011 -0.0019,0.0016 -0.0031,0.0026 0.0127,0.03626 -0.0029,0.0628 -0.02482,0.06666 0.0041,0.0088 0.0085,0.0176 0.01344,0.02582 2.62e-4,6.8e-5 7.94e-4,-6.7e-5 0.0011,0 0.0035,0.0053 0.0092,0.0097 0.01035,0.01601 6.1e-5,5.29e-4 -5.29e-4,7.94e-4 -5.29e-4,0.0011 0.0013,0.0019 0.0024,0.0034 0.0036,0.0052 0.0074,0.0021 0.03005,0.0086 0.03307,0.01241 0.0126,0.01601 0.0053,0.0227 -0.0052,0.02687 0.02315,0.04483 -0.0052,0.07944 -0.04289,0.0615 -3.9e-5,7.94e-4 5.3e-5,0.0011 0,0.0021 -1e-4,0.0019 -0.0034,0.0016 -0.0052,0.0021 -0.0027,7.94e-4 -0.0055,0.0021 -0.0083,0.0026 0.006,0.0013 0.0093,0.0066 0.0062,0.0186 -7.93e-4,0.0028 -0.0045,0.005 -0.0093,0.0062 2.65e-4,0.0011 5.29e-4,0.0021 0.0011,0.0031 0.01606,0.0108 0.01976,0.02969 0.0067,0.05013 -2.22e-4,2.64e-4 -1.35e-4,0.0029 -5.29e-4,0.0031 v 5.29e-4 c 0.0021,0.0076 5.29e-4,0.01577 -0.0057,0.02326 0.01095,0.0071 0.01926,0.02164 0.02066,0.04238 0.0016,-7.94e-4 0.0029,-0.0016 0.0047,-0.0026 0.0031,-2.19e-4 0.0062,-0.0029 0.0093,-0.0031 0.0011,-3.8e-5 0.0016,-1.04e-4 0.0026,0 0.01831,0.0019 0.02924,0.01908 0.03514,0.03462 5.29e-4,0.0013 5.29e-4,0.0019 0.0011,0.0031 0.0024,0.0028 0.0044,0.0063 0.0062,0.0093 -5.29e-4,-0.02011 -0.0013,-0.04041 -0.0026,-0.06046 -2.65e-4,-0.0067 2.64e-4,-0.0085 -0.0011,-0.01447 -0.0016,-0.01437 0.0046,-0.02201 0.01188,-0.02273 0.0073,-7.94e-4 0.01535,0.0063 0.01707,0.02066 7.94e-4,0.0061 0.0011,0.0074 0.0016,0.01447 0.0031,0.05337 0.0032,0.106775 0.0041,0.160197 0.0021,0.174376 0.0043,0.348589 0.0067,0.522965 0.0024,0.104664 0.0011,0.05397 0.0036,0.152448 7.94e-4,0.02893 -0.02817,0.03074 -0.02894,0.0031 -0.0027,-0.09869 -0.0013,-0.048 -0.0036,-0.152961 -2.65e-4,-0.02842 -0.0011,-0.05686 -0.0016,-0.08527 l -5.29e-4,5.29e-4 c -0.0013,0.0011 -0.0021,0.0021 -0.0036,0.0031 1.96e-4,0.0057 7.94e-4,0.01116 5.3e-4,0.01707 -0.0011,0.03815 -0.03685,0.04132 -0.04082,0.0088 -0.0032,0.0035 -0.0071,0.0065 -0.01188,0.0083 -0.0046,0.0016 -0.0097,0.0013 -0.01447,0.0021 -0.0038,-0.0011 -0.0078,-0.0021 -0.01138,-0.0036 h -5.29e-4 c -0.0011,0.0052 -0.0021,0.01024 -0.0026,0.0155 -0.0016,0.01931 -0.0024,0.03859 -0.0021,0.05788 0.03286,0.0254 0.05391,0.07511 0.04702,0.145725 0.126767,0.09285 0.257916,0.180025 0.391708,0.264067 0.188243,0.132387 0.387398,0.256154 0.569992,0.398426 h 0.590661 v -2.57297 z m 0.572575,0.952396 5.29e-4,5.3e-4 5.29e-4,-5.3e-4 c -2.65e-4,-2.6e-5 -7.94e-4,3e-6 -0.0011,0 z m 0.03979,0.18242 c -1.56e-4,7.94e-4 -6.6e-5,0.0013 -5.29e-4,0.0021 2.65e-4,-5.1e-5 7.94e-4,4.7e-5 0.0011,0 -1.58e-4,-7.94e-4 -9.2e-5,-0.0013 -5.29e-4,-0.0021 z" />
    </clipPath>
    <inkscape:path-effect
       effect="fillet_chamfer"
       id="path-effect111"
       is_visible="true"
       lpeversion="1"
       nodesatellites_param="F,0,0,1,0,0,0,1 @ F,0,0,1,0,0,0,1 @ F,0,0,1,0,0,0,1 @ F,0,0,1,0,0,0,1 @ F,0,0,1,0,0,0,1 @ F,0,0,1,0,0,0,1 @ F,0,0,1,0,0,0,1 @ F,0,0,1,0,0,0,1"
       radius="0"
       unit="px"
       method="auto"
       mode="F"
       chamfer_steps="1"
       flexible="false"
       use_knot_distance="true"
       apply_no_radius="true"
       apply_with_radius="true"
       only_selected="false"
       hide_knots="false" />
  </defs>
  <g
     inkscape:label="Слой 1"
     inkscape:groupmode="layer"
     id="layer1">
    <path
       d="m 38.727012,79.71936 c -0.13179,6.03e-4 -0.265343,1.62e-4 -0.398425,0 l -0.772046,-0.917773 h -0.432532 v 0.917773 h -0.306958 v -2.308386 h 0.646472 c 0.139527,0 0.255799,0.0093 0.348816,0.02791 0.09302,0.01757 0.163029,0.05569 0.237443,0.102201 0.08372,0.05271 0.118167,0.117219 0.164676,0.197837 0.04754,0.07958 0.06771,0.146531 0.06771,0.269521 0,0.166398 -0.04511,0.283381 -0.11187,0.400335 -0.08372,0.113772 -0.164695,0.244504 -0.311456,0.301348 z m -0.717786,-1.658813 c 0,-0.06615 -0.01189,-0.124541 -0.03566,-0.175183 -0.02274,-0.05167 -0.06098,-0.09508 -0.114721,-0.130225 -0.04444,-0.02997 -0.09715,-0.05064 -0.15813,-0.06201 -0.06098,-0.0124 -0.13281,-0.0186 -0.215491,-0.0186 h -0.361218 v 0.871265 h 0.310059 c 0.09715,0 0.181901,-0.0083 0.254248,-0.02481 0.07235,-0.01757 0.133841,-0.04961 0.184484,-0.09612 0.04651,-0.04341 0.08061,-0.09302 0.10232,-0.148828 0.02274,-0.05685 0.03411,-0.128677 0.03411,-0.215491 z"
       id="text8"
       clip-path="url(#clipPath429)"
       style="font-size:3.175px;fill:#808080;stroke:#808080;stroke-width:0.105833"
       transform="matrix(5.967195,0,0,6.7234487,-187.14365,-519.67895)"
       aria-label="R"
       sodipodi:nodetypes="cccccccscccscccccccsccsccccc" />
    <path
       d="M 14.028677,15.393313 H 12.124193 V 3.052645 L 8.1420915,11.449686 H 7.0070962 L 3.0538501,3.052645 V 15.393313 H 1.2744085 V 1.0712126 H 3.8714314 L 7.6900171,9.045035 11.383561,1.0712126 h 2.645116 z m 14.25477,-4.087906 c 0,0.557879 -0.131454,1.109345 -0.394363,1.6544 -0.256496,0.545054 -0.618797,1.006747 -1.086902,1.385079 -0.512992,0.410393 -1.112552,0.731013 -1.798679,0.96186 -0.679715,0.230847 -1.500502,0.34627 -2.462362,0.34627 -1.032397,0 -1.962196,-0.09619 -2.789395,-0.288558 -0.820788,-0.192373 -1.657607,-0.477725 -2.510456,-0.856056 v -2.385414 h 0.13466 c 0.724602,0.602766 1.561421,1.067665 2.510456,1.394698 0.949035,0.327032 1.840359,0.490548 2.673972,0.490548 1.179882,0 2.096855,-0.221228 2.75092,-0.663683 0.660478,-0.442456 0.990717,-1.032397 0.990717,-1.769823 0,-0.634828 -0.157104,-1.102933 -0.471312,-1.404316 C 25.522908,9.8690289 25.051596,9.6349761 24.416768,9.4682536 23.935838,9.3400055 23.413227,9.2342009 22.848936,9.1508397 22.291057,9.0674784 21.697909,8.9616738 21.069494,8.8334257 19.799839,8.5641048 18.857216,8.1056181 18.241625,7.4579654 17.632446,6.8039003 17.327857,5.954257 17.327857,4.9090355 c 0,-1.1991193 0.50658,-2.1802169 1.51974,-2.9432928 1.013159,-0.7694883 2.298846,-1.15423239 3.85706,-1.15423239 1.006747,0 1.930133,0.096186 2.770158,0.28855809 0.840025,0.1923721 1.583863,0.429631 2.231516,0.7117767 V 4.0625983 H 27.57167 C 27.026616,3.6009054 26.308427,3.2193674 25.417103,2.9179845 24.532192,2.6101892 23.624837,2.4562915 22.695038,2.4562915 c -1.019572,0 -1.840359,0.2116093 -2.462362,0.6348279 -0.615591,0.4232185 -0.923386,0.9682727 -0.923386,1.6351626 0,0.5963534 0.153898,1.0644588 0.461693,1.4043161 0.307795,0.3398573 0.849643,0.5995596 1.625544,0.7791069 0.410393,0.089774 0.993922,0.1987845 1.750586,0.3270325 0.756663,0.1282481 1.397903,0.2597023 1.92372,0.3943628 1.064459,0.2821457 1.86601,0.7085704 2.404651,1.2792743 0.538642,0.5707038 0.807963,1.3690484 0.807963,2.3950324 z m 14.908836,4.087906 H 40.720302 L 35.930237,9.6991001 h -2.68359 V 15.393313 H 31.342163 V 1.0712126 h 4.010958 c 0.865674,0 1.587069,0.057712 2.164186,0.1731349 0.577116,0.1090108 1.096521,0.3077953 1.558214,0.5963534 0.519404,0.3270325 0.923385,0.7406325 1.211944,1.2407999 0.29497,0.4937549 0.442455,1.1221704 0.442455,1.8852463 0,1.0323968 -0.259702,1.8980711 -0.779107,2.597023 -0.519404,0.6925394 -1.234387,1.2151502 -2.144948,1.5678323 z M 38.738869,5.1014075 c 0,-0.4103937 -0.07374,-0.7726945 -0.221227,-1.0869022 C 38.376569,3.6938852 38.13931,3.4245643 37.805865,3.2065426 37.530132,3.0205829 37.203099,2.8923349 36.824767,2.8217985 36.446436,2.7448496 36.000774,2.7063752 35.487781,2.7063752 h -2.241134 v 5.4056553 h 1.92372 c 0.602766,0 1.128583,-0.051299 1.577451,-0.1538977 0.448869,-0.1090109 0.830407,-0.3077953 1.144614,-0.5963534 0.288558,-0.2693209 0.500167,-0.5771163 0.634828,-0.923386 0.141073,-0.3526821 0.211609,-0.7983441 0.211609,-1.3369859 z"
       id="text430"
       style="font-size:19.6989px;fill:#003366;stroke:#003366;stroke-width:1.31327"
       transform="scale(0.96289188,1.0385382)"
       aria-label="MSR&#10;"
       sodipodi:nodetypes="ccccccccccccccscccsccccsscscccccscssccccscsscscsscccccccscccscccscccsccscccs" />
  </g>
</svg>
