<?xml version="1.0" encoding="UTF-8" standalone="no"?>
<!-- Created with Inkscape (http://www.inkscape.org/) -->

<svg
   width="55mm"
   height="60mm"
   viewBox="0 0 55 60"
   version="1.1"
   id="svg1"
   inkscape:version="1.3.2 (091e20e, 2023-11-25, custom)"
   sodipodi:docname="msr-icon-adventurer.svg"
   xmlns:inkscape="http://www.inkscape.org/namespaces/inkscape"
   xmlns:sodipodi="http://sodipodi.sourceforge.net/DTD/sodipodi-0.dtd"
   xmlns="http://www.w3.org/2000/svg"
   xmlns:svg="http://www.w3.org/2000/svg">
  <sodipodi:namedview
     id="namedview1"
     pagecolor="#ffffff"
     bordercolor="#000000"
     borderopacity="0.25"
     inkscape:showpageshadow="2"
     inkscape:pageopacity="0.0"
     inkscape:pagecheckerboard="0"
     inkscape:deskcolor="#d1d1d1"
     inkscape:document-units="mm"
     inkscape:zoom="1.1893044"
     inkscape:cx="-30.269795"
     inkscape:cy="73.992831"
     inkscape:window-width="1720"
     inkscape:window-height="650"
     inkscape:window-x="-7"
     inkscape:window-y="-7"
     inkscape:window-maximized="1"
     inkscape:current-layer="layer1" />
  <defs
     id="defs1">
    <clipPath
       clipPathUnits="userSpaceOnUse"
       id="clipPath94-7-5">
      <path
         id="path95-8-1"
         style="fill:#ff0000;fill-opacity:1;fill-rule:nonzero;stroke:none;stroke-width:0.264583"
         d="m 41.539524,87.048079 v 57.317431 h 26.53275 c -0.05654,-2.15073 -0.06778,-4.30173 -0.01188,-6.45283 0.02738,-1.09592 0.05098,-2.19345 0.158647,-3.28508 0.02498,-0.25316 0.07566,-0.47388 0.145211,-0.66455 -0.104029,-1.09471 -0.169756,-2.19297 -0.216008,-3.29179 -0.115242,-2.16005 0.08703,-4.49091 1.699122,-6.12779 0.448083,-0.45498 1.01732,-0.77204 1.526006,-1.15807 0.646829,-0.21079 1.267581,-0.53218 1.940449,-0.63252 0.113977,-0.017 0.231235,-0.0175 0.346231,-0.0295 -0.245092,-1.49857 -0.158996,-3.01963 0.525552,-4.55269 0.268933,-0.41899 0.481624,-0.87963 0.806667,-1.25677 0.136152,-0.15797 0.283996,-0.29447 0.430983,-0.43202 -0.04658,-0.0805 -0.09468,-0.1599 -0.135909,-0.24443 -0.298461,-0.61199 -0.363508,-1.31215 -0.545187,-1.96835 0.194442,-0.73766 0.23877,-1.53275 0.583427,-2.2133 0.310706,-0.61351 0.782045,-1.09098 1.328084,-1.49397 -0.515244,-1.07691 -1.496068,-2.04525 -1.518253,-3.23701 -0.04709,-2.52988 2.878267,-3.2687 4.873088,-3.5848 -1.171901,-2.7629 0.734531,-5.223586 3.191018,-6.221322 1.5001,-0.440219 3.018263,-0.839658 4.594553,-0.849561 0.204605,-0.01312 0.408337,-0.036 0.612881,-0.05064 1.349438,-1.186651 3.0544,-1.82362 4.690155,-2.506308 0.738624,-0.29617 0.887941,-0.354629 1.105357,-0.440799 0.114163,-0.162914 0.234061,-0.322035 0.360702,-0.476459 V 87.04804 Z m 27.539405,30.052951 c 0.164224,7.9e-4 0.328337,0.008 0.492477,0.0186 0.344882,0.0326 0.681551,0.12229 1.004072,0.2465 0.198393,0.0816 0.357288,0.21091 0.476975,0.38705 0.07005,0.13077 0.08172,0.23686 0.03928,0.34675 0.276876,-0.0818 0.408498,0.21495 0.09973,0.39946 -0.01834,0.011 -0.03707,0.0202 -0.05374,0.0336 -0.06112,0.0464 -0.115295,0.10241 -0.189135,0.12971 -0.04557,0.0215 -0.09117,0.0426 -0.136943,0.0636 -0.0019,0.0298 -0.0052,0.0597 -0.01035,0.0894 -0.03716,0.18651 -0.08584,0.37237 -0.189653,0.53433 -0.06144,0.0785 -0.117415,0.1765 -0.248047,0.1633 -0.210794,-0.0212 -0.231026,-0.19486 -0.225825,-0.34778 0.0065,-0.0775 0.0145,-0.15505 0.02582,-0.23203 -0.0647,0.006 -0.129464,0.006 -0.195337,0.005 -0.07818,-7e-5 -0.156435,-1.8e-4 -0.234611,-5.3e-4 -0.114255,0.0322 -0.231974,0.0487 -0.349848,0.061 -0.129929,0.0177 -0.257977,0.0442 -0.388091,0.061 -0.154538,0.0188 -0.310137,0.0271 -0.465606,0.0331 -0.154961,0.009 -0.309946,0.004 -0.464569,-0.007 -0.128172,-0.0114 -0.251743,-0.0485 -0.373623,-0.0879 -0.0711,-0.0242 -0.145235,-0.0365 -0.219623,-0.0455 -0.07574,-0.008 -0.151823,-0.009 -0.227893,-0.0114 -0.115906,0.003 -0.230167,-0.0109 -0.344681,-0.0269 -0.156149,-0.0168 -0.298021,-0.0472 -0.433567,-0.12867 -0.05047,-0.0379 -0.08997,-0.0818 -0.120923,-0.13074 -0.0345,0.11258 -0.0645,0.22818 -0.06821,0.3452 -0.01312,0.40401 -0.413258,0.40403 -0.40876,-5.3e-4 0.0021,-0.19403 0.06075,-0.3833 0.118337,-0.56689 0.07088,-0.20207 0.148011,-0.40261 0.258385,-0.58653 0.18288,-0.24272 0.47191,-0.34573 0.748792,-0.44183 0.410577,-0.13494 0.837321,-0.20432 1.265036,-0.25632 0.272508,-0.0341 0.546402,-0.048 0.820105,-0.0465 z m 0.0011,0.40927 c -0.257654,-0.002 -0.514979,0.0114 -0.77153,0.0434 -0.399169,0.0483 -0.797872,0.11169 -1.181322,0.23668 -0.09703,0.0332 -0.198972,0.0666 -0.294556,0.11059 0.0019,2.4e-4 0.0034,2.6e-4 0.0052,5.3e-4 0.07149,0.0103 0.142301,0.024 0.211873,0.0424 0.290967,0.0187 0.575347,0.0851 0.858345,0.15193 0.225915,0.0488 0.449771,0.10629 0.675929,0.15399 0.174945,0.0317 0.350964,0.0584 0.527616,0.0786 0.08417,0.008 0.168516,0.0167 0.252698,0.0248 0.0039,-10e-4 0.008,-0.002 0.01188,-0.003 0.192915,-0.0523 0.387927,-0.10108 0.58601,-0.12918 0.149613,-0.0205 0.305043,-0.0397 0.451135,-0.0124 0.02772,-0.0338 0.05795,-0.065 0.09457,-0.091 0.0621,-0.0449 0.131643,-0.0804 0.186552,-0.13436 0.01635,-0.009 0.008,0.002 0.01394,0.0181 0.0028,0.007 0.02704,-0.0262 0.0031,-0.0222 -0.06771,-0.10852 -0.166269,-0.1802 -0.283702,-0.231 -0.283533,-0.11077 -0.580863,-0.18924 -0.884184,-0.22014 -0.154514,-0.0106 -0.308946,-0.0167 -0.463537,-0.0176 z m 1.462961,1.71049 c 0.0035,0.0208 0.0077,0.0456 0.0067,0.0377 -0.0016,-0.0127 0.0024,-0.0287 -0.0067,-0.0377 z m 24.020237,4.03955 c -1.018682,1.75772 -2.088369,3.48805 -3.255097,5.14904 -0.02781,0.33928 -0.130881,0.68136 -0.271817,0.99942 -0.484968,0.83102 -1.077309,1.59211 -1.765268,2.26653 -0.688298,0.70517 -1.405096,1.38021 -2.171962,2.00039 -0.03664,0.0301 -0.0715,0.0622 -0.108003,0.0925 -1.312775,1.55631 -2.594988,3.13948 -3.730522,4.83019 -1.209058,1.67477 -1.142349,1.64917 -2.852539,0.30438 -0.09297,0.0534 -0.186775,0.10533 -0.28112,0.15658 0.05226,0.28822 0.09874,0.57887 0.129191,0.87591 0.06872,1.60826 -0.352975,3.07827 -1.078487,4.43229 h 15.385624 z" />
    </clipPath>
    <inkscape:path-effect
       effect="bspline"
       id="path-effect78-8-8"
       is_visible="true"
       lpeversion="1.3"
       weight="33.333333"
       steps="2"
       helper_size="0"
       apply_no_weight="true"
       apply_with_weight="true"
       only_selected="false"
       uniform="false" />
    <inkscape:path-effect
       effect="bspline"
       id="path-effect78-1-9-2"
       is_visible="true"
       lpeversion="1.3"
       weight="33.333333"
       steps="2"
       helper_size="0"
       apply_no_weight="true"
       apply_with_weight="true"
       only_selected="false"
       uniform="false" />
    <inkscape:path-effect
       effect="bspline"
       id="path-effect135-26-04"
       is_visible="true"
       lpeversion="1.3"
       weight="33.333333"
       steps="2"
       helper_size="0"
       apply_no_weight="true"
       apply_with_weight="true"
       only_selected="false"
       uniform="false" />
    <inkscape:path-effect
       effect="bspline"
       id="path-effect207-7-0"
       is_visible="true"
       lpeversion="1.3"
       weight="33.333333"
       steps="2"
       helper_size="0"
       apply_no_weight="true"
       apply_with_weight="true"
       only_selected="false"
       uniform="false" />
    <inkscape:path-effect
       effect="bspline"
       id="path-effect21"
       is_visible="true"
       lpeversion="1.3"
       weight="33.333333"
       steps="2"
       helper_size="0"
       apply_no_weight="true"
       apply_with_weight="true"
       only_selected="false"
       uniform="false" />
    <inkscape:path-effect
       effect="bspline"
       id="path-effect24"
       is_visible="true"
       lpeversion="1.3"
       weight="33.333333"
       steps="2"
       helper_size="0"
       apply_no_weight="true"
       apply_with_weight="true"
       only_selected="false"
       uniform="false" />
    <inkscape:path-effect
       effect="bspline"
       id="path-effect25"
       is_visible="true"
       lpeversion="1.3"
       weight="33.333333"
       steps="2"
       helper_size="0"
       apply_no_weight="true"
       apply_with_weight="true"
       only_selected="false"
       uniform="false" />
    <inkscape:path-effect
       effect="bspline"
       id="path-effect26"
       is_visible="true"
       lpeversion="1.3"
       weight="33.333333"
       steps="2"
       helper_size="0"
       apply_no_weight="true"
       apply_with_weight="true"
       only_selected="false"
       uniform="false" />
    <inkscape:path-effect
       effect="bspline"
       id="path-effect27"
       is_visible="true"
       lpeversion="1.3"
       weight="33.333333"
       steps="2"
       helper_size="0"
       apply_no_weight="true"
       apply_with_weight="true"
       only_selected="false"
       uniform="false" />
    <inkscape:path-effect
       effect="bspline"
       id="path-effect28"
       is_visible="true"
       lpeversion="1.3"
       weight="33.333333"
       steps="2"
       helper_size="0"
       apply_no_weight="true"
       apply_with_weight="true"
       only_selected="false"
       uniform="false" />
    <inkscape:path-effect
       effect="bspline"
       id="path-effect29"
       is_visible="true"
       lpeversion="1.3"
       weight="33.333333"
       steps="2"
       helper_size="0"
       apply_no_weight="true"
       apply_with_weight="true"
       only_selected="false"
       uniform="false" />
    <inkscape:path-effect
       effect="bspline"
       id="path-effect15-1-6"
       is_visible="true"
       lpeversion="1.3"
       weight="33.333333"
       steps="2"
       helper_size="0"
       apply_no_weight="true"
       apply_with_weight="true"
       only_selected="false"
       uniform="false" />
    <inkscape:path-effect
       effect="bspline"
       id="path-effect15-1-6-2"
       is_visible="true"
       lpeversion="1.3"
       weight="33.333333"
       steps="2"
       helper_size="0"
       apply_no_weight="true"
       apply_with_weight="true"
       only_selected="false"
       uniform="false" />
    <inkscape:path-effect
       effect="bspline"
       id="path-effect39"
       is_visible="true"
       lpeversion="1.3"
       weight="33.333333"
       steps="2"
       helper_size="0"
       apply_no_weight="true"
       apply_with_weight="true"
       only_selected="false"
       uniform="false" />
    <inkscape:path-effect
       effect="bspline"
       id="path-effect39-4"
       is_visible="true"
       lpeversion="1.3"
       weight="33.333333"
       steps="2"
       helper_size="0"
       apply_no_weight="true"
       apply_with_weight="true"
       only_selected="false"
       uniform="false" />
  </defs>
  <g
     inkscape:label="Слой 1"
     inkscape:groupmode="layer"
     id="layer1">
    <path
       style="fill:none;fill-opacity:1;stroke:#003366;stroke-width:2.5;stroke-linecap:butt;stroke-linejoin:miter;stroke-dasharray:none;stroke-opacity:1"
       d="m 43.02074,92.974749 c 7.898204,3.042268 17.965304,2.615425 25.135414,-4.233333 7.35882,6.442201 16.31579,7.335733 24.87083,4.233333 -2.75536,19.036941 0.78002,38.131811 -24.87083,50.006251 C 43.076837,130.69831 45.161845,111.33935 43.02074,92.974749 Z"
       id="path5-63-8"
       sodipodi:nodetypes="ccccc"
       clip-path="url(#clipPath94-7-5)"
       transform="translate(-40.56716,-86.201958)" />
    <path
       style="fill:none;stroke:#003366;stroke-width:1.5;stroke-linecap:butt;stroke-linejoin:miter;stroke-dasharray:none;stroke-opacity:1"
       d="m 50.903772,128.95622 c 0.0954,-3.27093 0.190803,-6.54185 1.928517,-8.08872 1.737713,-1.54687 5.117601,-1.3697 7.134678,-1.68999 2.017077,-0.32029 2.671247,-1.138 3.325432,-1.95573"
       id="path78-25-1"
       inkscape:path-effect="#path-effect78-8-8"
       inkscape:original-d="m 50.903772,128.95622 c 0.0954,-3.27093 0.190804,-6.54185 0.286205,-9.81277 3.380025,0.17717 6.759913,0.35435 10.139867,0.53152 0.654199,-0.81775 1.30837,-1.63546 1.962555,-2.45319"
       sodipodi:nodetypes="cccc"
       transform="translate(-40.3177,-87.36044)" />
    <path
       style="fill:none;stroke:#003366;stroke-width:1.5;stroke-linecap:butt;stroke-linejoin:miter;stroke-dasharray:none;stroke-opacity:1"
       d="m 50.903772,128.95622 c 0.0954,-3.27093 0.190803,-6.54185 1.928517,-8.08872 1.737713,-1.54687 5.117601,-1.3697 7.134678,-1.68999 2.017077,-0.32029 2.671247,-1.138 3.325432,-1.95573"
       id="path78-3-8-70"
       inkscape:path-effect="#path-effect78-1-9-2"
       inkscape:original-d="m 50.903772,128.95622 c 0.0954,-3.27093 0.190804,-6.54185 0.286205,-9.81277 3.380025,0.17717 6.759913,0.35435 10.139867,0.53152 0.654199,-0.81775 1.30837,-1.63546 1.962555,-2.45319"
       sodipodi:nodetypes="cccc"
       transform="matrix(-1,0,0,1,95.200144,-87.07974)" />
    <path
       style="fill:none;stroke:none;stroke-width:0.264583px;stroke-linecap:butt;stroke-linejoin:miter;stroke-opacity:1"
       d="m 65.149331,119.54891 c 0.487233,0.017 1.461693,0.0511 1.962554,-0.42932 0.500861,-0.48043 0.528118,-1.47532 0.528117,-1.47531 0,1e-5 -0.02726,0.9949 -0.03407,1.96256 -0.0068,0.96765 0.0068,1.90803 0.0068,1.90461 0,-0.003 -0.01363,-0.9506 0.46339,-1.4208 0.477019,-0.47021 1.444647,-0.46341 0.957397,-0.47705 -0.487251,-0.0136 -2.429322,-0.0477 -3.40038,-0.0647 -0.971057,-0.017 -0.971057,-0.017 -0.483825,4e-5 z"
       id="path135-8-2"
       inkscape:path-effect="#path-effect135-26-04"
       inkscape:original-d="m 64.662099,119.53187 c 0.974464,0.0341 1.948927,0.0681 2.92339,0.10222 0.02726,-0.99493 0.05452,-1.98982 0.08177,-2.98472 -0.02726,0.99492 -0.05452,1.98981 -0.08177,2.98472 0.01363,0.9404 0.02726,1.88078 0.04089,2.82117 -0.01363,-0.94723 -0.02726,-1.89441 -0.04089,-2.84162 0.967668,0.007 1.935297,0.0136 2.902947,0.0204 -1.94215,-0.0341 -3.884223,-0.0681 -5.826337,-0.10221 z"
       transform="translate(-40.3177,-87.36044)" />
    <path
       style="fill:none;fill-opacity:1;stroke:#003366;stroke-width:0.765;stroke-linecap:butt;stroke-linejoin:miter;stroke-dasharray:none;stroke-opacity:1"
       d="m 20.215344,19.620181 c -1.756476,3.82591 1.395388,12.05333 7.838283,13.46067 4.62258,-1.4011 9.63721,-9.1933 7.04453,-13.85755 -1.3936,-5.09831 -10.273419,-9.6431905 -14.882813,0.39688 z"
       id="path3-9-5"
       sodipodi:nodetypes="sccs" />
    <path
       style="fill:none;fill-opacity:1;stroke:#003366;stroke-width:1;stroke-linecap:butt;stroke-linejoin:miter;stroke-dasharray:none;stroke-opacity:1"
       d="m 4.7096336,28.471441 4.198953,-13.91264 6.7390864,2.49795 11.467204,-11.7843005 6.36102,5.9868405 3.36759,-1.8708905 5.61266,3.3676005 7.10937,7.48355"
       id="path19"
       sodipodi:nodetypes="cccccccc" />
    <path
       style="fill:none;stroke:#003366;stroke-width:1.5;stroke-linecap:butt;stroke-linejoin:miter;stroke-dasharray:none;stroke-opacity:1"
       d="m 84.617056,129.19935 c -0.402387,4.99952 -0.804766,9.99894 -2.85661,11.03037 -2.051845,1.03143 -5.752997,-1.90522 -9.45422,-4.84193"
       id="path207-1-6"
       sodipodi:nodetypes="ccc"
       transform="translate(-40.322776,-87.380102)"
       inkscape:original-d="m 84.617056,129.19935 c -0.402387,4.99952 -0.804766,9.99894 -1.207161,14.99856 -3.701296,-2.93676 -11.103669,-8.81012 -11.103669,-8.81012"
       inkscape:path-effect="#path-effect207-7-0" />
    <path
       style="fill:none;fill-opacity:1;stroke:#003366;stroke-width:0.765;stroke-linecap:butt;stroke-linejoin:miter;stroke-dasharray:none;stroke-opacity:1"
       d="m 18.446525,34.790231 c 0.463735,4.04272 1.048526,9.46442 1.701796,13.59005 l 12.035226,0.24521 c 0.32794,-2.17636 2.16576,-8.168 3.33412,-13.59474 z"
       id="path20"
       sodipodi:nodetypes="ccccc" />
    <path
       style="fill:none;fill-opacity:1;stroke:#003366;stroke-width:0.565;stroke-linecap:butt;stroke-linejoin:miter;stroke-dasharray:none;stroke-opacity:1"
       d="m 96.771612,182.13082 c -0.0156,-0.0624 -0.03118,-0.12473 -0.05457,-1.57469 -0.02338,-1.44997 -0.05456,-4.28737 1.481154,-4.43548 1.535716,-0.14812 4.63814,2.39307 6.12709,2.47882 1.48894,0.0857 1.36422,-2.28402 1.08193,-3.44534 -0.28229,-1.16132 -0.71717,-1.11472 -1.15206,-1.06813"
       id="path21"
       inkscape:path-effect="#path-effect21"
       inkscape:original-d="m 96.771612,182.13082 c -0.01558,-0.0624 -0.03118,-0.12473 -0.04677,-0.18709 -0.03118,-2.83757 -0.06236,-5.67497 -0.09354,-8.51254 3.102615,2.54134 6.205038,5.08253 9.307658,7.62387 -0.12473,-2.36984 -0.24946,-4.73961 -0.37418,-7.10937 -0.43655,0.0779 -0.87308,0.10913 -1.30962,0.14031"
       sodipodi:nodetypes="cccccc"
       transform="translate(-75.035533,-134.97596)" />
    <ellipse
       style="fill:none;fill-opacity:1;stroke:#003366;stroke-width:0.567557;stroke-dasharray:none;stroke-opacity:1"
       id="path22-4"
       cx="29.371008"
       cy="39.090813"
       rx="0.37303001"
       ry="0.38170508" />
    <ellipse
       style="fill:none;fill-opacity:1;stroke:#003366;stroke-width:0.567557;stroke-dasharray:none;stroke-opacity:1"
       id="path22"
       cx="21.730238"
       cy="46.998482"
       rx="0.37303001"
       ry="0.38170508" />
    <path
       style="fill:none;stroke:#003366;stroke-width:0.165;stroke-linecap:butt;stroke-linejoin:miter;stroke-dasharray:none;stroke-opacity:1"
       d="m 105.40108,174.13278 c 0.21049,0.078 0.42095,0.15591 0.63142,0.23386"
       id="path24"
       inkscape:path-effect="#path-effect24"
       inkscape:original-d="m 105.40108,174.13278 c 0.21047,0.078 0.42095,0.1559 0.63142,0.23386"
       transform="translate(-75.035533,-134.97596)" />
    <path
       style="fill:none;stroke:#003366;stroke-width:0.165;stroke-linecap:butt;stroke-linejoin:miter;stroke-dasharray:none;stroke-opacity:1"
       d="m 104.25516,174.88113 c -0.0156,0.1793 -0.0312,0.35859 -0.0468,0.53788"
       id="path25"
       inkscape:path-effect="#path-effect25"
       inkscape:original-d="m 104.25516,174.88113 c -0.0156,0.1793 -0.0312,0.35859 -0.0468,0.53788"
       transform="translate(-75.035533,-134.97596)" />
    <path
       style="fill:none;stroke:#003366;stroke-width:0.165;stroke-linecap:butt;stroke-linejoin:miter;stroke-dasharray:none;stroke-opacity:1"
       d="m 103.46003,174.53034 c -0.17151,0.078 -0.34299,0.15591 -0.51449,0.23386"
       id="path26"
       inkscape:path-effect="#path-effect26"
       inkscape:original-d="m 103.46003,174.53034 c -0.17149,0.078 -0.34299,0.15591 -0.51449,0.23386"
       transform="translate(-75.035533,-134.97596)" />
    <path
       style="fill:none;stroke:#003366;stroke-width:0.165;stroke-linecap:butt;stroke-linejoin:miter;stroke-dasharray:none;stroke-opacity:1"
       d="m 103.43665,173.68844 c -0.19489,-0.10913 -0.38977,-0.21827 -0.58466,-0.3274"
       id="path27"
       inkscape:path-effect="#path-effect27"
       inkscape:original-d="m 103.43665,173.68844 c -0.19489,-0.10913 -0.38977,-0.21827 -0.58466,-0.3274"
       transform="translate(-75.035533,-134.97596)" />
    <path
       style="fill:#003366;fill-opacity:1;stroke:#003366;stroke-width:0.165;stroke-linecap:butt;stroke-linejoin:miter;stroke-dasharray:none;stroke-opacity:1"
       d="m 104.09146,173.10379 c -0.0624,-0.19489 -0.12473,-0.38977 -0.18709,-0.58465"
       id="path28"
       inkscape:path-effect="#path-effect28"
       inkscape:original-d="m 104.09146,173.10379 c -0.0624,-0.19488 -0.12473,-0.38977 -0.18709,-0.58465"
       transform="translate(-75.035533,-134.97596)" />
    <path
       style="fill:none;stroke:#003366;stroke-width:0.165;stroke-linecap:butt;stroke-linejoin:miter;stroke-dasharray:none;stroke-opacity:1"
       d="m 105.12044,173.36104 c 0.18709,-0.12083 0.37418,-0.24166 0.56127,-0.36249"
       id="path29"
       inkscape:path-effect="#path-effect29"
       inkscape:original-d="m 105.12044,173.36104 c 0.18709,-0.12083 0.37418,-0.24166 0.56127,-0.36249"
       transform="translate(-75.035533,-134.97596)" />
    <path
       style="fill:#003366;fill-opacity:1;stroke:#003366;stroke-width:0.565;stroke-linecap:butt;stroke-linejoin:miter;stroke-dasharray:none;stroke-opacity:1"
       d="m 27.160527,24.380811 -0.65419,2.28965"
       id="path80-95-9-2" />
    <path
       style="fill:#003366;fill-opacity:1;stroke:#003366;stroke-width:0.264583px;stroke-linecap:butt;stroke-linejoin:miter;stroke-opacity:1"
       d="m 25.770717,28.874321 h 3.00511"
       id="path4-3-2"
       sodipodi:nodetypes="cc" />
    <path
       style="fill:#003366;fill-opacity:1;stroke:#003366;stroke-width:0.247168px;stroke-linecap:butt;stroke-linejoin:miter;stroke-opacity:1"
       d="m 19.82383,19.232141 -2.921312,0.9963 c 3.828,2.3514 15.149329,5.37926 22.083709,0.0468 l -3.32935,-1.19878 -2.72001,-6.17371 -9.664323,-0.32116 c -1.664103,2.39077 -1.433324,3.82609 -3.448714,6.65058 z"
       id="path31"
       sodipodi:nodetypes="cccccccc" />
    <path
       style="fill:none;stroke:#003366;stroke-width:0.264583px;stroke-linecap:butt;stroke-linejoin:miter;stroke-opacity:1"
       d="m 19.92927,112.34108 c 0,2.73403 0,5.73264 0,8.73125"
       id="path15-5-0"
       inkscape:path-effect="#path-effect15-1-6"
       inkscape:original-d="m 19.92927,112.34108 c 0,2.73403 0,5.73264 0,8.73125"
       transform="translate(-4.7418874,-74.014962)"
       sodipodi:nodetypes="cc" />
    <path
       style="fill:#003366;fill-opacity:1;stroke:#003366;stroke-width:0.264583px;stroke-linecap:butt;stroke-linejoin:miter;stroke-opacity:1"
       d="m 15.27898,40.225951 4.43177,-8.76432 v 0 l -2.513541,0.26458 -2.007761,6.61459 z"
       id="path38"
       sodipodi:nodetypes="cccccc" />
    <path
       style="fill:none;stroke:#003366;stroke-width:0.264583px;stroke-linecap:butt;stroke-linejoin:miter;stroke-opacity:1"
       d="m 19.92927,113.26712 c 0,2.44406 0,5.12463 0,7.80521"
       id="path15-5-0-0"
       inkscape:path-effect="#path-effect15-1-6-2"
       inkscape:original-d="m 19.92927,113.26712 c 0,2.44406 0,5.12463 0,7.80521"
       transform="translate(19.996655,-74.279542)"
       sodipodi:nodetypes="cc" />
    <path
       style="fill:#003366;fill-opacity:1;stroke:#003366;stroke-width:0.264583px;stroke-linecap:butt;stroke-linejoin:miter;stroke-opacity:1"
       d="m 39.931127,41.260451 -4.54753,-8.92969 v 0 l 2.51355,0.26458 2.05052,6.4823 z"
       id="path38-9"
       sodipodi:nodetypes="cccccc" />
    <path
       style="fill:none;fill-opacity:1;stroke:#003366;stroke-width:0.565;stroke-linecap:butt;stroke-linejoin:miter;stroke-dasharray:none;stroke-opacity:1"
       d="m 88.212307,167.44436 c 0,-2.0892 0,-4.17834 1.186555,-5.16046 1.186554,-0.98211 3.554661,-0.85748 5.922812,-0.73284"
       id="path39"
       inkscape:path-effect="#path-effect39"
       inkscape:original-d="m 88.212307,167.44436 c 0,-2.0892 0,-4.17834 0,-6.26747 2.369836,0.18709 4.739579,0.28063 7.109367,0.37417"
       transform="translate(-74.567811,-135.0695)" />
    <path
       style="fill:none;fill-opacity:1;stroke:#003366;stroke-width:0.565;stroke-linecap:butt;stroke-linejoin:miter;stroke-dasharray:none;stroke-opacity:1"
       d="m 88.212307,167.44436 c 0,-2.0892 0,-4.17834 1.186555,-5.16046 1.186554,-0.98211 3.554661,-0.85748 5.922812,-0.73284"
       id="path39-4"
       inkscape:path-effect="#path-effect39-4"
       inkscape:original-d="m 88.212307,167.44436 c 0,-2.0892 0,-4.17834 0,-6.26747 2.369836,0.18709 4.739579,0.28063 7.109367,0.37417"
       transform="matrix(-1,0,0,1,129.97078,-134.69867)" />
  </g>
</svg>
