<?xml version="1.0" encoding="UTF-8" standalone="no"?>
<!-- Created with Inkscape (http://www.inkscape.org/) -->

<svg
   width="170"
   height="64"
   viewBox="0 0 44.979166 16.933333"
   version="1.1"
   id="svg1"
   inkscape:version="1.3.2 (091e20e, 2023-11-25, custom)"
   sodipodi:docname="msr-logo-title-ru.svg"
   xmlns:inkscape="http://www.inkscape.org/namespaces/inkscape"
   xmlns:sodipodi="http://sodipodi.sourceforge.net/DTD/sodipodi-0.dtd"
   xmlns="http://www.w3.org/2000/svg"
   xmlns:svg="http://www.w3.org/2000/svg">
  <sodipodi:namedview
     id="namedview1"
     pagecolor="#ffffff"
     bordercolor="#000000"
     borderopacity="0.25"
     inkscape:showpageshadow="2"
     inkscape:pageopacity="0.0"
     inkscape:pagecheckerboard="0"
     inkscape:deskcolor="#d1d1d1"
     inkscape:document-units="mm"
     inkscape:zoom="0.70710678"
     inkscape:cx="-19.79899"
     inkscape:cy="-93.338095"
     inkscape:window-width="1720"
     inkscape:window-height="650"
     inkscape:window-x="-7"
     inkscape:window-y="-7"
     inkscape:window-maximized="1"
     inkscape:current-layer="layer1" />
  <defs
     id="defs1">
    <clipPath
       clipPathUnits="userSpaceOnUse"
       id="clipPath429">
      <path
         id="path430"
         style="fill:#ff0000;fill-opacity:1;fill-rule:nonzero;stroke:none;stroke-width:0.264583"
         d="m 36.684582,77.278487 v 0.0186 c 0.05571,0.03455 0.105085,0.06862 0.164333,0.111104 0.09989,0.07162 0.197162,0.147447 0.288354,0.22996 0.01556,0.01408 0.09963,0.08992 0.119372,0.108003 0.02831,0.02593 0.05869,0.05221 0.08475,0.08061 0.0046,0.005 0.0086,0.01072 0.01291,0.01601 0.01151,0.0141 0.0172,0.02693 0.0186,0.03772 0.0016,0.0016 0.003,0.0029 0.0047,0.0047 0.009,0.0096 0.01609,0.02109 0.02119,0.03307 0.0087,0.02027 -0.0046,0.02973 -0.01707,0.0217 -1.13e-4,2.64e-4 -2.03e-4,7.94e-4 -5.29e-4,0.0011 0.01572,0.06477 -0.0457,0.07768 -0.08165,0.01291 -2.64e-4,0.01267 -0.0013,0.0258 -0.0093,0.03359 -0.0011,0.0011 -0.0019,0.0016 -0.0031,0.0026 0.0127,0.03626 -0.0029,0.0628 -0.02482,0.06666 0.0041,0.0088 0.0085,0.0176 0.01344,0.02582 2.62e-4,6.8e-5 7.94e-4,-6.7e-5 0.0011,0 0.0035,0.0053 0.0092,0.0097 0.01035,0.01601 6.1e-5,5.29e-4 -5.29e-4,7.94e-4 -5.29e-4,0.0011 0.0013,0.0019 0.0024,0.0034 0.0036,0.0052 0.0074,0.0021 0.03005,0.0086 0.03307,0.01241 0.0126,0.01601 0.0053,0.0227 -0.0052,0.02687 0.02315,0.04483 -0.0052,0.07944 -0.04289,0.0615 -3.9e-5,7.94e-4 5.3e-5,0.0011 0,0.0021 -1e-4,0.0019 -0.0034,0.0016 -0.0052,0.0021 -0.0027,7.94e-4 -0.0055,0.0021 -0.0083,0.0026 0.006,0.0013 0.0093,0.0066 0.0062,0.0186 -7.93e-4,0.0028 -0.0045,0.005 -0.0093,0.0062 2.65e-4,0.0011 5.29e-4,0.0021 0.0011,0.0031 0.01606,0.0108 0.01976,0.02969 0.0067,0.05013 -2.22e-4,2.64e-4 -1.35e-4,0.0029 -5.29e-4,0.0031 v 5.29e-4 c 0.0021,0.0076 5.29e-4,0.01577 -0.0057,0.02326 0.01095,0.0071 0.01926,0.02164 0.02066,0.04238 0.0016,-7.94e-4 0.0029,-0.0016 0.0047,-0.0026 0.0031,-2.19e-4 0.0062,-0.0029 0.0093,-0.0031 0.0011,-3.8e-5 0.0016,-1.04e-4 0.0026,0 0.01831,0.0019 0.02924,0.01908 0.03514,0.03462 5.29e-4,0.0013 5.29e-4,0.0019 0.0011,0.0031 0.0024,0.0028 0.0044,0.0063 0.0062,0.0093 -5.29e-4,-0.02011 -0.0013,-0.04041 -0.0026,-0.06046 -2.65e-4,-0.0067 2.64e-4,-0.0085 -0.0011,-0.01447 -0.0016,-0.01437 0.0046,-0.02201 0.01188,-0.02273 0.0073,-7.94e-4 0.01535,0.0063 0.01707,0.02066 7.94e-4,0.0061 0.0011,0.0074 0.0016,0.01447 0.0031,0.05337 0.0032,0.106775 0.0041,0.160197 0.0021,0.174376 0.0043,0.348589 0.0067,0.522965 0.0024,0.104664 0.0011,0.05397 0.0036,0.152448 7.94e-4,0.02893 -0.02817,0.03074 -0.02894,0.0031 -0.0027,-0.09869 -0.0013,-0.048 -0.0036,-0.152961 -2.65e-4,-0.02842 -0.0011,-0.05686 -0.0016,-0.08527 l -5.29e-4,5.29e-4 c -0.0013,0.0011 -0.0021,0.0021 -0.0036,0.0031 1.96e-4,0.0057 7.94e-4,0.01116 5.3e-4,0.01707 -0.0011,0.03815 -0.03685,0.04132 -0.04082,0.0088 -0.0032,0.0035 -0.0071,0.0065 -0.01188,0.0083 -0.0046,0.0016 -0.0097,0.0013 -0.01447,0.0021 -0.0038,-0.0011 -0.0078,-0.0021 -0.01138,-0.0036 h -5.29e-4 c -0.0011,0.0052 -0.0021,0.01024 -0.0026,0.0155 -0.0016,0.01931 -0.0024,0.03859 -0.0021,0.05788 0.03286,0.0254 0.05391,0.07511 0.04702,0.145725 0.126767,0.09285 0.257916,0.180025 0.391708,0.264067 0.188243,0.132387 0.387398,0.256154 0.569992,0.398426 h 0.590661 v -2.57297 z m 0.572575,0.952396 5.29e-4,5.3e-4 5.29e-4,-5.3e-4 c -2.65e-4,-2.6e-5 -7.94e-4,3e-6 -0.0011,0 z m 0.03979,0.18242 c -1.56e-4,7.94e-4 -6.6e-5,0.0013 -5.29e-4,0.0021 2.65e-4,-5.1e-5 7.94e-4,4.7e-5 0.0011,0 -1.58e-4,-7.94e-4 -9.2e-5,-0.0013 -5.29e-4,-0.0021 z" />
    </clipPath>
  </defs>
  <g
     inkscape:label="Слой 1"
     inkscape:groupmode="layer"
     id="layer1">
    <path
       d="M 30.259281,1.2140518 24.757149,13.493199 q -0.330519,0.744791 -0.78741,1.224979 -0.447147,0.480162 -0.972105,0.744784 -0.505527,0.24502 -0.981832,0.333191 -0.466587,0.07839 -0.904057,0.07839 -0.388835,0 -0.942943,-0.0392 -0.554123,-0.03919 -0.709641,-0.04867 v -1.813277 h 0.136072 q 0.145799,0.01965 0.486025,0.06859 0.340235,0.03919 0.777684,0.03919 0.194449,0 0.544401,-0.02907 0.349955,-0.02907 0.622159,-0.137175 0.311077,-0.117587 0.612438,-0.372387 0.311078,-0.254795 0.524962,-0.744788 L 23.512853,12.023561 18.127377,1.2143813 h 2.128917 l 4.228674,8.6038901 3.791219,-8.6042248 z"
       id="text3"
       style="font-size:3.175px;line-height:1.45;fill:#808080;stroke:#808080;stroke-width:1.66576;fill-opacity:1;stroke-opacity:1"
       aria-label="У" />
    <path
       d="M 15.306391,15.879868 H 13.381617 V 3.3067237 L 9.3570907,11.861949 H 8.2100009 L 4.2146398,3.3067237 V 15.879868 H 2.4162348 V 1.287965 H 5.0409321 L 8.9001989,9.4120025 12.63309,1.287965 h 2.673301 z"
       id="text4"
       style="font-size:3.175px;line-height:1.45;fill:#003366;stroke:#003366;stroke-width:1.66576"
       aria-label="M" />
    <path
       d="m 42.679371,5.6239592 q 0,0.9701803 -0.340237,1.8031633 -0.330517,0.8231844 -0.933222,1.4307709 -0.748526,0.7545875 -1.769242,1.1367766 -1.020709,0.372385 -2.576081,0.372385 h -1.924774 v 5.438891 H 33.211041 V 1.2140493 h 3.927316 q 1.30262,0 2.206687,0.2253967 0.904058,0.215594 1.603976,0.6859861 0.826293,0.5585905 1.273459,1.3915715 0.456867,0.8329832 0.456867,2.1069567 z m -2.002543,0.048992 q 0,-0.754584 -0.26247,-1.3131729 -0.262472,-0.5585914 -0.79713,-0.9113829 -0.466588,-0.3037934 -1.069317,-0.431192 -0.593,-0.1371966 -1.50677,-0.1371966 h -1.90533 v 5.8308806 h 1.62342 q 1.166527,0 1.89561,-0.2058207 0.729081,-0.2156187 1.185965,-0.6761872 0.456869,-0.4703898 0.641599,-0.9897781 0.19445,-0.5193922 0.19445,-1.1661765 z"
       id="text5"
       style="font-size:3.175px;line-height:1.45;fill:#003366;stroke:#003366;stroke-width:1.66576"
       aria-label="Р" />
  </g>
</svg>
