<?xml version="1.0" encoding="UTF-8" standalone="no"?>
<!-- Created with Inkscape (http://www.inkscape.org/) -->

<svg
   width="55mm"
   height="60mm"
   viewBox="0 0 55 60"
   version="1.1"
   id="svg1"
   inkscape:version="1.3.2 (091e20e, 2023-11-25, custom)"
   sodipodi:docname="msr-icon-proffessional.svg"
   xmlns:inkscape="http://www.inkscape.org/namespaces/inkscape"
   xmlns:sodipodi="http://sodipodi.sourceforge.net/DTD/sodipodi-0.dtd"
   xmlns="http://www.w3.org/2000/svg"
   xmlns:svg="http://www.w3.org/2000/svg">
  <sodipodi:namedview
     id="namedview1"
     pagecolor="#ffffff"
     bordercolor="#000000"
     borderopacity="0.25"
     inkscape:showpageshadow="2"
     inkscape:pageopacity="0.0"
     inkscape:pagecheckerboard="0"
     inkscape:deskcolor="#d1d1d1"
     inkscape:document-units="mm"
     inkscape:zoom="1"
     inkscape:cx="0"
     inkscape:cy="217"
     inkscape:window-width="1720"
     inkscape:window-height="650"
     inkscape:window-x="-7"
     inkscape:window-y="-7"
     inkscape:window-maximized="1"
     inkscape:current-layer="layer1" />
  <defs
     id="defs1">
    <inkscape:path-effect
       effect="bspline"
       id="path-effect39"
       is_visible="true"
       lpeversion="1.3"
       weight="33.333333"
       steps="2"
       helper_size="0"
       apply_no_weight="true"
       apply_with_weight="true"
       only_selected="false"
       uniform="false" />
    <inkscape:path-effect
       effect="bspline"
       id="path-effect29"
       is_visible="true"
       lpeversion="1.3"
       weight="33.333333"
       steps="2"
       helper_size="0"
       apply_no_weight="true"
       apply_with_weight="true"
       only_selected="false"
       uniform="false" />
    <inkscape:path-effect
       effect="bspline"
       id="path-effect28"
       is_visible="true"
       lpeversion="1.3"
       weight="33.333333"
       steps="2"
       helper_size="0"
       apply_no_weight="true"
       apply_with_weight="true"
       only_selected="false"
       uniform="false" />
    <inkscape:path-effect
       effect="bspline"
       id="path-effect27"
       is_visible="true"
       lpeversion="1.3"
       weight="33.333333"
       steps="2"
       helper_size="0"
       apply_no_weight="true"
       apply_with_weight="true"
       only_selected="false"
       uniform="false" />
    <inkscape:path-effect
       effect="bspline"
       id="path-effect26"
       is_visible="true"
       lpeversion="1.3"
       weight="33.333333"
       steps="2"
       helper_size="0"
       apply_no_weight="true"
       apply_with_weight="true"
       only_selected="false"
       uniform="false" />
    <inkscape:path-effect
       effect="bspline"
       id="path-effect25"
       is_visible="true"
       lpeversion="1.3"
       weight="33.333333"
       steps="2"
       helper_size="0"
       apply_no_weight="true"
       apply_with_weight="true"
       only_selected="false"
       uniform="false" />
    <inkscape:path-effect
       effect="bspline"
       id="path-effect24"
       is_visible="true"
       lpeversion="1.3"
       weight="33.333333"
       steps="2"
       helper_size="0"
       apply_no_weight="true"
       apply_with_weight="true"
       only_selected="false"
       uniform="false" />
    <inkscape:path-effect
       effect="bspline"
       id="path-effect23"
       is_visible="true"
       lpeversion="1.3"
       weight="33.333333"
       steps="2"
       helper_size="0"
       apply_no_weight="true"
       apply_with_weight="true"
       only_selected="false"
       uniform="false" />
    <inkscape:path-effect
       effect="bspline"
       id="path-effect21"
       is_visible="true"
       lpeversion="1.3"
       weight="33.333333"
       steps="2"
       helper_size="0"
       apply_no_weight="true"
       apply_with_weight="true"
       only_selected="false"
       uniform="false" />
    <inkscape:path-effect
       effect="bspline"
       id="path-effect19"
       is_visible="true"
       lpeversion="1.3"
       weight="33.333333"
       steps="2"
       helper_size="0"
       apply_no_weight="true"
       apply_with_weight="true"
       only_selected="false"
       uniform="false" />
    <inkscape:path-effect
       effect="bspline"
       id="path-effect18"
       is_visible="true"
       lpeversion="1.3"
       weight="33.333333"
       steps="2"
       helper_size="0"
       apply_no_weight="true"
       apply_with_weight="true"
       only_selected="false"
       uniform="false" />
    <inkscape:path-effect
       effect="bspline"
       id="path-effect17"
       is_visible="true"
       lpeversion="1.3"
       weight="33.333333"
       steps="2"
       helper_size="0"
       apply_no_weight="true"
       apply_with_weight="true"
       only_selected="false"
       uniform="false" />
    <inkscape:path-effect
       effect="bspline"
       id="path-effect16"
       is_visible="true"
       lpeversion="1.3"
       weight="33.333333"
       steps="2"
       helper_size="0"
       apply_no_weight="true"
       apply_with_weight="true"
       only_selected="false"
       uniform="false" />
    <inkscape:path-effect
       effect="bspline"
       id="path-effect15"
       is_visible="true"
       lpeversion="1.3"
       weight="33.333333"
       steps="2"
       helper_size="0"
       apply_no_weight="true"
       apply_with_weight="true"
       only_selected="false"
       uniform="false" />
    <inkscape:path-effect
       effect="bspline"
       id="path-effect14"
       is_visible="true"
       lpeversion="1.3"
       weight="33.333333"
       steps="2"
       helper_size="0"
       apply_no_weight="true"
       apply_with_weight="true"
       only_selected="false"
       uniform="false" />
    <inkscape:path-effect
       effect="bspline"
       id="path-effect13"
       is_visible="true"
       lpeversion="1.3"
       weight="33.333333"
       steps="2"
       helper_size="0"
       apply_no_weight="true"
       apply_with_weight="true"
       only_selected="false"
       uniform="false" />
    <inkscape:path-effect
       effect="bspline"
       id="path-effect11"
       is_visible="true"
       lpeversion="1.3"
       weight="33.333333"
       steps="2"
       helper_size="0"
       apply_no_weight="true"
       apply_with_weight="true"
       only_selected="false"
       uniform="false" />
    <inkscape:path-effect
       effect="bspline"
       id="path-effect207"
       is_visible="true"
       lpeversion="1.3"
       weight="33.333333"
       steps="2"
       helper_size="0"
       apply_no_weight="true"
       apply_with_weight="true"
       only_selected="false"
       uniform="false" />
    <inkscape:path-effect
       effect="bspline"
       id="path-effect136"
       is_visible="true"
       lpeversion="1.3"
       weight="33.333333"
       steps="2"
       helper_size="0"
       apply_no_weight="true"
       apply_with_weight="true"
       only_selected="false"
       uniform="false" />
    <inkscape:path-effect
       effect="bspline"
       id="path-effect135"
       is_visible="true"
       lpeversion="1.3"
       weight="33.333333"
       steps="2"
       helper_size="0"
       apply_no_weight="true"
       apply_with_weight="true"
       only_selected="false"
       uniform="false" />
    <inkscape:path-effect
       effect="bspline"
       id="path-effect78"
       is_visible="true"
       lpeversion="1.3"
       weight="33.333333"
       steps="2"
       helper_size="0"
       apply_no_weight="true"
       apply_with_weight="true"
       only_selected="false"
       uniform="false" />
    <inkscape:path-effect
       effect="spiro"
       id="path-effect77"
       is_visible="true"
       lpeversion="1" />
    <inkscape:path-effect
       effect="bspline"
       id="path-effect78-1"
       is_visible="true"
       lpeversion="1.3"
       weight="33.333333"
       steps="2"
       helper_size="0"
       apply_no_weight="true"
       apply_with_weight="true"
       only_selected="false"
       uniform="false" />
    <clipPath
       clipPathUnits="userSpaceOnUse"
       id="clipPath94">
      <path
         id="path95"
         style="fill:#ff0000;fill-opacity:1;fill-rule:nonzero;stroke:none;stroke-width:0.264583"
         d="m 41.539524,87.048079 v 57.317431 h 26.53275 c -0.05654,-2.15073 -0.06778,-4.30173 -0.01188,-6.45283 0.02738,-1.09592 0.05098,-2.19345 0.158647,-3.28508 0.02498,-0.25316 0.07566,-0.47388 0.145211,-0.66455 -0.104029,-1.09471 -0.169756,-2.19297 -0.216008,-3.29179 -0.115242,-2.16005 0.08703,-4.49091 1.699122,-6.12779 0.448083,-0.45498 1.01732,-0.77204 1.526006,-1.15807 0.646829,-0.21079 1.267581,-0.53218 1.940449,-0.63252 0.113977,-0.017 0.231235,-0.0175 0.346231,-0.0295 -0.245092,-1.49857 -0.158996,-3.01963 0.525552,-4.55269 0.268933,-0.41899 0.481624,-0.87963 0.806667,-1.25677 0.136152,-0.15797 0.283996,-0.29447 0.430983,-0.43202 -0.04658,-0.0805 -0.09468,-0.1599 -0.135909,-0.24443 -0.298461,-0.61199 -0.363508,-1.31215 -0.545187,-1.96835 0.194442,-0.73766 0.23877,-1.53275 0.583427,-2.2133 0.310706,-0.61351 0.782045,-1.09098 1.328084,-1.49397 -0.515244,-1.07691 -1.496068,-2.04525 -1.518253,-3.23701 -0.04709,-2.52988 2.878267,-3.2687 4.873088,-3.5848 -1.171901,-2.7629 0.734531,-5.223586 3.191018,-6.221322 1.5001,-0.440219 3.018263,-0.839658 4.594553,-0.849561 0.204605,-0.01312 0.408337,-0.036 0.612881,-0.05064 1.349438,-1.186651 3.0544,-1.82362 4.690155,-2.506308 0.738624,-0.29617 0.887941,-0.354629 1.105357,-0.440799 0.114163,-0.162914 0.234061,-0.322035 0.360702,-0.476459 V 87.04804 Z m 27.539405,30.052951 c 0.164224,7.9e-4 0.328337,0.008 0.492477,0.0186 0.344882,0.0326 0.681551,0.12229 1.004072,0.2465 0.198393,0.0816 0.357288,0.21091 0.476975,0.38705 0.07005,0.13077 0.08172,0.23686 0.03928,0.34675 0.276876,-0.0818 0.408498,0.21495 0.09973,0.39946 -0.01834,0.011 -0.03707,0.0202 -0.05374,0.0336 -0.06112,0.0464 -0.115295,0.10241 -0.189135,0.12971 -0.04557,0.0215 -0.09117,0.0426 -0.136943,0.0636 -0.0019,0.0298 -0.0052,0.0597 -0.01035,0.0894 -0.03716,0.18651 -0.08584,0.37237 -0.189653,0.53433 -0.06144,0.0785 -0.117415,0.1765 -0.248047,0.1633 -0.210794,-0.0212 -0.231026,-0.19486 -0.225825,-0.34778 0.0065,-0.0775 0.0145,-0.15505 0.02582,-0.23203 -0.0647,0.006 -0.129464,0.006 -0.195337,0.005 -0.07818,-7e-5 -0.156435,-1.8e-4 -0.234611,-5.3e-4 -0.114255,0.0322 -0.231974,0.0487 -0.349848,0.061 -0.129929,0.0177 -0.257977,0.0442 -0.388091,0.061 -0.154538,0.0188 -0.310137,0.0271 -0.465606,0.0331 -0.154961,0.009 -0.309946,0.004 -0.464569,-0.007 -0.128172,-0.0114 -0.251743,-0.0485 -0.373623,-0.0879 -0.0711,-0.0242 -0.145235,-0.0365 -0.219623,-0.0455 -0.07574,-0.008 -0.151823,-0.009 -0.227893,-0.0114 -0.115906,0.003 -0.230167,-0.0109 -0.344681,-0.0269 -0.156149,-0.0168 -0.298021,-0.0472 -0.433567,-0.12867 -0.05047,-0.0379 -0.08997,-0.0818 -0.120923,-0.13074 -0.0345,0.11258 -0.0645,0.22818 -0.06821,0.3452 -0.01312,0.40401 -0.413258,0.40403 -0.40876,-5.3e-4 0.0021,-0.19403 0.06075,-0.3833 0.118337,-0.56689 0.07088,-0.20207 0.148011,-0.40261 0.258385,-0.58653 0.18288,-0.24272 0.47191,-0.34573 0.748792,-0.44183 0.410577,-0.13494 0.837321,-0.20432 1.265036,-0.25632 0.272508,-0.0341 0.546402,-0.048 0.820105,-0.0465 z m 0.0011,0.40927 c -0.257654,-0.002 -0.514979,0.0114 -0.77153,0.0434 -0.399169,0.0483 -0.797872,0.11169 -1.181322,0.23668 -0.09703,0.0332 -0.198972,0.0666 -0.294556,0.11059 0.0019,2.4e-4 0.0034,2.6e-4 0.0052,5.3e-4 0.07149,0.0103 0.142301,0.024 0.211873,0.0424 0.290967,0.0187 0.575347,0.0851 0.858345,0.15193 0.225915,0.0488 0.449771,0.10629 0.675929,0.15399 0.174945,0.0317 0.350964,0.0584 0.527616,0.0786 0.08417,0.008 0.168516,0.0167 0.252698,0.0248 0.0039,-10e-4 0.008,-0.002 0.01188,-0.003 0.192915,-0.0523 0.387927,-0.10108 0.58601,-0.12918 0.149613,-0.0205 0.305043,-0.0397 0.451135,-0.0124 0.02772,-0.0338 0.05795,-0.065 0.09457,-0.091 0.0621,-0.0449 0.131643,-0.0804 0.186552,-0.13436 0.01635,-0.009 0.008,0.002 0.01394,0.0181 0.0028,0.007 0.02704,-0.0262 0.0031,-0.0222 -0.06771,-0.10852 -0.166269,-0.1802 -0.283702,-0.231 -0.283533,-0.11077 -0.580863,-0.18924 -0.884184,-0.22014 -0.154514,-0.0106 -0.308946,-0.0167 -0.463537,-0.0176 z m 1.462961,1.71049 c 0.0035,0.0208 0.0077,0.0456 0.0067,0.0377 -0.0016,-0.0127 0.0024,-0.0287 -0.0067,-0.0377 z m 24.020237,4.03955 c -1.018682,1.75772 -2.088369,3.48805 -3.255097,5.14904 -0.02781,0.33928 -0.130881,0.68136 -0.271817,0.99942 -0.484968,0.83102 -1.077309,1.59211 -1.765268,2.26653 -0.688298,0.70517 -1.405096,1.38021 -2.171962,2.00039 -0.03664,0.0301 -0.0715,0.0622 -0.108003,0.0925 -1.312775,1.55631 -2.594988,3.13948 -3.730522,4.83019 -1.209058,1.67477 -1.142349,1.64917 -2.852539,0.30438 -0.09297,0.0534 -0.186775,0.10533 -0.28112,0.15658 0.05226,0.28822 0.09874,0.57887 0.129191,0.87591 0.06872,1.60826 -0.352975,3.07827 -1.078487,4.43229 h 15.385624 z" />
    </clipPath>
    <clipPath
       clipPathUnits="userSpaceOnUse"
       id="clipPath202">
      <path
         id="path203"
         style="fill:#ff0000;fill-opacity:1;fill-rule:nonzero;stroke:none;stroke-width:0.264583"
         d="m 58.9964,108.28538 v 11.22774 h 4.240567 c -0.02172,-0.11259 0.02027,-0.2616 0.160197,-0.42116 0.09127,-0.10408 0.190532,-0.20342 0.264584,-0.32092 0.135911,-0.19009 0.286004,-0.36901 0.422195,-0.55913 0.180999,-0.24803 0.36884,-0.49108 0.560174,-0.73123 0.01267,-0.0151 0.02471,-0.0307 0.03721,-0.046 0.08883,-0.37163 0.223676,-0.71071 0.551389,-0.94516 0.009,0.003 0.01836,0.005 0.02739,0.008 0.06552,-0.0619 0.13779,-0.0956 0.206706,-0.10025 0.123677,-0.008 0.233632,0.0737 0.27182,0.23203 0.143258,0.0394 0.284006,0.0839 0.415478,0.14986 0.23591,0.0384 0.466055,0.14462 0.700733,0.19844 0.01225,0.0382 0.02646,0.0759 0.04031,0.11368 0.08998,-0.5604 0.132157,-1.13223 0.33383,-1.66604 0.177507,-0.29203 0.401267,-0.45776 0.66456,-0.46199 0.157974,-0.003 0.329864,0.0532 0.515212,0.17466 0.178734,0.1171 0.26175,0.32933 0.311092,0.54209 0.09304,0.0285 0.193357,0.0995 0.288356,0.22841 0.24148,0.32768 0.409432,0.70297 0.58756,1.06712 0.03856,0.0787 0.07504,0.15795 0.111104,0.23771 0.472644,0.6986 0.853538,1.45717 1.242819,2.204 0.0313,0.0641 0.02246,0.0459 0.04703,0.0961 h 5.691642 V 108.2856 Z m 9.248013,9.88157 c -0.0287,0.0142 -0.02649,0.002 -0.03359,0.0305 0.01675,-0.002 0.03336,-0.004 0.05013,-0.005 -0.0055,-0.008 -0.01103,-0.0169 -0.01654,-0.0253 z m -3.916558,0.81907 c -0.03869,0.0503 -0.07768,0.10033 -0.115237,0.15141 -0.08918,0.13089 -0.189415,0.25314 -0.299207,0.36742 -0.0028,0.003 -0.0055,0.005 -0.0083,0.008 h 0.659392 c -0.0056,-0.0921 -0.0045,-0.18349 -0.0036,-0.26717 2.64e-4,-0.046 5.29e-4,-0.092 0.0011,-0.13797 -0.03899,0.008 -0.07363,-0.006 -0.08888,-0.0403 -0.0558,-0.01 -0.10614,-0.0377 -0.145211,-0.0811 z" />
    </clipPath>
    <clipPath
       clipPathUnits="userSpaceOnUse"
       id="clipPath94-5">
      <path
         id="path95-6"
         style="fill:#ff0000;fill-opacity:1;fill-rule:nonzero;stroke:none;stroke-width:0.264583"
         d="m 41.539524,87.048079 v 57.317431 h 26.53275 c -0.05654,-2.15073 -0.06778,-4.30173 -0.01188,-6.45283 0.02738,-1.09592 0.05098,-2.19345 0.158647,-3.28508 0.02498,-0.25316 0.07566,-0.47388 0.145211,-0.66455 -0.104029,-1.09471 -0.169756,-2.19297 -0.216008,-3.29179 -0.115242,-2.16005 0.08703,-4.49091 1.699122,-6.12779 0.448083,-0.45498 1.01732,-0.77204 1.526006,-1.15807 0.646829,-0.21079 1.267581,-0.53218 1.940449,-0.63252 0.113977,-0.017 0.231235,-0.0175 0.346231,-0.0295 -0.245092,-1.49857 -0.158996,-3.01963 0.525552,-4.55269 0.268933,-0.41899 0.481624,-0.87963 0.806667,-1.25677 0.136152,-0.15797 0.283996,-0.29447 0.430983,-0.43202 -0.04658,-0.0805 -0.09468,-0.1599 -0.135909,-0.24443 -0.298461,-0.61199 -0.363508,-1.31215 -0.545187,-1.96835 0.194442,-0.73766 0.23877,-1.53275 0.583427,-2.2133 0.310706,-0.61351 0.782045,-1.09098 1.328084,-1.49397 -0.515244,-1.07691 -1.496068,-2.04525 -1.518253,-3.23701 -0.04709,-2.52988 2.878267,-3.2687 4.873088,-3.5848 -1.171901,-2.7629 0.734531,-5.223586 3.191018,-6.221322 1.5001,-0.440219 3.018263,-0.839658 4.594553,-0.849561 0.204605,-0.01312 0.408337,-0.036 0.612881,-0.05064 1.349438,-1.186651 3.0544,-1.82362 4.690155,-2.506308 0.738624,-0.29617 0.887941,-0.354629 1.105357,-0.440799 0.114163,-0.162914 0.234061,-0.322035 0.360702,-0.476459 V 87.04804 Z m 27.539405,30.052951 c 0.164224,7.9e-4 0.328337,0.008 0.492477,0.0186 0.344882,0.0326 0.681551,0.12229 1.004072,0.2465 0.198393,0.0816 0.357288,0.21091 0.476975,0.38705 0.07005,0.13077 0.08172,0.23686 0.03928,0.34675 0.276876,-0.0818 0.408498,0.21495 0.09973,0.39946 -0.01834,0.011 -0.03707,0.0202 -0.05374,0.0336 -0.06112,0.0464 -0.115295,0.10241 -0.189135,0.12971 -0.04557,0.0215 -0.09117,0.0426 -0.136943,0.0636 -0.0019,0.0298 -0.0052,0.0597 -0.01035,0.0894 -0.03716,0.18651 -0.08584,0.37237 -0.189653,0.53433 -0.06144,0.0785 -0.117415,0.1765 -0.248047,0.1633 -0.210794,-0.0212 -0.231026,-0.19486 -0.225825,-0.34778 0.0065,-0.0775 0.0145,-0.15505 0.02582,-0.23203 -0.0647,0.006 -0.129464,0.006 -0.195337,0.005 -0.07818,-7e-5 -0.156435,-1.8e-4 -0.234611,-5.3e-4 -0.114255,0.0322 -0.231974,0.0487 -0.349848,0.061 -0.129929,0.0177 -0.257977,0.0442 -0.388091,0.061 -0.154538,0.0188 -0.310137,0.0271 -0.465606,0.0331 -0.154961,0.009 -0.309946,0.004 -0.464569,-0.007 -0.128172,-0.0114 -0.251743,-0.0485 -0.373623,-0.0879 -0.0711,-0.0242 -0.145235,-0.0365 -0.219623,-0.0455 -0.07574,-0.008 -0.151823,-0.009 -0.227893,-0.0114 -0.115906,0.003 -0.230167,-0.0109 -0.344681,-0.0269 -0.156149,-0.0168 -0.298021,-0.0472 -0.433567,-0.12867 -0.05047,-0.0379 -0.08997,-0.0818 -0.120923,-0.13074 -0.0345,0.11258 -0.0645,0.22818 -0.06821,0.3452 -0.01312,0.40401 -0.413258,0.40403 -0.40876,-5.3e-4 0.0021,-0.19403 0.06075,-0.3833 0.118337,-0.56689 0.07088,-0.20207 0.148011,-0.40261 0.258385,-0.58653 0.18288,-0.24272 0.47191,-0.34573 0.748792,-0.44183 0.410577,-0.13494 0.837321,-0.20432 1.265036,-0.25632 0.272508,-0.0341 0.546402,-0.048 0.820105,-0.0465 z m 0.0011,0.40927 c -0.257654,-0.002 -0.514979,0.0114 -0.77153,0.0434 -0.399169,0.0483 -0.797872,0.11169 -1.181322,0.23668 -0.09703,0.0332 -0.198972,0.0666 -0.294556,0.11059 0.0019,2.4e-4 0.0034,2.6e-4 0.0052,5.3e-4 0.07149,0.0103 0.142301,0.024 0.211873,0.0424 0.290967,0.0187 0.575347,0.0851 0.858345,0.15193 0.225915,0.0488 0.449771,0.10629 0.675929,0.15399 0.174945,0.0317 0.350964,0.0584 0.527616,0.0786 0.08417,0.008 0.168516,0.0167 0.252698,0.0248 0.0039,-10e-4 0.008,-0.002 0.01188,-0.003 0.192915,-0.0523 0.387927,-0.10108 0.58601,-0.12918 0.149613,-0.0205 0.305043,-0.0397 0.451135,-0.0124 0.02772,-0.0338 0.05795,-0.065 0.09457,-0.091 0.0621,-0.0449 0.131643,-0.0804 0.186552,-0.13436 0.01635,-0.009 0.008,0.002 0.01394,0.0181 0.0028,0.007 0.02704,-0.0262 0.0031,-0.0222 -0.06771,-0.10852 -0.166269,-0.1802 -0.283702,-0.231 -0.283533,-0.11077 -0.580863,-0.18924 -0.884184,-0.22014 -0.154514,-0.0106 -0.308946,-0.0167 -0.463537,-0.0176 z m 1.462961,1.71049 c 0.0035,0.0208 0.0077,0.0456 0.0067,0.0377 -0.0016,-0.0127 0.0024,-0.0287 -0.0067,-0.0377 z m 24.020237,4.03955 c -1.018682,1.75772 -2.088369,3.48805 -3.255097,5.14904 -0.02781,0.33928 -0.130881,0.68136 -0.271817,0.99942 -0.484968,0.83102 -1.077309,1.59211 -1.765268,2.26653 -0.688298,0.70517 -1.405096,1.38021 -2.171962,2.00039 -0.03664,0.0301 -0.0715,0.0622 -0.108003,0.0925 -1.312775,1.55631 -2.594988,3.13948 -3.730522,4.83019 -1.209058,1.67477 -1.142349,1.64917 -2.852539,0.30438 -0.09297,0.0534 -0.186775,0.10533 -0.28112,0.15658 0.05226,0.28822 0.09874,0.57887 0.129191,0.87591 0.06872,1.60826 -0.352975,3.07827 -1.078487,4.43229 h 15.385624 z" />
    </clipPath>
    <clipPath
       clipPathUnits="userSpaceOnUse"
       id="clipPath202-4">
      <path
         id="path203-3"
         style="fill:#ff0000;fill-opacity:1;fill-rule:nonzero;stroke:none;stroke-width:0.264583"
         d="m 58.9964,108.28538 v 11.22774 h 4.240567 c -0.02172,-0.11259 0.02027,-0.2616 0.160197,-0.42116 0.09127,-0.10408 0.190532,-0.20342 0.264584,-0.32092 0.135911,-0.19009 0.286004,-0.36901 0.422195,-0.55913 0.180999,-0.24803 0.36884,-0.49108 0.560174,-0.73123 0.01267,-0.0151 0.02471,-0.0307 0.03721,-0.046 0.08883,-0.37163 0.223676,-0.71071 0.551389,-0.94516 0.009,0.003 0.01836,0.005 0.02739,0.008 0.06552,-0.0619 0.13779,-0.0956 0.206706,-0.10025 0.123677,-0.008 0.233632,0.0737 0.27182,0.23203 0.143258,0.0394 0.284006,0.0839 0.415478,0.14986 0.23591,0.0384 0.466055,0.14462 0.700733,0.19844 0.01225,0.0382 0.02646,0.0759 0.04031,0.11368 0.08998,-0.5604 0.132157,-1.13223 0.33383,-1.66604 0.177507,-0.29203 0.401267,-0.45776 0.66456,-0.46199 0.157974,-0.003 0.329864,0.0532 0.515212,0.17466 0.178734,0.1171 0.26175,0.32933 0.311092,0.54209 0.09304,0.0285 0.193357,0.0995 0.288356,0.22841 0.24148,0.32768 0.409432,0.70297 0.58756,1.06712 0.03856,0.0787 0.07504,0.15795 0.111104,0.23771 0.472644,0.6986 0.853538,1.45717 1.242819,2.204 0.0313,0.0641 0.02246,0.0459 0.04703,0.0961 h 5.691642 V 108.2856 Z m 9.248013,9.88157 c -0.0287,0.0142 -0.02649,0.002 -0.03359,0.0305 0.01675,-0.002 0.03336,-0.004 0.05013,-0.005 -0.0055,-0.008 -0.01103,-0.0169 -0.01654,-0.0253 z m -3.916558,0.81907 c -0.03869,0.0503 -0.07768,0.10033 -0.115237,0.15141 -0.08918,0.13089 -0.189415,0.25314 -0.299207,0.36742 -0.0028,0.003 -0.0055,0.005 -0.0083,0.008 h 0.659392 c -0.0056,-0.0921 -0.0045,-0.18349 -0.0036,-0.26717 2.64e-4,-0.046 5.29e-4,-0.092 0.0011,-0.13797 -0.03899,0.008 -0.07363,-0.006 -0.08888,-0.0403 -0.0558,-0.01 -0.10614,-0.0377 -0.145211,-0.0811 z" />
    </clipPath>
    <inkscape:path-effect
       effect="bspline"
       id="path-effect78-0"
       is_visible="true"
       lpeversion="1.3"
       weight="33.333333"
       steps="2"
       helper_size="0"
       apply_no_weight="true"
       apply_with_weight="true"
       only_selected="false"
       uniform="false" />
    <inkscape:path-effect
       effect="bspline"
       id="path-effect78-1-7"
       is_visible="true"
       lpeversion="1.3"
       weight="33.333333"
       steps="2"
       helper_size="0"
       apply_no_weight="true"
       apply_with_weight="true"
       only_selected="false"
       uniform="false" />
    <inkscape:path-effect
       effect="bspline"
       id="path-effect135-5"
       is_visible="true"
       lpeversion="1.3"
       weight="33.333333"
       steps="2"
       helper_size="0"
       apply_no_weight="true"
       apply_with_weight="true"
       only_selected="false"
       uniform="false" />
    <inkscape:path-effect
       effect="bspline"
       id="path-effect136-6"
       is_visible="true"
       lpeversion="1.3"
       weight="33.333333"
       steps="2"
       helper_size="0"
       apply_no_weight="true"
       apply_with_weight="true"
       only_selected="false"
       uniform="false" />
    <inkscape:path-effect
       effect="bspline"
       id="path-effect207-9"
       is_visible="true"
       lpeversion="1.3"
       weight="33.333333"
       steps="2"
       helper_size="0"
       apply_no_weight="true"
       apply_with_weight="true"
       only_selected="false"
       uniform="false" />
    <clipPath
       clipPathUnits="userSpaceOnUse"
       id="clipPath94-6">
      <path
         id="path95-0"
         style="fill:#ff0000;fill-opacity:1;fill-rule:nonzero;stroke:none;stroke-width:0.264583"
         d="m 41.539524,87.048079 v 57.317431 h 26.53275 c -0.05654,-2.15073 -0.06778,-4.30173 -0.01188,-6.45283 0.02738,-1.09592 0.05098,-2.19345 0.158647,-3.28508 0.02498,-0.25316 0.07566,-0.47388 0.145211,-0.66455 -0.104029,-1.09471 -0.169756,-2.19297 -0.216008,-3.29179 -0.115242,-2.16005 0.08703,-4.49091 1.699122,-6.12779 0.448083,-0.45498 1.01732,-0.77204 1.526006,-1.15807 0.646829,-0.21079 1.267581,-0.53218 1.940449,-0.63252 0.113977,-0.017 0.231235,-0.0175 0.346231,-0.0295 -0.245092,-1.49857 -0.158996,-3.01963 0.525552,-4.55269 0.268933,-0.41899 0.481624,-0.87963 0.806667,-1.25677 0.136152,-0.15797 0.283996,-0.29447 0.430983,-0.43202 -0.04658,-0.0805 -0.09468,-0.1599 -0.135909,-0.24443 -0.298461,-0.61199 -0.363508,-1.31215 -0.545187,-1.96835 0.194442,-0.73766 0.23877,-1.53275 0.583427,-2.2133 0.310706,-0.61351 0.782045,-1.09098 1.328084,-1.49397 -0.515244,-1.07691 -1.496068,-2.04525 -1.518253,-3.23701 -0.04709,-2.52988 2.878267,-3.2687 4.873088,-3.5848 -1.171901,-2.7629 0.734531,-5.223586 3.191018,-6.221322 1.5001,-0.440219 3.018263,-0.839658 4.594553,-0.849561 0.204605,-0.01312 0.408337,-0.036 0.612881,-0.05064 1.349438,-1.186651 3.0544,-1.82362 4.690155,-2.506308 0.738624,-0.29617 0.887941,-0.354629 1.105357,-0.440799 0.114163,-0.162914 0.234061,-0.322035 0.360702,-0.476459 V 87.04804 Z m 27.539405,30.052951 c 0.164224,7.9e-4 0.328337,0.008 0.492477,0.0186 0.344882,0.0326 0.681551,0.12229 1.004072,0.2465 0.198393,0.0816 0.357288,0.21091 0.476975,0.38705 0.07005,0.13077 0.08172,0.23686 0.03928,0.34675 0.276876,-0.0818 0.408498,0.21495 0.09973,0.39946 -0.01834,0.011 -0.03707,0.0202 -0.05374,0.0336 -0.06112,0.0464 -0.115295,0.10241 -0.189135,0.12971 -0.04557,0.0215 -0.09117,0.0426 -0.136943,0.0636 -0.0019,0.0298 -0.0052,0.0597 -0.01035,0.0894 -0.03716,0.18651 -0.08584,0.37237 -0.189653,0.53433 -0.06144,0.0785 -0.117415,0.1765 -0.248047,0.1633 -0.210794,-0.0212 -0.231026,-0.19486 -0.225825,-0.34778 0.0065,-0.0775 0.0145,-0.15505 0.02582,-0.23203 -0.0647,0.006 -0.129464,0.006 -0.195337,0.005 -0.07818,-7e-5 -0.156435,-1.8e-4 -0.234611,-5.3e-4 -0.114255,0.0322 -0.231974,0.0487 -0.349848,0.061 -0.129929,0.0177 -0.257977,0.0442 -0.388091,0.061 -0.154538,0.0188 -0.310137,0.0271 -0.465606,0.0331 -0.154961,0.009 -0.309946,0.004 -0.464569,-0.007 -0.128172,-0.0114 -0.251743,-0.0485 -0.373623,-0.0879 -0.0711,-0.0242 -0.145235,-0.0365 -0.219623,-0.0455 -0.07574,-0.008 -0.151823,-0.009 -0.227893,-0.0114 -0.115906,0.003 -0.230167,-0.0109 -0.344681,-0.0269 -0.156149,-0.0168 -0.298021,-0.0472 -0.433567,-0.12867 -0.05047,-0.0379 -0.08997,-0.0818 -0.120923,-0.13074 -0.0345,0.11258 -0.0645,0.22818 -0.06821,0.3452 -0.01312,0.40401 -0.413258,0.40403 -0.40876,-5.3e-4 0.0021,-0.19403 0.06075,-0.3833 0.118337,-0.56689 0.07088,-0.20207 0.148011,-0.40261 0.258385,-0.58653 0.18288,-0.24272 0.47191,-0.34573 0.748792,-0.44183 0.410577,-0.13494 0.837321,-0.20432 1.265036,-0.25632 0.272508,-0.0341 0.546402,-0.048 0.820105,-0.0465 z m 0.0011,0.40927 c -0.257654,-0.002 -0.514979,0.0114 -0.77153,0.0434 -0.399169,0.0483 -0.797872,0.11169 -1.181322,0.23668 -0.09703,0.0332 -0.198972,0.0666 -0.294556,0.11059 0.0019,2.4e-4 0.0034,2.6e-4 0.0052,5.3e-4 0.07149,0.0103 0.142301,0.024 0.211873,0.0424 0.290967,0.0187 0.575347,0.0851 0.858345,0.15193 0.225915,0.0488 0.449771,0.10629 0.675929,0.15399 0.174945,0.0317 0.350964,0.0584 0.527616,0.0786 0.08417,0.008 0.168516,0.0167 0.252698,0.0248 0.0039,-10e-4 0.008,-0.002 0.01188,-0.003 0.192915,-0.0523 0.387927,-0.10108 0.58601,-0.12918 0.149613,-0.0205 0.305043,-0.0397 0.451135,-0.0124 0.02772,-0.0338 0.05795,-0.065 0.09457,-0.091 0.0621,-0.0449 0.131643,-0.0804 0.186552,-0.13436 0.01635,-0.009 0.008,0.002 0.01394,0.0181 0.0028,0.007 0.02704,-0.0262 0.0031,-0.0222 -0.06771,-0.10852 -0.166269,-0.1802 -0.283702,-0.231 -0.283533,-0.11077 -0.580863,-0.18924 -0.884184,-0.22014 -0.154514,-0.0106 -0.308946,-0.0167 -0.463537,-0.0176 z m 1.462961,1.71049 c 0.0035,0.0208 0.0077,0.0456 0.0067,0.0377 -0.0016,-0.0127 0.0024,-0.0287 -0.0067,-0.0377 z m 24.020237,4.03955 c -1.018682,1.75772 -2.088369,3.48805 -3.255097,5.14904 -0.02781,0.33928 -0.130881,0.68136 -0.271817,0.99942 -0.484968,0.83102 -1.077309,1.59211 -1.765268,2.26653 -0.688298,0.70517 -1.405096,1.38021 -2.171962,2.00039 -0.03664,0.0301 -0.0715,0.0622 -0.108003,0.0925 -1.312775,1.55631 -2.594988,3.13948 -3.730522,4.83019 -1.209058,1.67477 -1.142349,1.64917 -2.852539,0.30438 -0.09297,0.0534 -0.186775,0.10533 -0.28112,0.15658 0.05226,0.28822 0.09874,0.57887 0.129191,0.87591 0.06872,1.60826 -0.352975,3.07827 -1.078487,4.43229 h 15.385624 z" />
    </clipPath>
    <clipPath
       clipPathUnits="userSpaceOnUse"
       id="clipPath202-0">
      <path
         id="path203-0"
         style="fill:#ff0000;fill-opacity:1;fill-rule:nonzero;stroke:none;stroke-width:0.264583"
         d="m 58.9964,108.28538 v 11.22774 h 4.240567 c -0.02172,-0.11259 0.02027,-0.2616 0.160197,-0.42116 0.09127,-0.10408 0.190532,-0.20342 0.264584,-0.32092 0.135911,-0.19009 0.286004,-0.36901 0.422195,-0.55913 0.180999,-0.24803 0.36884,-0.49108 0.560174,-0.73123 0.01267,-0.0151 0.02471,-0.0307 0.03721,-0.046 0.08883,-0.37163 0.223676,-0.71071 0.551389,-0.94516 0.009,0.003 0.01836,0.005 0.02739,0.008 0.06552,-0.0619 0.13779,-0.0956 0.206706,-0.10025 0.123677,-0.008 0.233632,0.0737 0.27182,0.23203 0.143258,0.0394 0.284006,0.0839 0.415478,0.14986 0.23591,0.0384 0.466055,0.14462 0.700733,0.19844 0.01225,0.0382 0.02646,0.0759 0.04031,0.11368 0.08998,-0.5604 0.132157,-1.13223 0.33383,-1.66604 0.177507,-0.29203 0.401267,-0.45776 0.66456,-0.46199 0.157974,-0.003 0.329864,0.0532 0.515212,0.17466 0.178734,0.1171 0.26175,0.32933 0.311092,0.54209 0.09304,0.0285 0.193357,0.0995 0.288356,0.22841 0.24148,0.32768 0.409432,0.70297 0.58756,1.06712 0.03856,0.0787 0.07504,0.15795 0.111104,0.23771 0.472644,0.6986 0.853538,1.45717 1.242819,2.204 0.0313,0.0641 0.02246,0.0459 0.04703,0.0961 h 5.691642 V 108.2856 Z m 9.248013,9.88157 c -0.0287,0.0142 -0.02649,0.002 -0.03359,0.0305 0.01675,-0.002 0.03336,-0.004 0.05013,-0.005 -0.0055,-0.008 -0.01103,-0.0169 -0.01654,-0.0253 z m -3.916558,0.81907 c -0.03869,0.0503 -0.07768,0.10033 -0.115237,0.15141 -0.08918,0.13089 -0.189415,0.25314 -0.299207,0.36742 -0.0028,0.003 -0.0055,0.005 -0.0083,0.008 h 0.659392 c -0.0056,-0.0921 -0.0045,-0.18349 -0.0036,-0.26717 2.64e-4,-0.046 5.29e-4,-0.092 0.0011,-0.13797 -0.03899,0.008 -0.07363,-0.006 -0.08888,-0.0403 -0.0558,-0.01 -0.10614,-0.0377 -0.145211,-0.0811 z" />
    </clipPath>
    <inkscape:path-effect
       effect="bspline"
       id="path-effect78-2"
       is_visible="true"
       lpeversion="1.3"
       weight="33.333333"
       steps="2"
       helper_size="0"
       apply_no_weight="true"
       apply_with_weight="true"
       only_selected="false"
       uniform="false" />
    <inkscape:path-effect
       effect="bspline"
       id="path-effect78-1-5"
       is_visible="true"
       lpeversion="1.3"
       weight="33.333333"
       steps="2"
       helper_size="0"
       apply_no_weight="true"
       apply_with_weight="true"
       only_selected="false"
       uniform="false" />
    <inkscape:path-effect
       effect="bspline"
       id="path-effect135-2"
       is_visible="true"
       lpeversion="1.3"
       weight="33.333333"
       steps="2"
       helper_size="0"
       apply_no_weight="true"
       apply_with_weight="true"
       only_selected="false"
       uniform="false" />
    <inkscape:path-effect
       effect="bspline"
       id="path-effect136-0"
       is_visible="true"
       lpeversion="1.3"
       weight="33.333333"
       steps="2"
       helper_size="0"
       apply_no_weight="true"
       apply_with_weight="true"
       only_selected="false"
       uniform="false" />
    <inkscape:path-effect
       effect="bspline"
       id="path-effect207-7"
       is_visible="true"
       lpeversion="1.3"
       weight="33.333333"
       steps="2"
       helper_size="0"
       apply_no_weight="true"
       apply_with_weight="true"
       only_selected="false"
       uniform="false" />
    <clipPath
       clipPathUnits="userSpaceOnUse"
       id="clipPath94-7">
      <path
         id="path95-8"
         style="fill:#ff0000;fill-opacity:1;fill-rule:nonzero;stroke:none;stroke-width:0.264583"
         d="m 41.539524,87.048079 v 57.317431 h 26.53275 c -0.05654,-2.15073 -0.06778,-4.30173 -0.01188,-6.45283 0.02738,-1.09592 0.05098,-2.19345 0.158647,-3.28508 0.02498,-0.25316 0.07566,-0.47388 0.145211,-0.66455 -0.104029,-1.09471 -0.169756,-2.19297 -0.216008,-3.29179 -0.115242,-2.16005 0.08703,-4.49091 1.699122,-6.12779 0.448083,-0.45498 1.01732,-0.77204 1.526006,-1.15807 0.646829,-0.21079 1.267581,-0.53218 1.940449,-0.63252 0.113977,-0.017 0.231235,-0.0175 0.346231,-0.0295 -0.245092,-1.49857 -0.158996,-3.01963 0.525552,-4.55269 0.268933,-0.41899 0.481624,-0.87963 0.806667,-1.25677 0.136152,-0.15797 0.283996,-0.29447 0.430983,-0.43202 -0.04658,-0.0805 -0.09468,-0.1599 -0.135909,-0.24443 -0.298461,-0.61199 -0.363508,-1.31215 -0.545187,-1.96835 0.194442,-0.73766 0.23877,-1.53275 0.583427,-2.2133 0.310706,-0.61351 0.782045,-1.09098 1.328084,-1.49397 -0.515244,-1.07691 -1.496068,-2.04525 -1.518253,-3.23701 -0.04709,-2.52988 2.878267,-3.2687 4.873088,-3.5848 -1.171901,-2.7629 0.734531,-5.223586 3.191018,-6.221322 1.5001,-0.440219 3.018263,-0.839658 4.594553,-0.849561 0.204605,-0.01312 0.408337,-0.036 0.612881,-0.05064 1.349438,-1.186651 3.0544,-1.82362 4.690155,-2.506308 0.738624,-0.29617 0.887941,-0.354629 1.105357,-0.440799 0.114163,-0.162914 0.234061,-0.322035 0.360702,-0.476459 V 87.04804 Z m 27.539405,30.052951 c 0.164224,7.9e-4 0.328337,0.008 0.492477,0.0186 0.344882,0.0326 0.681551,0.12229 1.004072,0.2465 0.198393,0.0816 0.357288,0.21091 0.476975,0.38705 0.07005,0.13077 0.08172,0.23686 0.03928,0.34675 0.276876,-0.0818 0.408498,0.21495 0.09973,0.39946 -0.01834,0.011 -0.03707,0.0202 -0.05374,0.0336 -0.06112,0.0464 -0.115295,0.10241 -0.189135,0.12971 -0.04557,0.0215 -0.09117,0.0426 -0.136943,0.0636 -0.0019,0.0298 -0.0052,0.0597 -0.01035,0.0894 -0.03716,0.18651 -0.08584,0.37237 -0.189653,0.53433 -0.06144,0.0785 -0.117415,0.1765 -0.248047,0.1633 -0.210794,-0.0212 -0.231026,-0.19486 -0.225825,-0.34778 0.0065,-0.0775 0.0145,-0.15505 0.02582,-0.23203 -0.0647,0.006 -0.129464,0.006 -0.195337,0.005 -0.07818,-7e-5 -0.156435,-1.8e-4 -0.234611,-5.3e-4 -0.114255,0.0322 -0.231974,0.0487 -0.349848,0.061 -0.129929,0.0177 -0.257977,0.0442 -0.388091,0.061 -0.154538,0.0188 -0.310137,0.0271 -0.465606,0.0331 -0.154961,0.009 -0.309946,0.004 -0.464569,-0.007 -0.128172,-0.0114 -0.251743,-0.0485 -0.373623,-0.0879 -0.0711,-0.0242 -0.145235,-0.0365 -0.219623,-0.0455 -0.07574,-0.008 -0.151823,-0.009 -0.227893,-0.0114 -0.115906,0.003 -0.230167,-0.0109 -0.344681,-0.0269 -0.156149,-0.0168 -0.298021,-0.0472 -0.433567,-0.12867 -0.05047,-0.0379 -0.08997,-0.0818 -0.120923,-0.13074 -0.0345,0.11258 -0.0645,0.22818 -0.06821,0.3452 -0.01312,0.40401 -0.413258,0.40403 -0.40876,-5.3e-4 0.0021,-0.19403 0.06075,-0.3833 0.118337,-0.56689 0.07088,-0.20207 0.148011,-0.40261 0.258385,-0.58653 0.18288,-0.24272 0.47191,-0.34573 0.748792,-0.44183 0.410577,-0.13494 0.837321,-0.20432 1.265036,-0.25632 0.272508,-0.0341 0.546402,-0.048 0.820105,-0.0465 z m 0.0011,0.40927 c -0.257654,-0.002 -0.514979,0.0114 -0.77153,0.0434 -0.399169,0.0483 -0.797872,0.11169 -1.181322,0.23668 -0.09703,0.0332 -0.198972,0.0666 -0.294556,0.11059 0.0019,2.4e-4 0.0034,2.6e-4 0.0052,5.3e-4 0.07149,0.0103 0.142301,0.024 0.211873,0.0424 0.290967,0.0187 0.575347,0.0851 0.858345,0.15193 0.225915,0.0488 0.449771,0.10629 0.675929,0.15399 0.174945,0.0317 0.350964,0.0584 0.527616,0.0786 0.08417,0.008 0.168516,0.0167 0.252698,0.0248 0.0039,-10e-4 0.008,-0.002 0.01188,-0.003 0.192915,-0.0523 0.387927,-0.10108 0.58601,-0.12918 0.149613,-0.0205 0.305043,-0.0397 0.451135,-0.0124 0.02772,-0.0338 0.05795,-0.065 0.09457,-0.091 0.0621,-0.0449 0.131643,-0.0804 0.186552,-0.13436 0.01635,-0.009 0.008,0.002 0.01394,0.0181 0.0028,0.007 0.02704,-0.0262 0.0031,-0.0222 -0.06771,-0.10852 -0.166269,-0.1802 -0.283702,-0.231 -0.283533,-0.11077 -0.580863,-0.18924 -0.884184,-0.22014 -0.154514,-0.0106 -0.308946,-0.0167 -0.463537,-0.0176 z m 1.462961,1.71049 c 0.0035,0.0208 0.0077,0.0456 0.0067,0.0377 -0.0016,-0.0127 0.0024,-0.0287 -0.0067,-0.0377 z m 24.020237,4.03955 c -1.018682,1.75772 -2.088369,3.48805 -3.255097,5.14904 -0.02781,0.33928 -0.130881,0.68136 -0.271817,0.99942 -0.484968,0.83102 -1.077309,1.59211 -1.765268,2.26653 -0.688298,0.70517 -1.405096,1.38021 -2.171962,2.00039 -0.03664,0.0301 -0.0715,0.0622 -0.108003,0.0925 -1.312775,1.55631 -2.594988,3.13948 -3.730522,4.83019 -1.209058,1.67477 -1.142349,1.64917 -2.852539,0.30438 -0.09297,0.0534 -0.186775,0.10533 -0.28112,0.15658 0.05226,0.28822 0.09874,0.57887 0.129191,0.87591 0.06872,1.60826 -0.352975,3.07827 -1.078487,4.43229 h 15.385624 z" />
    </clipPath>
    <clipPath
       clipPathUnits="userSpaceOnUse"
       id="clipPath202-00">
      <path
         id="path203-5"
         style="fill:#ff0000;fill-opacity:1;fill-rule:nonzero;stroke:none;stroke-width:0.264583"
         d="m 58.9964,108.28538 v 11.22774 h 4.240567 c -0.02172,-0.11259 0.02027,-0.2616 0.160197,-0.42116 0.09127,-0.10408 0.190532,-0.20342 0.264584,-0.32092 0.135911,-0.19009 0.286004,-0.36901 0.422195,-0.55913 0.180999,-0.24803 0.36884,-0.49108 0.560174,-0.73123 0.01267,-0.0151 0.02471,-0.0307 0.03721,-0.046 0.08883,-0.37163 0.223676,-0.71071 0.551389,-0.94516 0.009,0.003 0.01836,0.005 0.02739,0.008 0.06552,-0.0619 0.13779,-0.0956 0.206706,-0.10025 0.123677,-0.008 0.233632,0.0737 0.27182,0.23203 0.143258,0.0394 0.284006,0.0839 0.415478,0.14986 0.23591,0.0384 0.466055,0.14462 0.700733,0.19844 0.01225,0.0382 0.02646,0.0759 0.04031,0.11368 0.08998,-0.5604 0.132157,-1.13223 0.33383,-1.66604 0.177507,-0.29203 0.401267,-0.45776 0.66456,-0.46199 0.157974,-0.003 0.329864,0.0532 0.515212,0.17466 0.178734,0.1171 0.26175,0.32933 0.311092,0.54209 0.09304,0.0285 0.193357,0.0995 0.288356,0.22841 0.24148,0.32768 0.409432,0.70297 0.58756,1.06712 0.03856,0.0787 0.07504,0.15795 0.111104,0.23771 0.472644,0.6986 0.853538,1.45717 1.242819,2.204 0.0313,0.0641 0.02246,0.0459 0.04703,0.0961 h 5.691642 V 108.2856 Z m 9.248013,9.88157 c -0.0287,0.0142 -0.02649,0.002 -0.03359,0.0305 0.01675,-0.002 0.03336,-0.004 0.05013,-0.005 -0.0055,-0.008 -0.01103,-0.0169 -0.01654,-0.0253 z m -3.916558,0.81907 c -0.03869,0.0503 -0.07768,0.10033 -0.115237,0.15141 -0.08918,0.13089 -0.189415,0.25314 -0.299207,0.36742 -0.0028,0.003 -0.0055,0.005 -0.0083,0.008 h 0.659392 c -0.0056,-0.0921 -0.0045,-0.18349 -0.0036,-0.26717 2.64e-4,-0.046 5.29e-4,-0.092 0.0011,-0.13797 -0.03899,0.008 -0.07363,-0.006 -0.08888,-0.0403 -0.0558,-0.01 -0.10614,-0.0377 -0.145211,-0.0811 z" />
    </clipPath>
    <inkscape:path-effect
       effect="bspline"
       id="path-effect78-8"
       is_visible="true"
       lpeversion="1.3"
       weight="33.333333"
       steps="2"
       helper_size="0"
       apply_no_weight="true"
       apply_with_weight="true"
       only_selected="false"
       uniform="false" />
    <inkscape:path-effect
       effect="bspline"
       id="path-effect78-1-9"
       is_visible="true"
       lpeversion="1.3"
       weight="33.333333"
       steps="2"
       helper_size="0"
       apply_no_weight="true"
       apply_with_weight="true"
       only_selected="false"
       uniform="false" />
    <inkscape:path-effect
       effect="bspline"
       id="path-effect135-26"
       is_visible="true"
       lpeversion="1.3"
       weight="33.333333"
       steps="2"
       helper_size="0"
       apply_no_weight="true"
       apply_with_weight="true"
       only_selected="false"
       uniform="false" />
    <inkscape:path-effect
       effect="bspline"
       id="path-effect136-9"
       is_visible="true"
       lpeversion="1.3"
       weight="33.333333"
       steps="2"
       helper_size="0"
       apply_no_weight="true"
       apply_with_weight="true"
       only_selected="false"
       uniform="false" />
    <inkscape:path-effect
       effect="bspline"
       id="path-effect207-76"
       is_visible="true"
       lpeversion="1.3"
       weight="33.333333"
       steps="2"
       helper_size="0"
       apply_no_weight="true"
       apply_with_weight="true"
       only_selected="false"
       uniform="false" />
    <clipPath
       clipPathUnits="userSpaceOnUse"
       id="clipPath94-7-9">
      <path
         id="path95-8-5"
         style="fill:#ff0000;fill-opacity:1;fill-rule:nonzero;stroke:none;stroke-width:0.264583"
         d="m 41.539524,87.048079 v 57.317431 h 26.53275 c -0.05654,-2.15073 -0.06778,-4.30173 -0.01188,-6.45283 0.02738,-1.09592 0.05098,-2.19345 0.158647,-3.28508 0.02498,-0.25316 0.07566,-0.47388 0.145211,-0.66455 -0.104029,-1.09471 -0.169756,-2.19297 -0.216008,-3.29179 -0.115242,-2.16005 0.08703,-4.49091 1.699122,-6.12779 0.448083,-0.45498 1.01732,-0.77204 1.526006,-1.15807 0.646829,-0.21079 1.267581,-0.53218 1.940449,-0.63252 0.113977,-0.017 0.231235,-0.0175 0.346231,-0.0295 -0.245092,-1.49857 -0.158996,-3.01963 0.525552,-4.55269 0.268933,-0.41899 0.481624,-0.87963 0.806667,-1.25677 0.136152,-0.15797 0.283996,-0.29447 0.430983,-0.43202 -0.04658,-0.0805 -0.09468,-0.1599 -0.135909,-0.24443 -0.298461,-0.61199 -0.363508,-1.31215 -0.545187,-1.96835 0.194442,-0.73766 0.23877,-1.53275 0.583427,-2.2133 0.310706,-0.61351 0.782045,-1.09098 1.328084,-1.49397 -0.515244,-1.07691 -1.496068,-2.04525 -1.518253,-3.23701 -0.04709,-2.52988 2.878267,-3.2687 4.873088,-3.5848 -1.171901,-2.7629 0.734531,-5.223586 3.191018,-6.221322 1.5001,-0.440219 3.018263,-0.839658 4.594553,-0.849561 0.204605,-0.01312 0.408337,-0.036 0.612881,-0.05064 1.349438,-1.186651 3.0544,-1.82362 4.690155,-2.506308 0.738624,-0.29617 0.887941,-0.354629 1.105357,-0.440799 0.114163,-0.162914 0.234061,-0.322035 0.360702,-0.476459 V 87.04804 Z m 27.539405,30.052951 c 0.164224,7.9e-4 0.328337,0.008 0.492477,0.0186 0.344882,0.0326 0.681551,0.12229 1.004072,0.2465 0.198393,0.0816 0.357288,0.21091 0.476975,0.38705 0.07005,0.13077 0.08172,0.23686 0.03928,0.34675 0.276876,-0.0818 0.408498,0.21495 0.09973,0.39946 -0.01834,0.011 -0.03707,0.0202 -0.05374,0.0336 -0.06112,0.0464 -0.115295,0.10241 -0.189135,0.12971 -0.04557,0.0215 -0.09117,0.0426 -0.136943,0.0636 -0.0019,0.0298 -0.0052,0.0597 -0.01035,0.0894 -0.03716,0.18651 -0.08584,0.37237 -0.189653,0.53433 -0.06144,0.0785 -0.117415,0.1765 -0.248047,0.1633 -0.210794,-0.0212 -0.231026,-0.19486 -0.225825,-0.34778 0.0065,-0.0775 0.0145,-0.15505 0.02582,-0.23203 -0.0647,0.006 -0.129464,0.006 -0.195337,0.005 -0.07818,-7e-5 -0.156435,-1.8e-4 -0.234611,-5.3e-4 -0.114255,0.0322 -0.231974,0.0487 -0.349848,0.061 -0.129929,0.0177 -0.257977,0.0442 -0.388091,0.061 -0.154538,0.0188 -0.310137,0.0271 -0.465606,0.0331 -0.154961,0.009 -0.309946,0.004 -0.464569,-0.007 -0.128172,-0.0114 -0.251743,-0.0485 -0.373623,-0.0879 -0.0711,-0.0242 -0.145235,-0.0365 -0.219623,-0.0455 -0.07574,-0.008 -0.151823,-0.009 -0.227893,-0.0114 -0.115906,0.003 -0.230167,-0.0109 -0.344681,-0.0269 -0.156149,-0.0168 -0.298021,-0.0472 -0.433567,-0.12867 -0.05047,-0.0379 -0.08997,-0.0818 -0.120923,-0.13074 -0.0345,0.11258 -0.0645,0.22818 -0.06821,0.3452 -0.01312,0.40401 -0.413258,0.40403 -0.40876,-5.3e-4 0.0021,-0.19403 0.06075,-0.3833 0.118337,-0.56689 0.07088,-0.20207 0.148011,-0.40261 0.258385,-0.58653 0.18288,-0.24272 0.47191,-0.34573 0.748792,-0.44183 0.410577,-0.13494 0.837321,-0.20432 1.265036,-0.25632 0.272508,-0.0341 0.546402,-0.048 0.820105,-0.0465 z m 0.0011,0.40927 c -0.257654,-0.002 -0.514979,0.0114 -0.77153,0.0434 -0.399169,0.0483 -0.797872,0.11169 -1.181322,0.23668 -0.09703,0.0332 -0.198972,0.0666 -0.294556,0.11059 0.0019,2.4e-4 0.0034,2.6e-4 0.0052,5.3e-4 0.07149,0.0103 0.142301,0.024 0.211873,0.0424 0.290967,0.0187 0.575347,0.0851 0.858345,0.15193 0.225915,0.0488 0.449771,0.10629 0.675929,0.15399 0.174945,0.0317 0.350964,0.0584 0.527616,0.0786 0.08417,0.008 0.168516,0.0167 0.252698,0.0248 0.0039,-10e-4 0.008,-0.002 0.01188,-0.003 0.192915,-0.0523 0.387927,-0.10108 0.58601,-0.12918 0.149613,-0.0205 0.305043,-0.0397 0.451135,-0.0124 0.02772,-0.0338 0.05795,-0.065 0.09457,-0.091 0.0621,-0.0449 0.131643,-0.0804 0.186552,-0.13436 0.01635,-0.009 0.008,0.002 0.01394,0.0181 0.0028,0.007 0.02704,-0.0262 0.0031,-0.0222 -0.06771,-0.10852 -0.166269,-0.1802 -0.283702,-0.231 -0.283533,-0.11077 -0.580863,-0.18924 -0.884184,-0.22014 -0.154514,-0.0106 -0.308946,-0.0167 -0.463537,-0.0176 z m 1.462961,1.71049 c 0.0035,0.0208 0.0077,0.0456 0.0067,0.0377 -0.0016,-0.0127 0.0024,-0.0287 -0.0067,-0.0377 z m 24.020237,4.03955 c -1.018682,1.75772 -2.088369,3.48805 -3.255097,5.14904 -0.02781,0.33928 -0.130881,0.68136 -0.271817,0.99942 -0.484968,0.83102 -1.077309,1.59211 -1.765268,2.26653 -0.688298,0.70517 -1.405096,1.38021 -2.171962,2.00039 -0.03664,0.0301 -0.0715,0.0622 -0.108003,0.0925 -1.312775,1.55631 -2.594988,3.13948 -3.730522,4.83019 -1.209058,1.67477 -1.142349,1.64917 -2.852539,0.30438 -0.09297,0.0534 -0.186775,0.10533 -0.28112,0.15658 0.05226,0.28822 0.09874,0.57887 0.129191,0.87591 0.06872,1.60826 -0.352975,3.07827 -1.078487,4.43229 h 15.385624 z" />
    </clipPath>
    <inkscape:path-effect
       effect="bspline"
       id="path-effect78-8-6"
       is_visible="true"
       lpeversion="1.3"
       weight="33.333333"
       steps="2"
       helper_size="0"
       apply_no_weight="true"
       apply_with_weight="true"
       only_selected="false"
       uniform="false" />
    <inkscape:path-effect
       effect="bspline"
       id="path-effect78-1-9-7"
       is_visible="true"
       lpeversion="1.3"
       weight="33.333333"
       steps="2"
       helper_size="0"
       apply_no_weight="true"
       apply_with_weight="true"
       only_selected="false"
       uniform="false" />
    <inkscape:path-effect
       effect="bspline"
       id="path-effect135-26-0"
       is_visible="true"
       lpeversion="1.3"
       weight="33.333333"
       steps="2"
       helper_size="0"
       apply_no_weight="true"
       apply_with_weight="true"
       only_selected="false"
       uniform="false" />
    <clipPath
       clipPathUnits="userSpaceOnUse"
       id="clipPath94-7-3">
      <path
         id="path95-8-2"
         style="fill:#ff0000;fill-opacity:1;fill-rule:nonzero;stroke:none;stroke-width:0.264583"
         d="m 41.539524,87.048079 v 57.317431 h 26.53275 c -0.05654,-2.15073 -0.06778,-4.30173 -0.01188,-6.45283 0.02738,-1.09592 0.05098,-2.19345 0.158647,-3.28508 0.02498,-0.25316 0.07566,-0.47388 0.145211,-0.66455 -0.104029,-1.09471 -0.169756,-2.19297 -0.216008,-3.29179 -0.115242,-2.16005 0.08703,-4.49091 1.699122,-6.12779 0.448083,-0.45498 1.01732,-0.77204 1.526006,-1.15807 0.646829,-0.21079 1.267581,-0.53218 1.940449,-0.63252 0.113977,-0.017 0.231235,-0.0175 0.346231,-0.0295 -0.245092,-1.49857 -0.158996,-3.01963 0.525552,-4.55269 0.268933,-0.41899 0.481624,-0.87963 0.806667,-1.25677 0.136152,-0.15797 0.283996,-0.29447 0.430983,-0.43202 -0.04658,-0.0805 -0.09468,-0.1599 -0.135909,-0.24443 -0.298461,-0.61199 -0.363508,-1.31215 -0.545187,-1.96835 0.194442,-0.73766 0.23877,-1.53275 0.583427,-2.2133 0.310706,-0.61351 0.782045,-1.09098 1.328084,-1.49397 -0.515244,-1.07691 -1.496068,-2.04525 -1.518253,-3.23701 -0.04709,-2.52988 2.878267,-3.2687 4.873088,-3.5848 -1.171901,-2.7629 0.734531,-5.223586 3.191018,-6.221322 1.5001,-0.440219 3.018263,-0.839658 4.594553,-0.849561 0.204605,-0.01312 0.408337,-0.036 0.612881,-0.05064 1.349438,-1.186651 3.0544,-1.82362 4.690155,-2.506308 0.738624,-0.29617 0.887941,-0.354629 1.105357,-0.440799 0.114163,-0.162914 0.234061,-0.322035 0.360702,-0.476459 V 87.04804 Z m 27.539405,30.052951 c 0.164224,7.9e-4 0.328337,0.008 0.492477,0.0186 0.344882,0.0326 0.681551,0.12229 1.004072,0.2465 0.198393,0.0816 0.357288,0.21091 0.476975,0.38705 0.07005,0.13077 0.08172,0.23686 0.03928,0.34675 0.276876,-0.0818 0.408498,0.21495 0.09973,0.39946 -0.01834,0.011 -0.03707,0.0202 -0.05374,0.0336 -0.06112,0.0464 -0.115295,0.10241 -0.189135,0.12971 -0.04557,0.0215 -0.09117,0.0426 -0.136943,0.0636 -0.0019,0.0298 -0.0052,0.0597 -0.01035,0.0894 -0.03716,0.18651 -0.08584,0.37237 -0.189653,0.53433 -0.06144,0.0785 -0.117415,0.1765 -0.248047,0.1633 -0.210794,-0.0212 -0.231026,-0.19486 -0.225825,-0.34778 0.0065,-0.0775 0.0145,-0.15505 0.02582,-0.23203 -0.0647,0.006 -0.129464,0.006 -0.195337,0.005 -0.07818,-7e-5 -0.156435,-1.8e-4 -0.234611,-5.3e-4 -0.114255,0.0322 -0.231974,0.0487 -0.349848,0.061 -0.129929,0.0177 -0.257977,0.0442 -0.388091,0.061 -0.154538,0.0188 -0.310137,0.0271 -0.465606,0.0331 -0.154961,0.009 -0.309946,0.004 -0.464569,-0.007 -0.128172,-0.0114 -0.251743,-0.0485 -0.373623,-0.0879 -0.0711,-0.0242 -0.145235,-0.0365 -0.219623,-0.0455 -0.07574,-0.008 -0.151823,-0.009 -0.227893,-0.0114 -0.115906,0.003 -0.230167,-0.0109 -0.344681,-0.0269 -0.156149,-0.0168 -0.298021,-0.0472 -0.433567,-0.12867 -0.05047,-0.0379 -0.08997,-0.0818 -0.120923,-0.13074 -0.0345,0.11258 -0.0645,0.22818 -0.06821,0.3452 -0.01312,0.40401 -0.413258,0.40403 -0.40876,-5.3e-4 0.0021,-0.19403 0.06075,-0.3833 0.118337,-0.56689 0.07088,-0.20207 0.148011,-0.40261 0.258385,-0.58653 0.18288,-0.24272 0.47191,-0.34573 0.748792,-0.44183 0.410577,-0.13494 0.837321,-0.20432 1.265036,-0.25632 0.272508,-0.0341 0.546402,-0.048 0.820105,-0.0465 z m 0.0011,0.40927 c -0.257654,-0.002 -0.514979,0.0114 -0.77153,0.0434 -0.399169,0.0483 -0.797872,0.11169 -1.181322,0.23668 -0.09703,0.0332 -0.198972,0.0666 -0.294556,0.11059 0.0019,2.4e-4 0.0034,2.6e-4 0.0052,5.3e-4 0.07149,0.0103 0.142301,0.024 0.211873,0.0424 0.290967,0.0187 0.575347,0.0851 0.858345,0.15193 0.225915,0.0488 0.449771,0.10629 0.675929,0.15399 0.174945,0.0317 0.350964,0.0584 0.527616,0.0786 0.08417,0.008 0.168516,0.0167 0.252698,0.0248 0.0039,-10e-4 0.008,-0.002 0.01188,-0.003 0.192915,-0.0523 0.387927,-0.10108 0.58601,-0.12918 0.149613,-0.0205 0.305043,-0.0397 0.451135,-0.0124 0.02772,-0.0338 0.05795,-0.065 0.09457,-0.091 0.0621,-0.0449 0.131643,-0.0804 0.186552,-0.13436 0.01635,-0.009 0.008,0.002 0.01394,0.0181 0.0028,0.007 0.02704,-0.0262 0.0031,-0.0222 -0.06771,-0.10852 -0.166269,-0.1802 -0.283702,-0.231 -0.283533,-0.11077 -0.580863,-0.18924 -0.884184,-0.22014 -0.154514,-0.0106 -0.308946,-0.0167 -0.463537,-0.0176 z m 1.462961,1.71049 c 0.0035,0.0208 0.0077,0.0456 0.0067,0.0377 -0.0016,-0.0127 0.0024,-0.0287 -0.0067,-0.0377 z m 24.020237,4.03955 c -1.018682,1.75772 -2.088369,3.48805 -3.255097,5.14904 -0.02781,0.33928 -0.130881,0.68136 -0.271817,0.99942 -0.484968,0.83102 -1.077309,1.59211 -1.765268,2.26653 -0.688298,0.70517 -1.405096,1.38021 -2.171962,2.00039 -0.03664,0.0301 -0.0715,0.0622 -0.108003,0.0925 -1.312775,1.55631 -2.594988,3.13948 -3.730522,4.83019 -1.209058,1.67477 -1.142349,1.64917 -2.852539,0.30438 -0.09297,0.0534 -0.186775,0.10533 -0.28112,0.15658 0.05226,0.28822 0.09874,0.57887 0.129191,0.87591 0.06872,1.60826 -0.352975,3.07827 -1.078487,4.43229 h 15.385624 z" />
    </clipPath>
    <inkscape:path-effect
       effect="bspline"
       id="path-effect78-8-7"
       is_visible="true"
       lpeversion="1.3"
       weight="33.333333"
       steps="2"
       helper_size="0"
       apply_no_weight="true"
       apply_with_weight="true"
       only_selected="false"
       uniform="false" />
    <inkscape:path-effect
       effect="bspline"
       id="path-effect78-1-9-72"
       is_visible="true"
       lpeversion="1.3"
       weight="33.333333"
       steps="2"
       helper_size="0"
       apply_no_weight="true"
       apply_with_weight="true"
       only_selected="false"
       uniform="false" />
    <inkscape:path-effect
       effect="bspline"
       id="path-effect135-26-2"
       is_visible="true"
       lpeversion="1.3"
       weight="33.333333"
       steps="2"
       helper_size="0"
       apply_no_weight="true"
       apply_with_weight="true"
       only_selected="false"
       uniform="false" />
    <clipPath
       clipPathUnits="userSpaceOnUse"
       id="clipPath94-7-5">
      <path
         id="path95-8-1"
         style="fill:#ff0000;fill-opacity:1;fill-rule:nonzero;stroke:none;stroke-width:0.264583"
         d="m 41.539524,87.048079 v 57.317431 h 26.53275 c -0.05654,-2.15073 -0.06778,-4.30173 -0.01188,-6.45283 0.02738,-1.09592 0.05098,-2.19345 0.158647,-3.28508 0.02498,-0.25316 0.07566,-0.47388 0.145211,-0.66455 -0.104029,-1.09471 -0.169756,-2.19297 -0.216008,-3.29179 -0.115242,-2.16005 0.08703,-4.49091 1.699122,-6.12779 0.448083,-0.45498 1.01732,-0.77204 1.526006,-1.15807 0.646829,-0.21079 1.267581,-0.53218 1.940449,-0.63252 0.113977,-0.017 0.231235,-0.0175 0.346231,-0.0295 -0.245092,-1.49857 -0.158996,-3.01963 0.525552,-4.55269 0.268933,-0.41899 0.481624,-0.87963 0.806667,-1.25677 0.136152,-0.15797 0.283996,-0.29447 0.430983,-0.43202 -0.04658,-0.0805 -0.09468,-0.1599 -0.135909,-0.24443 -0.298461,-0.61199 -0.363508,-1.31215 -0.545187,-1.96835 0.194442,-0.73766 0.23877,-1.53275 0.583427,-2.2133 0.310706,-0.61351 0.782045,-1.09098 1.328084,-1.49397 -0.515244,-1.07691 -1.496068,-2.04525 -1.518253,-3.23701 -0.04709,-2.52988 2.878267,-3.2687 4.873088,-3.5848 -1.171901,-2.7629 0.734531,-5.223586 3.191018,-6.221322 1.5001,-0.440219 3.018263,-0.839658 4.594553,-0.849561 0.204605,-0.01312 0.408337,-0.036 0.612881,-0.05064 1.349438,-1.186651 3.0544,-1.82362 4.690155,-2.506308 0.738624,-0.29617 0.887941,-0.354629 1.105357,-0.440799 0.114163,-0.162914 0.234061,-0.322035 0.360702,-0.476459 V 87.04804 Z m 27.539405,30.052951 c 0.164224,7.9e-4 0.328337,0.008 0.492477,0.0186 0.344882,0.0326 0.681551,0.12229 1.004072,0.2465 0.198393,0.0816 0.357288,0.21091 0.476975,0.38705 0.07005,0.13077 0.08172,0.23686 0.03928,0.34675 0.276876,-0.0818 0.408498,0.21495 0.09973,0.39946 -0.01834,0.011 -0.03707,0.0202 -0.05374,0.0336 -0.06112,0.0464 -0.115295,0.10241 -0.189135,0.12971 -0.04557,0.0215 -0.09117,0.0426 -0.136943,0.0636 -0.0019,0.0298 -0.0052,0.0597 -0.01035,0.0894 -0.03716,0.18651 -0.08584,0.37237 -0.189653,0.53433 -0.06144,0.0785 -0.117415,0.1765 -0.248047,0.1633 -0.210794,-0.0212 -0.231026,-0.19486 -0.225825,-0.34778 0.0065,-0.0775 0.0145,-0.15505 0.02582,-0.23203 -0.0647,0.006 -0.129464,0.006 -0.195337,0.005 -0.07818,-7e-5 -0.156435,-1.8e-4 -0.234611,-5.3e-4 -0.114255,0.0322 -0.231974,0.0487 -0.349848,0.061 -0.129929,0.0177 -0.257977,0.0442 -0.388091,0.061 -0.154538,0.0188 -0.310137,0.0271 -0.465606,0.0331 -0.154961,0.009 -0.309946,0.004 -0.464569,-0.007 -0.128172,-0.0114 -0.251743,-0.0485 -0.373623,-0.0879 -0.0711,-0.0242 -0.145235,-0.0365 -0.219623,-0.0455 -0.07574,-0.008 -0.151823,-0.009 -0.227893,-0.0114 -0.115906,0.003 -0.230167,-0.0109 -0.344681,-0.0269 -0.156149,-0.0168 -0.298021,-0.0472 -0.433567,-0.12867 -0.05047,-0.0379 -0.08997,-0.0818 -0.120923,-0.13074 -0.0345,0.11258 -0.0645,0.22818 -0.06821,0.3452 -0.01312,0.40401 -0.413258,0.40403 -0.40876,-5.3e-4 0.0021,-0.19403 0.06075,-0.3833 0.118337,-0.56689 0.07088,-0.20207 0.148011,-0.40261 0.258385,-0.58653 0.18288,-0.24272 0.47191,-0.34573 0.748792,-0.44183 0.410577,-0.13494 0.837321,-0.20432 1.265036,-0.25632 0.272508,-0.0341 0.546402,-0.048 0.820105,-0.0465 z m 0.0011,0.40927 c -0.257654,-0.002 -0.514979,0.0114 -0.77153,0.0434 -0.399169,0.0483 -0.797872,0.11169 -1.181322,0.23668 -0.09703,0.0332 -0.198972,0.0666 -0.294556,0.11059 0.0019,2.4e-4 0.0034,2.6e-4 0.0052,5.3e-4 0.07149,0.0103 0.142301,0.024 0.211873,0.0424 0.290967,0.0187 0.575347,0.0851 0.858345,0.15193 0.225915,0.0488 0.449771,0.10629 0.675929,0.15399 0.174945,0.0317 0.350964,0.0584 0.527616,0.0786 0.08417,0.008 0.168516,0.0167 0.252698,0.0248 0.0039,-10e-4 0.008,-0.002 0.01188,-0.003 0.192915,-0.0523 0.387927,-0.10108 0.58601,-0.12918 0.149613,-0.0205 0.305043,-0.0397 0.451135,-0.0124 0.02772,-0.0338 0.05795,-0.065 0.09457,-0.091 0.0621,-0.0449 0.131643,-0.0804 0.186552,-0.13436 0.01635,-0.009 0.008,0.002 0.01394,0.0181 0.0028,0.007 0.02704,-0.0262 0.0031,-0.0222 -0.06771,-0.10852 -0.166269,-0.1802 -0.283702,-0.231 -0.283533,-0.11077 -0.580863,-0.18924 -0.884184,-0.22014 -0.154514,-0.0106 -0.308946,-0.0167 -0.463537,-0.0176 z m 1.462961,1.71049 c 0.0035,0.0208 0.0077,0.0456 0.0067,0.0377 -0.0016,-0.0127 0.0024,-0.0287 -0.0067,-0.0377 z m 24.020237,4.03955 c -1.018682,1.75772 -2.088369,3.48805 -3.255097,5.14904 -0.02781,0.33928 -0.130881,0.68136 -0.271817,0.99942 -0.484968,0.83102 -1.077309,1.59211 -1.765268,2.26653 -0.688298,0.70517 -1.405096,1.38021 -2.171962,2.00039 -0.03664,0.0301 -0.0715,0.0622 -0.108003,0.0925 -1.312775,1.55631 -2.594988,3.13948 -3.730522,4.83019 -1.209058,1.67477 -1.142349,1.64917 -2.852539,0.30438 -0.09297,0.0534 -0.186775,0.10533 -0.28112,0.15658 0.05226,0.28822 0.09874,0.57887 0.129191,0.87591 0.06872,1.60826 -0.352975,3.07827 -1.078487,4.43229 h 15.385624 z" />
    </clipPath>
    <inkscape:path-effect
       effect="bspline"
       id="path-effect78-8-8"
       is_visible="true"
       lpeversion="1.3"
       weight="33.333333"
       steps="2"
       helper_size="0"
       apply_no_weight="true"
       apply_with_weight="true"
       only_selected="false"
       uniform="false" />
    <inkscape:path-effect
       effect="bspline"
       id="path-effect78-1-9-2"
       is_visible="true"
       lpeversion="1.3"
       weight="33.333333"
       steps="2"
       helper_size="0"
       apply_no_weight="true"
       apply_with_weight="true"
       only_selected="false"
       uniform="false" />
    <inkscape:path-effect
       effect="bspline"
       id="path-effect135-26-04"
       is_visible="true"
       lpeversion="1.3"
       weight="33.333333"
       steps="2"
       helper_size="0"
       apply_no_weight="true"
       apply_with_weight="true"
       only_selected="false"
       uniform="false" />
    <clipPath
       clipPathUnits="userSpaceOnUse"
       id="clipPath202-0-9">
      <path
         id="path203-0-8"
         style="fill:#ff0000;fill-opacity:1;fill-rule:nonzero;stroke:none;stroke-width:0.264583"
         d="m 58.9964,108.28538 v 11.22774 h 4.240567 c -0.02172,-0.11259 0.02027,-0.2616 0.160197,-0.42116 0.09127,-0.10408 0.190532,-0.20342 0.264584,-0.32092 0.135911,-0.19009 0.286004,-0.36901 0.422195,-0.55913 0.180999,-0.24803 0.36884,-0.49108 0.560174,-0.73123 0.01267,-0.0151 0.02471,-0.0307 0.03721,-0.046 0.08883,-0.37163 0.223676,-0.71071 0.551389,-0.94516 0.009,0.003 0.01836,0.005 0.02739,0.008 0.06552,-0.0619 0.13779,-0.0956 0.206706,-0.10025 0.123677,-0.008 0.233632,0.0737 0.27182,0.23203 0.143258,0.0394 0.284006,0.0839 0.415478,0.14986 0.23591,0.0384 0.466055,0.14462 0.700733,0.19844 0.01225,0.0382 0.02646,0.0759 0.04031,0.11368 0.08998,-0.5604 0.132157,-1.13223 0.33383,-1.66604 0.177507,-0.29203 0.401267,-0.45776 0.66456,-0.46199 0.157974,-0.003 0.329864,0.0532 0.515212,0.17466 0.178734,0.1171 0.26175,0.32933 0.311092,0.54209 0.09304,0.0285 0.193357,0.0995 0.288356,0.22841 0.24148,0.32768 0.409432,0.70297 0.58756,1.06712 0.03856,0.0787 0.07504,0.15795 0.111104,0.23771 0.472644,0.6986 0.853538,1.45717 1.242819,2.204 0.0313,0.0641 0.02246,0.0459 0.04703,0.0961 h 5.691642 V 108.2856 Z m 9.248013,9.88157 c -0.0287,0.0142 -0.02649,0.002 -0.03359,0.0305 0.01675,-0.002 0.03336,-0.004 0.05013,-0.005 -0.0055,-0.008 -0.01103,-0.0169 -0.01654,-0.0253 z m -3.916558,0.81907 c -0.03869,0.0503 -0.07768,0.10033 -0.115237,0.15141 -0.08918,0.13089 -0.189415,0.25314 -0.299207,0.36742 -0.0028,0.003 -0.0055,0.005 -0.0083,0.008 h 0.659392 c -0.0056,-0.0921 -0.0045,-0.18349 -0.0036,-0.26717 2.64e-4,-0.046 5.29e-4,-0.092 0.0011,-0.13797 -0.03899,0.008 -0.07363,-0.006 -0.08888,-0.0403 -0.0558,-0.01 -0.10614,-0.0377 -0.145211,-0.0811 z" />
    </clipPath>
    <clipPath
       clipPathUnits="userSpaceOnUse"
       id="clipPath202-0-2">
      <path
         id="path203-0-6"
         style="fill:#ff0000;fill-opacity:1;fill-rule:nonzero;stroke:none;stroke-width:0.264583"
         d="m 58.9964,108.28538 v 11.22774 h 4.240567 c -0.02172,-0.11259 0.02027,-0.2616 0.160197,-0.42116 0.09127,-0.10408 0.190532,-0.20342 0.264584,-0.32092 0.135911,-0.19009 0.286004,-0.36901 0.422195,-0.55913 0.180999,-0.24803 0.36884,-0.49108 0.560174,-0.73123 0.01267,-0.0151 0.02471,-0.0307 0.03721,-0.046 0.08883,-0.37163 0.223676,-0.71071 0.551389,-0.94516 0.009,0.003 0.01836,0.005 0.02739,0.008 0.06552,-0.0619 0.13779,-0.0956 0.206706,-0.10025 0.123677,-0.008 0.233632,0.0737 0.27182,0.23203 0.143258,0.0394 0.284006,0.0839 0.415478,0.14986 0.23591,0.0384 0.466055,0.14462 0.700733,0.19844 0.01225,0.0382 0.02646,0.0759 0.04031,0.11368 0.08998,-0.5604 0.132157,-1.13223 0.33383,-1.66604 0.177507,-0.29203 0.401267,-0.45776 0.66456,-0.46199 0.157974,-0.003 0.329864,0.0532 0.515212,0.17466 0.178734,0.1171 0.26175,0.32933 0.311092,0.54209 0.09304,0.0285 0.193357,0.0995 0.288356,0.22841 0.24148,0.32768 0.409432,0.70297 0.58756,1.06712 0.03856,0.0787 0.07504,0.15795 0.111104,0.23771 0.472644,0.6986 0.853538,1.45717 1.242819,2.204 0.0313,0.0641 0.02246,0.0459 0.04703,0.0961 h 5.691642 V 108.2856 Z m 9.248013,9.88157 c -0.0287,0.0142 -0.02649,0.002 -0.03359,0.0305 0.01675,-0.002 0.03336,-0.004 0.05013,-0.005 -0.0055,-0.008 -0.01103,-0.0169 -0.01654,-0.0253 z m -3.916558,0.81907 c -0.03869,0.0503 -0.07768,0.10033 -0.115237,0.15141 -0.08918,0.13089 -0.189415,0.25314 -0.299207,0.36742 -0.0028,0.003 -0.0055,0.005 -0.0083,0.008 h 0.659392 c -0.0056,-0.0921 -0.0045,-0.18349 -0.0036,-0.26717 2.64e-4,-0.046 5.29e-4,-0.092 0.0011,-0.13797 -0.03899,0.008 -0.07363,-0.006 -0.08888,-0.0403 -0.0558,-0.01 -0.10614,-0.0377 -0.145211,-0.0811 z" />
    </clipPath>
    <inkscape:path-effect
       effect="bspline"
       id="path-effect207-7-8"
       is_visible="true"
       lpeversion="1.3"
       weight="33.333333"
       steps="2"
       helper_size="0"
       apply_no_weight="true"
       apply_with_weight="true"
       only_selected="false"
       uniform="false" />
    <inkscape:path-effect
       effect="bspline"
       id="path-effect207-7-8-3"
       is_visible="true"
       lpeversion="1.3"
       weight="33.333333"
       steps="2"
       helper_size="0"
       apply_no_weight="true"
       apply_with_weight="true"
       only_selected="false"
       uniform="false" />
    <inkscape:path-effect
       effect="bspline"
       id="path-effect11-4"
       is_visible="true"
       lpeversion="1.3"
       weight="33.333333"
       steps="2"
       helper_size="0"
       apply_no_weight="true"
       apply_with_weight="true"
       only_selected="false"
       uniform="false" />
    <inkscape:path-effect
       effect="bspline"
       id="path-effect19-9"
       is_visible="true"
       lpeversion="1.3"
       weight="33.333333"
       steps="2"
       helper_size="0"
       apply_no_weight="true"
       apply_with_weight="true"
       only_selected="false"
       uniform="false" />
    <inkscape:path-effect
       effect="fillet_chamfer"
       id="path-effect111"
       is_visible="true"
       lpeversion="1"
       nodesatellites_param="F,0,0,1,0,0,0,1 @ F,0,0,1,0,0,0,1 @ F,0,0,1,0,0,0,1 @ F,0,0,1,0,0,0,1 @ F,0,0,1,0,0,0,1 @ F,0,0,1,0,0,0,1 @ F,0,0,1,0,0,0,1 @ F,0,0,1,0,0,0,1"
       radius="0"
       unit="px"
       method="auto"
       mode="F"
       chamfer_steps="1"
       flexible="false"
       use_knot_distance="true"
       apply_no_radius="true"
       apply_with_radius="true"
       only_selected="false"
       hide_knots="false" />
    <inkscape:path-effect
       effect="bspline"
       id="path-effect15-1"
       is_visible="true"
       lpeversion="1.3"
       weight="33.333333"
       steps="2"
       helper_size="0"
       apply_no_weight="true"
       apply_with_weight="true"
       only_selected="false"
       uniform="false" />
    <inkscape:path-effect
       effect="fillet_chamfer"
       id="path-effect111-8"
       is_visible="true"
       lpeversion="1"
       nodesatellites_param="F,0,0,1,0,0,0,1 @ F,0,0,1,0,0,0,1 @ F,0,0,1,0,0,0,1 @ F,0,0,1,0,0,0,1 @ F,0,0,1,0,0,0,1 @ F,0,0,1,0,0,0,1 @ F,0,0,1,0,0,0,1 @ F,0,0,1,0,0,0,1"
       radius="0"
       unit="px"
       method="auto"
       mode="F"
       chamfer_steps="1"
       flexible="false"
       use_knot_distance="true"
       apply_no_radius="true"
       apply_with_radius="true"
       only_selected="false"
       hide_knots="false" />
    <clipPath
       clipPathUnits="userSpaceOnUse"
       id="clipPath202-0-0">
      <path
         id="path203-0-7"
         style="fill:#ff0000;fill-opacity:1;fill-rule:nonzero;stroke:none;stroke-width:0.264583"
         d="m 58.9964,108.28538 v 11.22774 h 4.240567 c -0.02172,-0.11259 0.02027,-0.2616 0.160197,-0.42116 0.09127,-0.10408 0.190532,-0.20342 0.264584,-0.32092 0.135911,-0.19009 0.286004,-0.36901 0.422195,-0.55913 0.180999,-0.24803 0.36884,-0.49108 0.560174,-0.73123 0.01267,-0.0151 0.02471,-0.0307 0.03721,-0.046 0.08883,-0.37163 0.223676,-0.71071 0.551389,-0.94516 0.009,0.003 0.01836,0.005 0.02739,0.008 0.06552,-0.0619 0.13779,-0.0956 0.206706,-0.10025 0.123677,-0.008 0.233632,0.0737 0.27182,0.23203 0.143258,0.0394 0.284006,0.0839 0.415478,0.14986 0.23591,0.0384 0.466055,0.14462 0.700733,0.19844 0.01225,0.0382 0.02646,0.0759 0.04031,0.11368 0.08998,-0.5604 0.132157,-1.13223 0.33383,-1.66604 0.177507,-0.29203 0.401267,-0.45776 0.66456,-0.46199 0.157974,-0.003 0.329864,0.0532 0.515212,0.17466 0.178734,0.1171 0.26175,0.32933 0.311092,0.54209 0.09304,0.0285 0.193357,0.0995 0.288356,0.22841 0.24148,0.32768 0.409432,0.70297 0.58756,1.06712 0.03856,0.0787 0.07504,0.15795 0.111104,0.23771 0.472644,0.6986 0.853538,1.45717 1.242819,2.204 0.0313,0.0641 0.02246,0.0459 0.04703,0.0961 h 5.691642 V 108.2856 Z m 9.248013,9.88157 c -0.0287,0.0142 -0.02649,0.002 -0.03359,0.0305 0.01675,-0.002 0.03336,-0.004 0.05013,-0.005 -0.0055,-0.008 -0.01103,-0.0169 -0.01654,-0.0253 z m -3.916558,0.81907 c -0.03869,0.0503 -0.07768,0.10033 -0.115237,0.15141 -0.08918,0.13089 -0.189415,0.25314 -0.299207,0.36742 -0.0028,0.003 -0.0055,0.005 -0.0083,0.008 h 0.659392 c -0.0056,-0.0921 -0.0045,-0.18349 -0.0036,-0.26717 2.64e-4,-0.046 5.29e-4,-0.092 0.0011,-0.13797 -0.03899,0.008 -0.07363,-0.006 -0.08888,-0.0403 -0.0558,-0.01 -0.10614,-0.0377 -0.145211,-0.0811 z" />
    </clipPath>
    <inkscape:path-effect
       effect="bspline"
       id="path-effect207-7-0"
       is_visible="true"
       lpeversion="1.3"
       weight="33.333333"
       steps="2"
       helper_size="0"
       apply_no_weight="true"
       apply_with_weight="true"
       only_selected="false"
       uniform="false" />
    <inkscape:path-effect
       effect="bspline"
       id="path-effect15-1-6"
       is_visible="true"
       lpeversion="1.3"
       weight="33.333333"
       steps="2"
       helper_size="0"
       apply_no_weight="true"
       apply_with_weight="true"
       only_selected="false"
       uniform="false" />
    <inkscape:path-effect
       effect="bspline"
       id="path-effect15-1-6-2"
       is_visible="true"
       lpeversion="1.3"
       weight="33.333333"
       steps="2"
       helper_size="0"
       apply_no_weight="true"
       apply_with_weight="true"
       only_selected="false"
       uniform="false" />
    <inkscape:path-effect
       effect="bspline"
       id="path-effect39-4"
       is_visible="true"
       lpeversion="1.3"
       weight="33.333333"
       steps="2"
       helper_size="0"
       apply_no_weight="true"
       apply_with_weight="true"
       only_selected="false"
       uniform="false" />
  </defs>
  <g
     inkscape:label=" 1"
     inkscape:groupmode="layer"
     id="layer1">
    <path
       style="fill:none;fill-opacity:1;stroke:#003366;stroke-width:2.5;stroke-linecap:butt;stroke-linejoin:miter;stroke-dasharray:none;stroke-opacity:1"
       d="m 43.02074,92.974749 c 7.898204,3.042268 17.965304,2.615425 25.135414,-4.233333 7.35882,6.442201 16.31579,7.335733 24.87083,4.233333 -2.75536,19.036941 0.78002,38.131811 -24.87083,50.006251 C 43.076837,130.69831 45.161845,111.33935 43.02074,92.974749 Z"
       id="path5-6"
       sodipodi:nodetypes="ccccc"
       clip-path="url(#clipPath94-6)"
       transform="translate(-40.420278,-85.68996)" />
    <path
       style="fill:none;stroke:#003366;stroke-width:2.065;stroke-linecap:butt;stroke-linejoin:miter;stroke-dasharray:none;stroke-opacity:1"
       d="m 17.817952,21.241607 c 1.46408,-13.9490196 18.185623,-13.5906396 19.462002,0 -6.602896,1.50413 -12.785831,1.69953 -19.462002,0 z"
       id="path73-1"
       sodipodi:nodetypes="ccc" />
    <path
       style="fill:none;stroke:#003366;stroke-width:1.265;stroke-linecap:butt;stroke-linejoin:miter;stroke-dasharray:none;stroke-opacity:1"
       d="m 59.175684,108.47326 c 3.280706,14.12803 13.847418,14.95274 17.335904,0 -5.848234,1.32239 -11.641568,1.60167 -17.335904,0 z"
       id="path75-2"
       sodipodi:nodetypes="ccc"
       clip-path="url(#clipPath202-0)"
       transform="translate(-40.170818,-86.848442)" />
    <circle
       style="fill:none;fill-opacity:1;stroke:#003366;stroke-width:1.065;stroke-dasharray:none;stroke-opacity:1"
       id="path76-5"
       cx="26.954899"
       cy="33.428272"
       r="3.5" />
    <path
       style="fill:none;stroke:#003366;stroke-width:1.5;stroke-linecap:butt;stroke-linejoin:miter;stroke-dasharray:none;stroke-opacity:1"
       d="m 50.903772,128.95622 c 0.0954,-3.27093 0.190803,-6.54185 1.928517,-8.08872 1.737713,-1.54687 5.117601,-1.3697 7.134678,-1.68999 2.017077,-0.32029 2.671247,-1.138 3.325432,-1.95573"
       id="path78-29"
       inkscape:path-effect="#path-effect78-2"
       inkscape:original-d="m 50.903772,128.95622 c 0.0954,-3.27093 0.190804,-6.54185 0.286205,-9.81277 3.380025,0.17717 6.759913,0.35435 10.139867,0.53152 0.654199,-0.81775 1.30837,-1.63546 1.962555,-2.45319"
       sodipodi:nodetypes="cccc"
       transform="translate(-40.170818,-86.848442)" />
    <path
       style="fill:none;stroke:#003366;stroke-width:1.265;stroke-linecap:butt;stroke-linejoin:miter;stroke-dasharray:none;stroke-opacity:1"
       d="m 30.734551,33.762073 v 0 l 6.868943,1.63546 -0.654185,5.39703 -6.868943,-4.5793 z"
       id="path79-8" />
    <path
       style="fill:none;stroke:#003366;stroke-width:1.5;stroke-linecap:butt;stroke-linejoin:miter;stroke-dasharray:none;stroke-opacity:1"
       d="m 50.903772,128.95622 c 0.0954,-3.27093 0.190803,-6.54185 1.928517,-8.08872 1.737713,-1.54687 5.117601,-1.3697 7.134678,-1.68999 2.017077,-0.32029 2.671247,-1.138 3.325432,-1.95573"
       id="path78-3-1"
       inkscape:path-effect="#path-effect78-1-5"
       inkscape:original-d="m 50.903772,128.95622 c 0.0954,-3.27093 0.190804,-6.54185 0.286205,-9.81277 3.380025,0.17717 6.759913,0.35435 10.139867,0.53152 0.654199,-0.81775 1.30837,-1.63546 1.962555,-2.45319"
       sodipodi:nodetypes="cccc"
       transform="matrix(-1,0,0,1,95.347042,-86.567742)" />
    <path
       style="fill:#003366;fill-opacity:1;stroke:#003366;stroke-width:0.565;stroke-linecap:butt;stroke-linejoin:miter;stroke-dasharray:none;stroke-opacity:1"
       d="m 26.228961,24.035917 -0.654185,2.28965"
       id="path80-95" />
    <path
       style="fill:none;stroke:none;stroke-width:0.264583px;stroke-linecap:butt;stroke-linejoin:miter;stroke-opacity:1"
       d="m 65.149331,119.54891 c 0.487233,0.017 1.461693,0.0511 1.962554,-0.42932 0.500861,-0.48043 0.528118,-1.47532 0.528117,-1.47531 0,1e-5 -0.02726,0.9949 -0.03407,1.96256 -0.0068,0.96765 0.0068,1.90803 0.0068,1.90461 0,-0.003 -0.01363,-0.9506 0.46339,-1.4208 0.477019,-0.47021 1.444647,-0.46341 0.957397,-0.47705 -0.487251,-0.0136 -2.429322,-0.0477 -3.40038,-0.0647 -0.971057,-0.017 -0.971057,-0.017 -0.483825,4e-5 z"
       id="path135-9"
       inkscape:path-effect="#path-effect135-2"
       inkscape:original-d="m 64.662099,119.53187 c 0.974464,0.0341 1.948927,0.0681 2.92339,0.10222 0.02726,-0.99493 0.05452,-1.98982 0.08177,-2.98472 -0.02726,0.99492 -0.05452,1.98981 -0.08177,2.98472 0.01363,0.9404 0.02726,1.88078 0.04089,2.82117 -0.01363,-0.94723 -0.02726,-1.89441 -0.04089,-2.84162 0.967668,0.007 1.935297,0.0136 2.902947,0.0204 -1.94215,-0.0341 -3.884223,-0.0681 -5.826337,-0.10221 z"
       transform="translate(-40.170818,-86.848442)" />
    <path
       style="fill:#003366;fill-opacity:1;stroke:none;stroke-width:0.264583px;stroke-linecap:butt;stroke-linejoin:miter;stroke-opacity:1"
       d="m 64.600788,119.52847 c 0.02046,-0.003 0.06131,-0.0102 0.565588,-0.0136 0.504278,-0.003 1.471907,-0.003 1.952324,-0.49746 0.480416,-0.49406 0.4736,-1.48213 0.4736,-1.48212 0,1e-5 0.0068,0.98809 0.01363,1.96937 0.0068,0.98129 0.02045,2.93123 0.01692,2.44341 -0.0035,-0.48782 -0.0106,-1.46239 0.472787,-1.95202 0.483382,-0.48963 1.457161,-0.49429 0.953001,-0.49083 -0.50416,0.003 -2.486206,0.0151 -3.477248,0.0209 -0.991042,0.006 -0.991062,0.006 -0.970601,0.002 z"
       id="path136-3"
       inkscape:path-effect="#path-effect136-0"
       inkscape:original-d="m 64.580327,119.53187 c 0.04089,-0.007 0.08177,-0.0136 0.122659,-0.0204 0.967668,0 1.935297,0 2.902947,0 -0.0068,-0.98812 -0.01363,-1.97619 -0.02045,-2.96428 0.0068,0.98811 0.01363,1.97619 0.02045,2.96428 0.0068,0.97448 0.02726,3.89888 0.02045,2.92442 -0.0071,-0.97564 -0.01413,-1.95021 -0.02119,-2.9248 0.973823,-0.005 1.947606,-0.009 2.921408,-0.014 -1.982124,0.0116 -3.96417,0.0232 -5.946254,0.0348 z"
       transform="translate(-40.552332,-86.108801)" />
    <path
       style="fill:none;stroke:#003366;stroke-width:1.5;stroke-linecap:butt;stroke-linejoin:miter;stroke-dasharray:none;stroke-opacity:1"
       d="m 84.617056,129.19935 c 0.148828,5.79327 0.297657,11.58654 -2.01878,11.29497 -2.316436,-0.29158 -7.097991,-6.6678 -10.01692,-10.4766 -2.918928,-3.80879 -3.959077,-5.03117 -5.031551,-6.29154"
       id="path207-1"
       sodipodi:nodetypes="cccc"
       inkscape:original-d="m 84.617056,129.19935 c 0.148829,5.79327 0.297657,11.58654 0.446485,17.37981 -4.781699,-6.37642 -9.563257,-12.75264 -14.344815,-19.12887 -1.056298,-1.24136 -2.096448,-2.46374 -3.168921,-3.72411"
       inkscape:path-effect="#path-effect207-7"
       transform="translate(-40.170818,-86.848442)" />
    <path
       style="fill:#003366;fill-opacity:1;stroke:none;stroke-width:0.264583px;stroke-linecap:butt;stroke-linejoin:miter;stroke-opacity:1"
       d="m 18.56668,16.735927 c 6.579413,0.55326 12.271642,0.41649 17.264063,-0.26458 l 0.859895,2.24896 c -5.801811,0.60641 -11.90943,1.24765 -18.520833,-0.13229 z"
       id="path208-3"
       sodipodi:nodetypes="ccccc" />
    <path
       style="fill:none;stroke:#003366;stroke-width:0.264583px;stroke-linecap:butt;stroke-linejoin:miter;stroke-opacity:1"
       d="m 19.05,108.74375 c 0,2.73403 0,5.73264 0,8.73125"
       id="path15"
       inkscape:path-effect="#path-effect15"
       inkscape:original-d="m 19.05,108.74375 c 0,2.73403 0,5.73264 0,8.73125"
       transform="translate(-3.1030127,-69.132017)" />
    <path
       style="fill:none;stroke:#003366;stroke-width:0.264583px;stroke-linecap:butt;stroke-linejoin:miter;stroke-opacity:1"
       d="m 22.489583,109.00833 c 1.675694,0 3.351389,0 5.027083,0"
       id="path16"
       inkscape:path-effect="#path-effect16"
       inkscape:original-d="m 22.489583,109.00833 c 1.675694,0 3.351389,0 5.027083,0"
       transform="translate(-3.1030127,-69.132017)" />
  </g>
</svg>
