<?xml version="1.0" encoding="UTF-8" standalone="no"?>
<!-- Created with Inkscape (http://www.inkscape.org/) -->

<svg
   width="55mm"
   height="60mm"
   viewBox="0 0 55 60"
   version="1.1"
   id="svg1"
   inkscape:version="1.3.2 (091e20e, 2023-11-25, custom)"
   sodipodi:docname="msr-icon-safety.svg"
   xmlns:inkscape="http://www.inkscape.org/namespaces/inkscape"
   xmlns:sodipodi="http://sodipodi.sourceforge.net/DTD/sodipodi-0.dtd"
   xmlns="http://www.w3.org/2000/svg"
   xmlns:svg="http://www.w3.org/2000/svg">
  <sodipodi:namedview
     id="namedview1"
     pagecolor="#ffffff"
     bordercolor="#000000"
     borderopacity="0.25"
     inkscape:showpageshadow="2"
     inkscape:pageopacity="0.0"
     inkscape:pagecheckerboard="0"
     inkscape:deskcolor="#d1d1d1"
     inkscape:document-units="mm"
     inkscape:zoom="1.1893044"
     inkscape:cx="74.833659"
     inkscape:cy="145.46318"
     inkscape:window-width="1720"
     inkscape:window-height="650"
     inkscape:window-x="-7"
     inkscape:window-y="-7"
     inkscape:window-maximized="1"
     inkscape:current-layer="layer1" />
  <defs
     id="defs1">
    <clipPath
       clipPathUnits="userSpaceOnUse"
       id="clipPath94-7-3">
      <path
         id="path95-8-2"
         style="fill:#ff0000;fill-opacity:1;fill-rule:nonzero;stroke:none;stroke-width:0.264583"
         d="m 41.539524,87.048079 v 57.317431 h 26.53275 c -0.05654,-2.15073 -0.06778,-4.30173 -0.01188,-6.45283 0.02738,-1.09592 0.05098,-2.19345 0.158647,-3.28508 0.02498,-0.25316 0.07566,-0.47388 0.145211,-0.66455 -0.104029,-1.09471 -0.169756,-2.19297 -0.216008,-3.29179 -0.115242,-2.16005 0.08703,-4.49091 1.699122,-6.12779 0.448083,-0.45498 1.01732,-0.77204 1.526006,-1.15807 0.646829,-0.21079 1.267581,-0.53218 1.940449,-0.63252 0.113977,-0.017 0.231235,-0.0175 0.346231,-0.0295 -0.245092,-1.49857 -0.158996,-3.01963 0.525552,-4.55269 0.268933,-0.41899 0.481624,-0.87963 0.806667,-1.25677 0.136152,-0.15797 0.283996,-0.29447 0.430983,-0.43202 -0.04658,-0.0805 -0.09468,-0.1599 -0.135909,-0.24443 -0.298461,-0.61199 -0.363508,-1.31215 -0.545187,-1.96835 0.194442,-0.73766 0.23877,-1.53275 0.583427,-2.2133 0.310706,-0.61351 0.782045,-1.09098 1.328084,-1.49397 -0.515244,-1.07691 -1.496068,-2.04525 -1.518253,-3.23701 -0.04709,-2.52988 2.878267,-3.2687 4.873088,-3.5848 -1.171901,-2.7629 0.734531,-5.223586 3.191018,-6.221322 1.5001,-0.440219 3.018263,-0.839658 4.594553,-0.849561 0.204605,-0.01312 0.408337,-0.036 0.612881,-0.05064 1.349438,-1.186651 3.0544,-1.82362 4.690155,-2.506308 0.738624,-0.29617 0.887941,-0.354629 1.105357,-0.440799 0.114163,-0.162914 0.234061,-0.322035 0.360702,-0.476459 V 87.04804 Z m 27.539405,30.052951 c 0.164224,7.9e-4 0.328337,0.008 0.492477,0.0186 0.344882,0.0326 0.681551,0.12229 1.004072,0.2465 0.198393,0.0816 0.357288,0.21091 0.476975,0.38705 0.07005,0.13077 0.08172,0.23686 0.03928,0.34675 0.276876,-0.0818 0.408498,0.21495 0.09973,0.39946 -0.01834,0.011 -0.03707,0.0202 -0.05374,0.0336 -0.06112,0.0464 -0.115295,0.10241 -0.189135,0.12971 -0.04557,0.0215 -0.09117,0.0426 -0.136943,0.0636 -0.0019,0.0298 -0.0052,0.0597 -0.01035,0.0894 -0.03716,0.18651 -0.08584,0.37237 -0.189653,0.53433 -0.06144,0.0785 -0.117415,0.1765 -0.248047,0.1633 -0.210794,-0.0212 -0.231026,-0.19486 -0.225825,-0.34778 0.0065,-0.0775 0.0145,-0.15505 0.02582,-0.23203 -0.0647,0.006 -0.129464,0.006 -0.195337,0.005 -0.07818,-7e-5 -0.156435,-1.8e-4 -0.234611,-5.3e-4 -0.114255,0.0322 -0.231974,0.0487 -0.349848,0.061 -0.129929,0.0177 -0.257977,0.0442 -0.388091,0.061 -0.154538,0.0188 -0.310137,0.0271 -0.465606,0.0331 -0.154961,0.009 -0.309946,0.004 -0.464569,-0.007 -0.128172,-0.0114 -0.251743,-0.0485 -0.373623,-0.0879 -0.0711,-0.0242 -0.145235,-0.0365 -0.219623,-0.0455 -0.07574,-0.008 -0.151823,-0.009 -0.227893,-0.0114 -0.115906,0.003 -0.230167,-0.0109 -0.344681,-0.0269 -0.156149,-0.0168 -0.298021,-0.0472 -0.433567,-0.12867 -0.05047,-0.0379 -0.08997,-0.0818 -0.120923,-0.13074 -0.0345,0.11258 -0.0645,0.22818 -0.06821,0.3452 -0.01312,0.40401 -0.413258,0.40403 -0.40876,-5.3e-4 0.0021,-0.19403 0.06075,-0.3833 0.118337,-0.56689 0.07088,-0.20207 0.148011,-0.40261 0.258385,-0.58653 0.18288,-0.24272 0.47191,-0.34573 0.748792,-0.44183 0.410577,-0.13494 0.837321,-0.20432 1.265036,-0.25632 0.272508,-0.0341 0.546402,-0.048 0.820105,-0.0465 z m 0.0011,0.40927 c -0.257654,-0.002 -0.514979,0.0114 -0.77153,0.0434 -0.399169,0.0483 -0.797872,0.11169 -1.181322,0.23668 -0.09703,0.0332 -0.198972,0.0666 -0.294556,0.11059 0.0019,2.4e-4 0.0034,2.6e-4 0.0052,5.3e-4 0.07149,0.0103 0.142301,0.024 0.211873,0.0424 0.290967,0.0187 0.575347,0.0851 0.858345,0.15193 0.225915,0.0488 0.449771,0.10629 0.675929,0.15399 0.174945,0.0317 0.350964,0.0584 0.527616,0.0786 0.08417,0.008 0.168516,0.0167 0.252698,0.0248 0.0039,-10e-4 0.008,-0.002 0.01188,-0.003 0.192915,-0.0523 0.387927,-0.10108 0.58601,-0.12918 0.149613,-0.0205 0.305043,-0.0397 0.451135,-0.0124 0.02772,-0.0338 0.05795,-0.065 0.09457,-0.091 0.0621,-0.0449 0.131643,-0.0804 0.186552,-0.13436 0.01635,-0.009 0.008,0.002 0.01394,0.0181 0.0028,0.007 0.02704,-0.0262 0.0031,-0.0222 -0.06771,-0.10852 -0.166269,-0.1802 -0.283702,-0.231 -0.283533,-0.11077 -0.580863,-0.18924 -0.884184,-0.22014 -0.154514,-0.0106 -0.308946,-0.0167 -0.463537,-0.0176 z m 1.462961,1.71049 c 0.0035,0.0208 0.0077,0.0456 0.0067,0.0377 -0.0016,-0.0127 0.0024,-0.0287 -0.0067,-0.0377 z m 24.020237,4.03955 c -1.018682,1.75772 -2.088369,3.48805 -3.255097,5.14904 -0.02781,0.33928 -0.130881,0.68136 -0.271817,0.99942 -0.484968,0.83102 -1.077309,1.59211 -1.765268,2.26653 -0.688298,0.70517 -1.405096,1.38021 -2.171962,2.00039 -0.03664,0.0301 -0.0715,0.0622 -0.108003,0.0925 -1.312775,1.55631 -2.594988,3.13948 -3.730522,4.83019 -1.209058,1.67477 -1.142349,1.64917 -2.852539,0.30438 -0.09297,0.0534 -0.186775,0.10533 -0.28112,0.15658 0.05226,0.28822 0.09874,0.57887 0.129191,0.87591 0.06872,1.60826 -0.352975,3.07827 -1.078487,4.43229 h 15.385624 z" />
    </clipPath>
    <inkscape:path-effect
       effect="bspline"
       id="path-effect78-8-7"
       is_visible="true"
       lpeversion="1.3"
       weight="33.333333"
       steps="2"
       helper_size="0"
       apply_no_weight="true"
       apply_with_weight="true"
       only_selected="false"
       uniform="false" />
    <inkscape:path-effect
       effect="bspline"
       id="path-effect78-1-9-72"
       is_visible="true"
       lpeversion="1.3"
       weight="33.333333"
       steps="2"
       helper_size="0"
       apply_no_weight="true"
       apply_with_weight="true"
       only_selected="false"
       uniform="false" />
    <inkscape:path-effect
       effect="bspline"
       id="path-effect135-26-2"
       is_visible="true"
       lpeversion="1.3"
       weight="33.333333"
       steps="2"
       helper_size="0"
       apply_no_weight="true"
       apply_with_weight="true"
       only_selected="false"
       uniform="false" />
    <inkscape:path-effect
       effect="bspline"
       id="path-effect11"
       is_visible="true"
       lpeversion="1.3"
       weight="33.333333"
       steps="2"
       helper_size="0"
       apply_no_weight="true"
       apply_with_weight="true"
       only_selected="false"
       uniform="false" />
    <inkscape:path-effect
       effect="bspline"
       id="path-effect11-4"
       is_visible="true"
       lpeversion="1.3"
       weight="33.333333"
       steps="2"
       helper_size="0"
       apply_no_weight="true"
       apply_with_weight="true"
       only_selected="false"
       uniform="false" />
    <inkscape:path-effect
       effect="bspline"
       id="path-effect13"
       is_visible="true"
       lpeversion="1.3"
       weight="33.333333"
       steps="2"
       helper_size="0"
       apply_no_weight="true"
       apply_with_weight="true"
       only_selected="false"
       uniform="false" />
    <inkscape:path-effect
       effect="bspline"
       id="path-effect14"
       is_visible="true"
       lpeversion="1.3"
       weight="33.333333"
       steps="2"
       helper_size="0"
       apply_no_weight="true"
       apply_with_weight="true"
       only_selected="false"
       uniform="false" />
    <inkscape:path-effect
       effect="bspline"
       id="path-effect17"
       is_visible="true"
       lpeversion="1.3"
       weight="33.333333"
       steps="2"
       helper_size="0"
       apply_no_weight="true"
       apply_with_weight="true"
       only_selected="false"
       uniform="false" />
    <inkscape:path-effect
       effect="bspline"
       id="path-effect18"
       is_visible="true"
       lpeversion="1.3"
       weight="33.333333"
       steps="2"
       helper_size="0"
       apply_no_weight="true"
       apply_with_weight="true"
       only_selected="false"
       uniform="false" />
  </defs>
  <g
     inkscape:label="Слой 1"
     inkscape:groupmode="layer"
     id="layer1">
    <path
       style="fill:none;fill-opacity:1;stroke:#003366;stroke-width:2.5;stroke-linecap:butt;stroke-linejoin:miter;stroke-dasharray:none;stroke-opacity:1"
       d="m 43.02074,92.974749 c 7.898204,3.042268 17.965304,2.615425 25.135414,-4.233333 7.35882,6.442201 16.31579,7.335733 24.87083,4.233333 -2.75536,19.036941 0.78002,38.131811 -24.87083,50.006251 C 43.076837,130.69831 45.161845,111.33935 43.02074,92.974749 Z"
       id="path5-63-3"
       sodipodi:nodetypes="ccccc"
       clip-path="url(#clipPath94-7-3)"
       transform="translate(-40.590223,-85.881683)" />
    <path
       style="fill:none;stroke:#003366;stroke-width:1.5;stroke-linecap:butt;stroke-linejoin:miter;stroke-dasharray:none;stroke-opacity:1"
       d="m 51.135534,132.94912 c 0.01815,-4.6019 0.03629,-9.20378 1.735379,-11.41614 1.699086,-2.21235 5.078974,-2.03518 7.207005,-2.35547 2.12803,-0.32029 3.004095,-1.138 3.880181,-1.95573"
       id="path78-25-5"
       inkscape:path-effect="#path-effect78-8-7"
       inkscape:original-d="m 51.135534,132.94912 c 0.01815,-4.6019 0.0363,-9.20378 0.05444,-13.80567 3.380025,0.17717 6.759913,0.35435 10.139867,0.53152 0.876107,-0.81775 1.752172,-1.63546 2.628258,-2.45319"
       sodipodi:nodetypes="cccc"
       transform="matrix(0.80724449,0,0,1.0073892,-27.82607,-87.947531)" />
    <path
       style="fill:none;stroke:#003366;stroke-width:1.5;stroke-linecap:butt;stroke-linejoin:miter;stroke-dasharray:none;stroke-opacity:1"
       d="m 50.903772,128.95622 c 0.0954,-3.27093 0.190803,-6.54185 1.928517,-8.08872 1.737713,-1.54687 5.117601,-1.3697 7.351796,-1.73518 2.234195,-0.36548 3.322583,-1.27357 4.410996,-2.18168"
       id="path78-3-8-7"
       inkscape:path-effect="#path-effect78-1-9-72"
       inkscape:original-d="m 50.903772,128.95622 c 0.0954,-3.27093 0.190804,-6.54185 0.286205,-9.81277 3.380025,0.17717 6.759913,0.35435 10.139867,0.53152 1.088435,-0.90813 2.176823,-1.81622 3.265237,-2.72433"
       sodipodi:nodetypes="cccc"
       transform="matrix(-0.73699524,0,0,1.0104489,77.905409,-88.043258)" />
    <path
       style="fill:none;stroke:none;stroke-width:0.264583px;stroke-linecap:butt;stroke-linejoin:miter;stroke-opacity:1"
       d="m 65.149331,119.54891 c 0.487233,0.017 1.461693,0.0511 1.962554,-0.42932 0.500861,-0.48043 0.528118,-1.47532 0.528117,-1.47531 0,1e-5 -0.02726,0.9949 -0.03407,1.96256 -0.0068,0.96765 0.0068,1.90803 0.0068,1.90461 0,-0.003 -0.01363,-0.9506 0.46339,-1.4208 0.477019,-0.47021 1.444647,-0.46341 0.957397,-0.47705 -0.487251,-0.0136 -2.429322,-0.0477 -3.40038,-0.0647 -0.971057,-0.017 -0.971057,-0.017 -0.483825,4e-5 z"
       id="path135-8-9"
       inkscape:path-effect="#path-effect135-26-2"
       inkscape:original-d="m 64.662099,119.53187 c 0.974464,0.0341 1.948927,0.0681 2.92339,0.10222 0.02726,-0.99493 0.05452,-1.98982 0.08177,-2.98472 -0.02726,0.99492 -0.05452,1.98981 -0.08177,2.98472 0.01363,0.9404 0.02726,1.88078 0.04089,2.82117 -0.01363,-0.94723 -0.02726,-1.89441 -0.04089,-2.84162 0.967668,0.007 1.935297,0.0136 2.902947,0.0204 -1.94215,-0.0341 -3.884223,-0.0681 -5.826337,-0.10221 z"
       transform="translate(-40.340763,-87.040165)" />
    <path
       style="fill:#003366;fill-opacity:1;stroke:none;stroke-width:0.492662px;stroke-linecap:butt;stroke-linejoin:miter;stroke-opacity:1"
       d="m 18.51213,37.169084 c -8.351188,-37.56461723 27.312289,-29.7406552 18.081969,-0.31896 -6.19467,-2.38847 -2.64401,-6.302404 -6.22915,-12.795899 -3.45084,-2.200452 -1.54973,-1.422292 -6.690579,-4.660911 -4.09356,7.01123 1.601609,17.22973 -5.16224,17.77577 z"
       id="path1"
       sodipodi:nodetypes="ccccc" />
    <path
       style="fill:none;fill-opacity:1;stroke:#003366;stroke-width:0.765;stroke-linecap:butt;stroke-linejoin:miter;stroke-dasharray:none;stroke-opacity:1"
       d="m 19.520287,18.335499 c 0.864206,4.228356 1.395388,12.053329 7.838282,13.460675 4.62258,-1.401107 9.63721,-9.193302 7.04453,-13.85755 -2.59237,-4.662394 -8.23755,-7.767665 -14.882812,0.396875 z"
       id="path3"
       sodipodi:nodetypes="cccc" />
    <path
       style="fill:#003366;fill-opacity:1;stroke:#003366;stroke-width:0.565;stroke-linecap:butt;stroke-linejoin:miter;stroke-dasharray:none;stroke-opacity:1"
       d="m 26.812159,24.593446 -0.65419,2.28965"
       id="path80-95-8" />
    <path
       style="fill:#003366;fill-opacity:1;stroke:#003366;stroke-width:0.264583px;stroke-linecap:butt;stroke-linejoin:miter;stroke-opacity:1"
       d="m 25.425059,28.905559 3.00511,2e-6"
       id="path4"
       sodipodi:nodetypes="cc" />
    <path
       style="fill:#003366;fill-opacity:1;stroke:none;stroke-width:0.665;stroke-linecap:butt;stroke-linejoin:miter;stroke-dasharray:none;stroke-opacity:1"
       d="m 139.75524,255.75021 c -7.73301,-5.67503 -15.46584,-11.34993 -16.80667,-16.37024 -1.34083,-5.02032 3.71051,-9.38568 7.57697,-9.97812 3.86646,-0.59245 6.50381,2.53558 9.2297,5.76861"
       id="path11"
       inkscape:path-effect="#path-effect11"
       inkscape:original-d="m 139.75524,255.75021 c -7.73301,-5.67503 -15.46584,-11.34992 -23.199,-17.02507 5.0515,-4.36549 10.10284,-8.73085 15.15418,-13.09621 2.68158,3.18047 5.31893,6.3085 8.04482,9.54153"
       sodipodi:nodetypes="cccc"
       transform="matrix(0.33211383,0,0,0.33211383,-19.14668,-39.524252)" />
    <path
       style="fill:#003366;fill-opacity:1;stroke:none;stroke-width:0.665;stroke-linecap:butt;stroke-linejoin:miter;stroke-dasharray:none;stroke-opacity:1"
       d="m 139.75524,255.75021 c -7.73301,-5.67503 -15.46584,-11.34993 -16.80667,-16.37024 -1.34083,-5.02032 3.71051,-9.38568 7.57697,-9.97812 3.86646,-0.59245 6.50381,2.53558 9.2297,5.76861"
       id="path11-8"
       inkscape:path-effect="#path-effect11-4"
       inkscape:original-d="m 139.75524,255.75021 c -7.73301,-5.67503 -15.46584,-11.34992 -23.199,-17.02507 5.0515,-4.36549 10.10284,-8.73085 15.15418,-13.09621 2.68158,3.18047 5.31893,6.3085 8.04482,9.54153"
       sodipodi:nodetypes="cccc"
       transform="matrix(-0.33211383,0,0,0.33211383,73.681649,-39.524308)" />
    <path
       style="fill:none;fill-opacity:1;stroke:#003366;stroke-width:1.12;stroke-linecap:butt;stroke-linejoin:miter;stroke-dasharray:none;stroke-opacity:1"
       d="m 101.34661,105.6597 c -0.0751,2.41609 -0.15013,4.8322 -2.354809,5.6193 -2.204683,0.78709 -6.538818,-0.0548 -10.87304,-0.89669"
       id="path13"
       inkscape:path-effect="#path-effect13"
       inkscape:original-d="m 101.34661,105.6597 c -0.0751,2.41609 -0.15013,4.8322 -0.22519,7.24831 -4.334303,-0.84191 -8.668437,-1.6838 -13.002659,-2.5257"
       sodipodi:nodetypes="ccc"
       transform="translate(-60.963138,-63.656559)" />
    <path
       style="fill:none;stroke:#003366;stroke-width:1.12;stroke-linecap:butt;stroke-linejoin:miter;stroke-dasharray:none;stroke-opacity:1"
       d="m 74.458695,104.53036 c -0.09268,2.79255 -0.185359,5.5851 2.091366,6.54483 2.276724,0.95972 6.922664,0.0867 11.5687,-0.78642"
       id="path14"
       inkscape:path-effect="#path-effect14"
       inkscape:original-d="m 74.458695,104.53036 c -0.09268,2.79255 -0.185359,5.5851 -0.278038,8.37765 4.646128,-0.8731 9.292068,-1.74616 13.938104,-2.61924"
       sodipodi:nodetypes="ccc"
       transform="translate(-60.963138,-63.656559)" />
    <path
       style="fill:#003366;fill-opacity:1;stroke:#003366;stroke-width:0.264583px;stroke-linecap:butt;stroke-linejoin:miter;stroke-opacity:1"
       d="m 80.565624,111.72031 c -0.321234,0.76293 -0.689786,1.63824 -1.058333,2.51354"
       id="path17"
       inkscape:path-effect="#path-effect17"
       inkscape:original-d="m 80.565624,111.72031 c -0.321234,0.76293 -0.689786,1.63824 -1.058333,2.51354"
       sodipodi:nodetypes="cc"
       transform="translate(-60.963138,-63.656559)" />
    <path
       style="fill:none;stroke:#003366;stroke-width:0.264583px;stroke-linecap:butt;stroke-linejoin:miter;stroke-opacity:1"
       d="m 93.530207,111.65417 c 0.694029,1.57313 1.3392,3.03552 1.984375,4.49791"
       id="path18"
       inkscape:path-effect="#path-effect18"
       inkscape:original-d="m 93.530207,111.65417 c 0.661458,1.5875 1.322917,3.0427 1.984375,4.49791"
       transform="translate(-60.169388,-63.722705)" />
    <path
       d="M 60.629459,41.596034"
       style="fill:#003366;fill-opacity:1;stroke:none;stroke-width:0.264583px;stroke-linecap:butt;stroke-linejoin:miter;stroke-opacity:1"
       id="path1-1" />
    <path
       style="fill:#003366;fill-opacity:1;stroke:none;stroke-width:0.264583px;stroke-linecap:butt;stroke-linejoin:miter;stroke-opacity:1"
       d="m 32.563039,42.107654 c 0.0216,0.72833 -0.86433,2.25428 -1.58642,2.9113 -1.57677,0.65502 -1.41114,2.47275 -4.43491,2.23153 -0.9763,-0.68004 3.19869,-2.57765 4.27041,-3.49792 0.8975,-0.77066 0.71495,-1.71698 1.75092,-1.64491 z"
       id="path20-6"
       sodipodi:nodetypes="cccsc" />
    <path
       style="fill:#003366;fill-opacity:1;stroke:none;stroke-width:0.264583px;stroke-linecap:butt;stroke-linejoin:miter;stroke-opacity:1"
       d="m 21.521103,41.849934 c -0.02161,0.72833 0.864335,2.25428 1.586427,2.9113 1.576769,0.65502 1.411139,2.47275 4.434909,2.23153 0.9763,-0.68004 -3.19869,-2.57765 -4.270416,-3.49792 -0.897494,-0.77066 -0.714941,-1.71698 -1.75092,-1.64491 z"
       id="path20-6-7"
       sodipodi:nodetypes="cccsc" />
  </g>
</svg>
