<?xml version="1.0" standalone="no"?>
<!DOCTYPE svg PUBLIC "-//W3C//DTD SVG 20010904//EN"
 "http://www.w3.org/TR/2001/REC-SVG-20010904/DTD/svg10.dtd">
<svg version="1.0" xmlns="http://www.w3.org/2000/svg"
 width="700.000000pt" height="700.000000pt" viewBox="0 0 700.000000 700.000000"
 preserveAspectRatio="xMidYMid meet">
<metadata>
Created by potrace 1.14, written by Peter Selinger 2001-2017
</metadata>
<g transform="translate(0.000000,700.000000) scale(0.100000,-0.100000)"
fill="#000000" stroke="none">
<path d="M3382 6823 c-197 -180 -353 -289 -567 -398 -229 -116 -509 -208 -735
-240 -14 -2 -41 -6 -60 -9 -101 -16 -143 -18 -355 -21 -126 -1 -261 1 -300 6
-38 4 -92 11 -120 14 -106 12 -217 34 -425 85 -64 16 -172 53 -351 121 -85 32
-159 59 -163 59 -6 0 -2 -81 9 -150 3 -23 7 -49 20 -165 2 -22 9 -89 15 -150
6 -60 13 -121 15 -135 2 -14 7 -65 11 -115 4 -49 8 -101 9 -115 1 -14 6 -65 9
-115 4 -49 9 -101 11 -115 2 -14 7 -63 10 -110 3 -47 8 -96 10 -110 2 -14 6
-68 10 -120 3 -52 8 -106 10 -120 2 -14 6 -56 10 -95 3 -38 7 -86 10 -105 4
-38 11 -110 20 -205 3 -33 8 -71 10 -85 2 -14 7 -50 10 -80 5 -52 21 -169 31
-235 9 -56 14 -90 19 -127 6 -49 15 -105 21 -132 4 -21 22 -127 31 -181 2 -16
8 -46 13 -65 5 -19 12 -51 15 -70 3 -19 28 -123 55 -230 28 -107 52 -205 55
-217 18 -80 158 -470 211 -591 418 -949 1066 -1644 2069 -2219 163 -93 456
-243 476 -243 12 0 403 192 484 238 28 15 77 43 110 62 542 303 1049 728 1385
1159 71 92 280 393 280 404 0 2 23 44 51 93 118 205 241 487 333 766 70 211
152 536 182 713 2 17 11 64 19 105 7 41 17 95 21 120 3 25 8 52 9 60 4 21 16
100 20 130 9 64 17 127 20 150 1 14 6 52 10 85 3 33 8 71 10 85 5 30 31 285
40 385 4 39 8 86 10 105 2 19 6 69 10 110 3 41 8 91 10 110 2 19 6 72 10 117
3 46 8 91 9 100 2 10 7 63 11 118 4 55 8 114 10 130 2 17 7 59 10 95 3 36 7
81 10 100 2 19 7 64 10 100 3 36 8 81 10 100 3 19 7 55 10 80 3 25 7 61 10 80
2 19 7 55 10 80 4 25 8 56 10 70 8 53 28 200 41 299 7 51 6 54 -12 47 -157
-63 -511 -178 -593 -192 -14 -3 -53 -11 -87 -19 -198 -46 -357 -60 -644 -59
-207 0 -313 9 -464 40 -11 2 -34 7 -51 10 -161 28 -462 135 -630 222 -183 95
-381 227 -527 351 -50 42 -106 90 -126 107 l-37 31 -113 -104z m211 -368 c278
-214 641 -394 997 -494 259 -72 453 -96 780 -96 124 0 257 3 295 7 65 6 255
33 300 42 60 12 181 41 258 62 l88 23 -5 -27 c-3 -15 -8 -54 -11 -87 -3 -33
-8 -76 -10 -95 -10 -85 -15 -129 -20 -190 -3 -36 -8 -81 -10 -100 -3 -19 -7
-64 -10 -100 -3 -36 -7 -85 -10 -110 -2 -25 -7 -79 -10 -120 -3 -41 -8 -91
-10 -110 -3 -19 -7 -66 -10 -105 -3 -38 -7 -88 -9 -110 -2 -22 -7 -76 -11
-120 -3 -44 -8 -93 -10 -110 -2 -16 -6 -55 -9 -85 -20 -205 -24 -245 -36 -340
-5 -41 -12 -97 -15 -125 -3 -27 -8 -59 -10 -70 -2 -11 -7 -45 -10 -75 -3 -30
-8 -62 -10 -70 -2 -8 -7 -35 -10 -60 -5 -38 -55 -320 -69 -386 -75 -364 -217
-787 -369 -1092 -94 -190 -164 -305 -317 -526 -112 -162 -379 -452 -554 -603
-55 -49 -103 -90 -106 -93 -16 -17 -158 -126 -235 -181 -239 -173 -523 -342
-798 -477 l-128 -63 -137 72 c-164 86 -395 224 -541 322 -96 63 -319 223 -331
237 -3 3 -59 50 -125 105 -230 190 -502 479 -688 732 -209 283 -427 700 -549
1052 -97 280 -197 665 -242 936 -24 140 -56 349 -61 391 -3 28 -7 59 -9 70 -2
10 -7 50 -11 87 -3 37 -8 77 -10 87 -2 10 -6 47 -10 82 -3 35 -8 79 -10 98 -2
19 -7 62 -10 95 -3 33 -8 80 -10 105 -3 25 -7 72 -10 105 -12 148 -22 264 -30
340 -4 38 -7 80 -20 240 -3 39 -8 90 -10 115 -6 60 -13 129 -20 220 -4 41 -8
87 -10 103 -2 15 0 27 5 27 4 0 50 -11 102 -25 89 -24 249 -59 313 -69 17 -2
50 -8 75 -11 25 -4 54 -9 64 -11 66 -12 210 -19 411 -19 325 0 471 17 747 85
380 95 758 281 1043 514 44 36 83 65 87 66 4 0 45 -29 91 -65z"/>
<path d="M3470 6239 c-55 -56 -146 -127 -255 -197 -279 -181 -345 -224 -354
-236 -6 -7 28 0 75 15 115 38 332 86 424 95 249 25 523 -17 855 -131 34 -12
-70 56 -275 180 -222 134 -325 204 -390 267 l-45 43 -35 -36z"/>
<path d="M6040 5735 c-56 -14 -76 -18 -185 -35 -184 -29 -550 -31 -995 -5 -25
1 -137 6 -249 10 l-204 7 44 -38 c223 -198 381 -444 442 -689 l22 -90 39 2
c22 0 266 3 544 6 277 3 505 7 507 9 2 2 6 28 10 58 3 30 8 71 10 90 3 19 12
103 20 185 9 83 18 161 20 175 2 14 6 54 10 90 4 36 8 77 10 93 10 84 16 147
13 146 -2 0 -28 -7 -58 -14z"/>
<path d="M895 5626 c4 -55 8 -117 10 -136 2 -19 6 -82 10 -140 4 -58 8 -121
10 -140 2 -19 6 -86 10 -149 4 -62 8 -121 9 -130 3 -18 -56 -16 635 -22 l444
-4 110 195 c192 343 317 511 442 597 l50 35 -85 -6 c-47 -4 -101 -8 -120 -11
-19 -3 -64 -7 -100 -10 -36 -3 -81 -7 -100 -9 -19 -3 -71 -8 -115 -12 -44 -3
-93 -8 -110 -10 -173 -17 -495 -23 -672 -11 -113 7 -287 31 -376 51 l-58 14 6
-102z"/>
<path d="M3320 5710 c-25 -5 -63 -11 -86 -14 -22 -4 -55 -11 -73 -16 -17 -5
-34 -9 -36 -9 -3 0 -43 -12 -88 -27 -297 -99 -565 -323 -697 -583 -25 -51 -91
-224 -89 -236 1 -4 -9 -68 -16 -110 -1 -5 -3 -31 -3 -56 -2 -42 -5 -48 -48
-79 -136 -97 -244 -260 -280 -420 -4 -19 -9 -408 -11 -865 -3 -936 -5 -906 71
-1060 109 -219 323 -370 571 -401 28 -3 466 -6 975 -6 1012 0 1006 0 1147 59
207 87 356 254 418 467 l25 87 0 827 c0 907 0 902 -60 1030 -56 120 -158 240
-261 305 -25 16 -29 26 -30 65 -4 238 -147 525 -355 712 -76 68 -97 85 -157
123 -149 96 -305 158 -483 193 -96 19 -355 27 -434 14z m360 -468 c203 -49
359 -139 470 -272 56 -68 105 -157 115 -211 l6 -34 -763 2 c-420 1 -773 2
-785 2 -22 1 -22 1 7 72 96 232 337 408 613 445 23 4 43 7 45 9 8 7 252 -4
292 -13z m869 -714 c147 -54 256 -150 321 -283 21 -44 42 -93 46 -110 6 -27
14 -735 8 -735 -1 0 -14 21 -29 46 -31 53 -71 94 -165 169 -50 40 -70 64 -84
101 -45 113 -140 248 -246 348 -191 180 -468 303 -750 333 -121 13 -274 8
-410 -13 -82 -13 -252 -69 -347 -114 -106 -52 -269 -168 -339 -242 -101 -107
-217 -296 -240 -392 l-7 -30 49 40 c27 21 51 41 54 44 3 3 55 41 115 85 61 43
139 102 175 130 195 155 407 246 625 271 344 38 668 -43 915 -229 30 -23 57
-45 60 -48 3 -4 59 -41 125 -84 276 -178 249 -157 265 -216 41 -159 45 -344
12 -481 l-19 -77 29 20 c61 44 160 156 187 212 l28 58 -2 -443 c-2 -423 -3
-446 -23 -509 -59 -179 -220 -324 -412 -370 -77 -18 -1863 -21 -1960 -3 -182
34 -327 139 -405 294 -55 111 -58 137 -59 562 -1 213 0 388 1 388 0 0 11 -20
23 -45 24 -50 91 -118 176 -178 54 -38 57 -39 50 -16 -55 193 -65 393 -25 543
6 21 8 40 6 42 -2 2 -37 -28 -77 -68 -76 -75 -139 -164 -141 -195 0 -17 -1
-17 -7 -1 -4 10 -7 181 -6 380 1 312 3 374 18 436 18 70 66 161 116 218 82 95
215 166 350 188 14 2 453 3 975 2 l950 -1 74 -27z m378 -1180 c-3 -8 -6 -5 -6
6 -1 11 2 17 5 13 3 -3 4 -12 1 -19z"/>
<path d="M3305 4129 c-250 -60 -441 -210 -552 -434 -56 -113 -73 -178 -80
-322 -9 -165 28 -314 112 -452 149 -247 410 -394 700 -394 380 -1 712 272 789
648 65 313 -66 640 -329 827 -179 127 -431 177 -640 127z m308 -173 c215 -48
399 -216 468 -428 20 -62 24 -92 23 -198 0 -111 -4 -133 -29 -200 -49 -132
-122 -228 -232 -306 -109 -79 -226 -116 -364 -116 -361 1 -646 301 -626 662
15 283 200 507 480 580 71 18 210 21 280 6z"/>
<path d="M3424 3819 c-412 -55 -569 -558 -261 -835 95 -85 207 -125 336 -119
93 4 169 26 236 70 206 133 281 389 180 611 -14 30 -28 54 -31 54 -7 0 -60
-24 -177 -81 -31 -15 -54 -22 -50 -16 4 7 36 56 71 110 35 55 62 100 60 102
-27 24 -117 70 -168 85 -81 23 -131 28 -196 19z m111 -122 c40 -6 85 -18 85
-23 0 -2 -35 -58 -77 -124 -255 -395 -230 -352 -201 -341 13 5 57 26 98 46
230 114 383 185 388 181 12 -13 13 -140 1 -184 -89 -320 -523 -364 -670 -67
-108 219 28 476 271 513 30 5 60 7 65 6 6 -2 24 -5 40 -7z"/>
<path d="M4016 3262 c-3 -5 -8 -24 -11 -43 -12 -70 -71 -175 -140 -248 -62
-65 -71 -71 -97 -65 -59 12 -93 -59 -43 -92 38 -25 76 -2 80 48 0 4 26 33 58
63 92 89 157 203 173 305 5 27 -9 49 -20 32z"/>
<path d="M4658 3022 c-1 -5 -84 -65 -183 -135 -99 -70 -196 -140 -215 -157
-49 -43 -165 -113 -247 -149 -255 -112 -567 -136 -838 -66 -172 45 -289 101
-440 213 -54 40 -149 103 -210 139 -60 36 -127 77 -148 91 -20 14 -40 23 -43
20 -2 -3 15 -43 38 -89 176 -341 526 -570 954 -624 136 -17 333 -9 459 19 89
20 122 29 186 52 261 93 483 271 616 494 33 55 93 181 93 196 0 7 -18 4 -22
-4z"/>
<path d="M953 4743 c3 -5 8 -48 12 -98 3 -49 8 -103 10 -120 2 -16 7 -75 10
-130 4 -55 8 -116 10 -135 2 -19 4 -40 4 -46 1 -14 726 -14 727 1 0 6 3 17 6
25 3 8 18 53 33 100 48 154 100 246 186 333 l77 77 -540 0 c-296 0 -537 -3
-535 -7z"/>
<path d="M5000 4739 c0 -3 18 -24 39 -47 76 -80 148 -205 190 -332 27 -83 29
-85 76 -86 22 -1 169 -4 327 -8 l287 -6 6 22 c2 13 14 91 25 173 25 180 27
188 35 243 4 23 3 43 -2 43 -32 5 -983 3 -983 -2z"/>
<path d="M5275 3973 c5 -132 12 -271 20 -403 3 -41 7 -113 10 -160 7 -124 16
-248 20 -301 2 -26 7 -95 10 -155 4 -60 8 -126 10 -147 4 -31 16 -239 18 -284
1 -22 15 -14 38 20 13 17 26 34 30 37 36 27 182 301 247 465 56 141 133 395
156 515 3 14 7 36 11 50 20 92 41 238 51 355 3 39 7 82 9 97 2 15 -2 28 -8 30
-7 2 -150 5 -320 7 l-307 2 5 -128z"/>
<path d="M1072 4002 c-19 -3 -22 -8 -17 -30 9 -43 14 -73 20 -117 16 -107 49
-273 86 -420 71 -286 152 -470 326 -736 59 -92 113 -175 119 -185 7 -11 14
-17 17 -14 2 3 8 79 11 170 4 91 9 188 11 215 2 28 7 118 10 200 3 83 8 184
10 225 4 72 10 193 20 420 3 58 7 145 10 193 l5 89 -302 -4 c-167 -1 -313 -4
-326 -6z"/>
<path d="M5272 2218 c-69 -117 -165 -246 -239 -321 -200 -203 -396 -282 -743
-302 -25 -2 -48 -3 -51 -4 -4 0 -4 -92 -1 -203 2 -112 5 -249 6 -306 1 -76 4
-101 13 -97 12 4 332 239 378 276 164 135 332 295 411 394 110 137 194 296
238 450 23 83 42 185 34 185 -2 0 -22 -33 -46 -72z"/>
<path d="M1670 2272 c0 -29 68 -198 116 -290 173 -329 447 -614 881 -915 45
-31 86 -57 91 -57 5 0 10 33 12 73 1 39 3 90 5 112 2 22 6 101 10 175 4 74 8
154 10 178 l2 42 -76 1 c-79 1 -90 2 -180 20 -128 26 -307 103 -396 171 -186
142 -317 275 -434 442 -22 33 -41 54 -41 48z"/>
<path d="M2938 1602 l-28 -3 0 -352 0 -352 148 -98 c161 -106 200 -129 312
-183 150 -73 130 -73 293 9 78 40 170 92 205 115 35 23 66 42 68 42 3 0 32 18
64 40 32 22 64 40 69 40 28 0 39 46 36 155 -2 61 -5 215 -7 342 -2 146 -7 233
-13 234 -62 7 -500 6 -505 0 -3 -5 -5 -165 -4 -355 1 -191 -2 -348 -5 -351 -4
-2 -36 -5 -71 -7 l-65 -3 -2 340 c-1 187 -2 351 -2 365 l-1 25 -232 0 c-128 0
-245 -1 -260 -3z"/>
</g>
</svg>
